<?xml version="1.0" standalone="no"?>
<!DOCTYPE svg PUBLIC "-//W3C//DTD SVG 20010904//EN"
 "http://www.w3.org/TR/2001/REC-SVG-20010904/DTD/svg10.dtd">
<svg version="1.0" xmlns="http://www.w3.org/2000/svg"
 width="1943.000000pt" height="775.000000pt" viewBox="0 0 1943.000000 775.000000"
 preserveAspectRatio="xMidYMid meet">

<g transform="translate(0.000000,775.000000) scale(0.100000,-0.100000)"
fill="#000000" stroke="none">
<path d="M1919 7411 c0 -3 0 -30 1 -58 l1 -53 -60 0 c-33 0 -63 5 -66 10 -15
24 -35 9 -35 -27 0 -34 -1 -35 -18 -20 -21 19 -42 22 -42 7 0 -5 -4 -10 -10
-10 -14 0 -12 104 2 118 16 16 -7 33 -37 30 -18 -3 -20 -9 -17 -75 l4 -73 -37
0 c-46 0 -43 -24 4 -28 l32 -3 -3 -82 -3 -81 -32 -8 c-36 -9 -41 -24 -18 -54
9 -12 17 -15 22 -9 16 21 143 94 143 82 0 -29 -22 -86 -50 -131 -17 -27 -28
-51 -25 -54 3 -3 21 9 39 28 38 36 71 103 81 165 12 79 15 85 35 85 17 0 20
-7 20 -54 0 -70 -7 -86 -37 -86 l-25 0 23 -25 c51 -53 72 -28 88 102 9 68 8
80 -6 91 -11 8 -20 9 -27 2 -5 -5 -20 -10 -33 -10 -21 0 -23 5 -23 45 l0 45
54 0 53 0 7 -71 c4 -38 14 -91 21 -116 14 -45 13 -47 -15 -83 -16 -20 -50 -54
-75 -75 -25 -20 -44 -39 -41 -42 7 -8 69 27 117 68 l47 38 28 -40 c27 -40 77
-75 93 -65 11 7 11 126 0 126 -5 0 -9 -6 -9 -12 0 -7 -4 -19 -9 -27 -8 -13
-12 -13 -26 -1 -9 7 -23 26 -30 41 -13 25 -12 33 16 96 17 37 36 71 41 74 11
7 -10 26 -36 31 -15 2 -21 -7 -31 -45 -22 -86 -34 -79 -42 27 l-6 76 72 0 c39
0 71 4 71 9 0 5 -11 18 -25 29 -14 11 -25 27 -25 36 0 8 -13 22 -29 30 -34 18
-111 37 -112 27z m115 -83 c19 -22 11 -28 -36 -28 -38 0 -38 0 -38 39 0 46 18
58 42 27 9 -11 24 -28 32 -38z m-281 -219 c-5 -5 -23 -12 -41 -15 l-32 -6 0
70 0 71 38 3 37 3 3 -59 c2 -32 -1 -63 -5 -67z"/>
<path d="M2950 7411 c0 -6 4 -13 10 -16 5 -3 14 -24 20 -45 11 -42 32 -52 48
-23 13 23 -3 56 -38 76 -32 19 -40 21 -40 8z"/>
<path d="M4110 7411 c0 -6 4 -13 10 -16 5 -3 14 -24 20 -45 11 -42 32 -52 48
-23 13 23 -3 56 -38 76 -32 19 -40 21 -40 8z"/>
<path d="M4790 7375 l0 -45 -40 0 c-27 0 -42 6 -49 18 -9 15 -10 15 -11 0 0
-9 -12 -30 -26 -47 -26 -31 -27 -61 -1 -61 20 0 37 21 37 47 0 23 1 23 121 23
106 0 120 -2 115 -16 -3 -9 -6 -18 -6 -20 0 -2 -6 -4 -14 -4 -7 0 -19 -7 -27
-16 -10 -13 -30 -15 -101 -12 -66 2 -88 0 -88 -9 0 -10 33 -13 130 -13 72 0
130 4 130 8 0 4 -5 13 -12 20 -8 8 -5 16 13 31 13 11 30 20 37 21 18 0 11 30
-10 44 -13 8 -23 8 -38 -2 -11 -6 -40 -12 -65 -12 -43 0 -45 1 -45 29 0 16 6
32 13 34 17 8 -11 27 -40 27 -21 0 -23 -5 -23 -45z"/>
<path d="M6650 7411 c0 -6 4 -13 10 -16 5 -3 14 -24 20 -45 11 -42 32 -52 48
-23 13 23 -3 56 -38 76 -32 19 -40 21 -40 8z"/>
<path d="M7828 7383 l-3 -38 -72 -3 c-60 -2 -73 0 -73 13 0 8 -4 15 -10 15 -5
0 -10 -7 -10 -16 0 -8 -14 -28 -31 -44 -21 -19 -30 -34 -25 -45 10 -27 49 -14
66 22 13 29 19 33 58 33 44 0 48 -4 33 -43 -13 -35 -48 -66 -101 -90 -58 -26
-30 -35 40 -12 56 18 104 67 115 114 5 26 11 31 36 31 28 0 29 -1 29 -49 0
-71 14 -81 110 -81 43 0 85 3 94 6 17 7 22 44 6 44 -5 0 -10 10 -10 23 -1 21
-2 20 -16 -6 -14 -26 -19 -28 -72 -25 l-57 3 -3 43 -3 42 50 0 c55 0 56 -1 41
-31 -14 -26 4 -25 37 1 14 11 32 20 39 20 23 0 16 27 -12 45 -23 15 -27 15
-43 1 -13 -12 -38 -16 -89 -16 -65 0 -72 2 -72 19 0 11 5 23 11 27 14 8 1 20
-33 28 -25 6 -27 4 -30 -31z"/>
<path d="M8320 7395 c-25 -13 -66 -29 -92 -35 -62 -15 -64 -35 -3 -26 l45 7 0
-47 0 -47 -51 7 c-40 5 -50 4 -47 -6 3 -7 23 -14 46 -16 24 -2 42 -8 42 -15 0
-17 -56 -133 -81 -169 -12 -16 -18 -32 -15 -35 9 -9 44 26 78 79 17 26 33 48
34 48 2 0 1 -56 -3 -124 -6 -126 -2 -143 31 -130 13 5 16 30 18 147 l3 142 28
-44 c26 -39 30 -42 44 -28 22 22 8 50 -37 76 -57 32 -53 51 10 51 56 0 69 22
25 42 -20 9 -28 8 -43 -5 -28 -26 -32 -21 -32 33 l0 50 45 12 c47 13 52 23 19
44 -16 11 -26 9 -64 -11z"/>
<path d="M9050 7418 c0 -2 -2 -43 -4 -91 -3 -69 0 -90 10 -94 8 -3 21 0 29 7
11 9 56 11 169 8 l154 -4 4 76 c4 59 2 78 -11 88 -10 8 -18 9 -25 2 -13 -13
-282 -13 -307 0 -10 6 -19 9 -19 8z m310 -58 c0 -19 -7 -20 -135 -20 -106 0
-135 3 -135 13 0 25 12 27 142 27 121 0 128 -1 128 -20z m0 -65 l0 -25 -129 0
c-130 0 -149 5 -137 35 4 12 31 15 136 15 l130 0 0 -25z"/>
<path d="M10200 7372 c-14 -42 -18 -47 -42 -44 l-28 3 23 -34 c12 -19 27 -43
33 -53 10 -15 14 -17 25 -7 10 10 10 20 3 40 -9 24 -6 34 15 63 14 19 32 40
40 46 12 10 11 13 -7 23 -36 19 -46 13 -62 -37z"/>
<path d="M10453 7389 c-5 -27 -9 -30 -32 -26 -14 2 -34 8 -43 12 -17 7 -18 -2
-18 -109 0 -108 1 -116 19 -116 11 0 23 5 26 10 3 6 17 10 31 10 21 0 24 -5
24 -35 0 -38 -10 -44 -30 -20 -9 11 -16 13 -24 5 -5 -5 -27 -10 -48 -10 -26 0
-38 -4 -38 -14 0 -11 9 -13 35 -9 19 3 35 3 35 -1 0 -19 -47 -96 -78 -128 -21
-22 -30 -38 -22 -38 29 0 93 56 122 107 16 29 34 53 39 53 5 0 9 -31 9 -69 l0
-70 -42 -3 c-35 -3 -39 -5 -23 -12 11 -5 29 -17 40 -26 15 -13 26 -16 43 -9
21 8 22 14 22 111 l1 103 19 -48 c21 -54 84 -137 105 -137 7 0 20 11 28 23 15
23 14 25 -36 58 -28 19 -53 39 -54 45 -2 7 16 25 41 40 25 16 45 32 46 37 0 4
-11 13 -25 19 -24 11 -25 15 -25 98 0 47 5 91 10 96 7 7 4 16 -10 29 -16 14
-23 16 -32 7 -7 -7 -30 -12 -52 -12 l-41 1 24 20 c21 17 22 22 10 30 -29 18
-49 10 -56 -22z m105 -81 l3 -28 -75 0 -76 0 0 30 0 31 73 -3 c70 -3 72 -4 75
-30z m-3 -83 l0 -30 -72 -3 -73 -3 0 36 0 36 73 -3 72 -3 0 -30z m5 -65 c0 -5
7 -10 15 -10 20 0 19 -12 -6 -44 -27 -34 -32 -33 -47 7 -17 48 -15 57 13 57
14 0 25 -4 25 -10z"/>
<path d="M10850 7395 c-25 -13 -66 -29 -92 -35 -62 -15 -64 -35 -3 -26 l45 7
0 -47 0 -47 -51 7 c-40 5 -50 4 -47 -6 3 -7 23 -14 46 -16 24 -2 42 -8 42 -15
0 -17 -56 -133 -81 -169 -12 -16 -18 -32 -15 -35 9 -9 44 26 78 79 17 26 33
48 34 48 2 0 1 -56 -3 -124 -6 -126 -2 -143 31 -130 13 5 16 30 18 147 l3 142
28 -44 c26 -39 30 -42 44 -28 22 22 8 50 -37 76 -57 32 -53 51 10 51 56 0 69
22 25 42 -20 9 -28 8 -43 -5 -28 -26 -32 -21 -32 33 l0 50 45 12 c47 13 52 23
19 44 -16 11 -26 9 -64 -11z"/>
<path d="M11500 7411 c0 -6 4 -13 10 -16 5 -3 14 -24 20 -45 11 -42 32 -52 48
-23 13 23 -3 56 -38 76 -32 19 -40 21 -40 8z"/>
<path d="M12100 7390 l0 -30 -110 0 c-91 0 -110 -3 -110 -15 0 -12 19 -15 110
-15 105 0 110 -1 110 -21 0 -19 -5 -20 -62 -17 -35 2 -71 8 -80 12 -17 7 -18
-1 -18 -103 0 -94 3 -113 16 -118 10 -4 22 1 29 10 10 14 33 17 143 17 76 0
133 -4 137 -10 3 -5 15 -10 26 -10 17 0 19 7 19 78 0 48 5 83 12 90 10 10 7
17 -10 34 -17 17 -24 20 -34 10 -7 -7 -38 -12 -70 -12 -51 0 -58 2 -58 20 0
18 8 20 118 22 67 2 117 7 116 13 0 5 -13 18 -27 29 -25 18 -28 19 -45 3 -25
-23 -162 -25 -162 -3 0 8 5 18 11 22 15 9 -9 24 -38 24 -19 0 -23 -6 -23 -30z
m0 -150 c0 -30 -1 -30 -55 -30 -54 0 -55 0 -55 30 0 30 1 30 55 30 54 0 55 0
55 -30z m168 -2 c3 -28 3 -28 -57 -28 l-61 0 0 30 0 31 58 -3 c54 -3 57 -4 60
-30z m-168 -78 c0 -30 -1 -30 -55 -30 -54 0 -55 0 -55 30 0 30 1 30 55 30 54
0 55 0 55 -30z m168 -2 c3 -28 3 -28 -57 -28 l-61 0 0 30 0 31 58 -3 c54 -3
57 -4 60 -30z"/>
<path d="M12716 7378 c-8 -50 -61 -178 -87 -212 -33 -42 -20 -51 19 -13 38 37
52 39 52 7 0 -9 11 -39 25 -66 l26 -49 -44 -40 c-24 -23 -72 -55 -106 -73 -33
-18 -61 -37 -61 -42 0 -21 183 62 210 95 18 22 25 19 82 -26 28 -22 64 -47 80
-55 28 -15 31 -14 54 11 l24 26 -28 10 c-47 17 -106 50 -129 71 l-21 20 29 55
c16 30 36 79 45 109 15 53 16 54 55 54 46 0 51 16 12 44 -26 19 -26 19 -44 -2
-15 -19 -27 -22 -94 -22 -58 0 -76 3 -72 13 2 6 10 29 18 50 7 20 17 37 21 37
18 0 6 28 -14 34 -40 10 -45 7 -52 -36z m121 -153 c-3 -20 -18 -61 -32 -93
l-26 -57 -19 25 c-30 39 -53 106 -46 135 6 23 10 25 67 25 l62 0 -6 -35z"/>
<path d="M13340 7385 c0 -39 1 -39 -34 -25 -14 5 -26 7 -26 4 0 -3 -9 -51 -20
-106 -12 -55 -19 -103 -16 -105 3 -3 17 20 33 51 18 37 33 56 45 56 16 0 18
-9 18 -69 l0 -70 -45 -7 c-47 -7 -54 -18 -34 -56 l11 -20 19 21 c39 42 48 29
51 -76 3 -90 5 -98 23 -98 19 0 20 8 23 111 l3 111 34 19 c33 17 50 42 23 31
-60 -22 -58 -23 -58 42 l0 61 35 0 c41 0 42 -2 14 -46 -11 -19 -16 -34 -11
-34 12 0 82 79 82 92 0 4 9 8 21 8 16 0 19 -4 14 -22 -17 -56 -45 -108 -89
-161 -52 -64 -49 -71 12 -28 48 35 98 105 119 166 11 33 20 45 35 45 18 0 19
-4 13 -37 -17 -90 -58 -167 -127 -237 -37 -39 -66 -72 -64 -74 3 -2 25 8 49
23 92 54 164 157 188 273 6 28 15 52 21 52 14 0 3 -205 -15 -276 l-12 -49 -54
-5 -54 -5 36 -17 c21 -10 37 -22 37 -28 0 -15 32 -12 57 5 27 19 49 113 58
255 4 58 11 110 16 116 6 7 1 18 -12 30 -16 15 -24 16 -39 6 -18 -11 -190 -18
-190 -7 0 11 25 62 39 78 13 16 13 19 1 27 -8 6 -24 10 -35 10 -17 0 -24 -12
-39 -70 -10 -38 -20 -70 -22 -70 -2 0 -13 6 -24 12 -16 10 -24 10 -40 0 -19
-12 -20 -10 -20 42 0 33 5 56 12 58 21 7 -3 28 -33 28 -27 0 -29 -3 -29 -35z
m0 -75 c0 -20 -5 -30 -15 -30 -18 0 -19 14 -5 41 15 27 20 24 20 -11z"/>
<path d="M13970 7394 c-25 -14 -50 -22 -57 -19 -7 3 -19 8 -27 11 -11 4 -15
-10 -18 -65 -3 -53 -9 -78 -27 -101 -26 -36 -23 -47 9 -30 25 13 60 67 60 93
0 12 8 17 30 17 28 0 30 -2 30 -41 0 -36 2 -40 23 -37 18 2 23 10 25 41 3 36
4 37 43 37 45 0 48 -10 17 -57 -20 -28 -29 -33 -65 -33 -23 0 -53 4 -67 10
l-26 10 0 -130 c0 -122 1 -130 19 -130 11 0 23 5 26 10 4 6 55 10 120 10 65 0
116 -4 120 -10 9 -14 45 -12 46 3 1 6 0 49 -1 95 -1 54 3 88 11 98 9 11 9 18
1 26 -7 7 -12 31 -12 55 l0 43 55 0 c59 0 68 10 33 34 -19 14 -24 14 -38 1
-23 -21 -150 -21 -150 -1 0 10 23 18 73 27 86 14 97 22 65 43 -22 14 -27 13
-77 -10 -43 -21 -58 -24 -77 -15 -24 11 -41 0 -29 -19 3 -6 3 -19 0 -31 -7
-20 -8 -20 -26 -3 -17 15 -24 16 -39 6 -29 -18 -130 -16 -130 2 0 10 22 18 75
27 42 6 78 15 80 20 5 7 -34 40 -45 38 -3 -1 -25 -12 -50 -25z m240 -139 l0
-45 -67 0 -68 0 27 23 c14 12 31 32 37 45 8 15 21 22 41 22 29 0 30 -2 30 -45z
m-2 -92 c3 -23 2 -23 -117 -23 l-121 0 0 25 0 26 118 -3 c113 -3 117 -4 120
-25z m2 -63 c0 -19 -7 -20 -120 -20 -113 0 -120 1 -120 20 0 19 7 20 120 20
113 0 120 -1 120 -20z m-2 -67 c3 -23 2 -23 -117 -23 l-121 0 0 25 0 26 118
-3 c113 -3 117 -4 120 -25z"/>
<path d="M14490 7418 c0 -2 -2 -43 -4 -91 -3 -69 0 -90 10 -94 8 -3 21 0 29 7
11 9 56 11 169 8 l154 -4 4 76 c4 59 2 78 -11 88 -10 8 -18 9 -25 2 -13 -13
-282 -13 -307 0 -10 6 -19 9 -19 8z m310 -58 c0 -19 -7 -20 -135 -20 -106 0
-135 3 -135 13 0 25 12 27 142 27 121 0 128 -1 128 -20z m0 -65 l0 -25 -129 0
c-130 0 -149 5 -137 35 4 12 31 15 136 15 l130 0 0 -25z"/>
<path d="M15710 7395 c-25 -13 -66 -29 -92 -35 -62 -15 -64 -35 -3 -26 l45 7
0 -47 0 -47 -51 7 c-40 5 -50 4 -47 -6 3 -7 23 -14 46 -16 24 -2 42 -8 42 -15
0 -17 -56 -133 -81 -169 -12 -16 -18 -32 -15 -35 9 -9 44 26 78 79 17 26 33
48 34 48 2 0 1 -56 -3 -124 -6 -126 -2 -143 31 -130 13 5 16 30 18 147 l3 142
28 -44 c26 -39 30 -42 44 -28 22 22 8 50 -37 76 -57 32 -53 51 10 51 56 0 69
22 25 42 -20 9 -28 8 -43 -5 -28 -26 -32 -21 -32 33 l0 50 45 12 c47 13 52 23
19 44 -16 11 -26 9 -64 -11z"/>
<path d="M16360 7411 c0 -6 4 -13 10 -16 5 -3 14 -24 20 -45 11 -42 32 -52 48
-23 13 23 -3 56 -38 76 -32 19 -40 21 -40 8z"/>
<path d="M1150 7374 l0 -36 -75 4 c-56 2 -75 0 -75 -9 0 -9 21 -13 75 -13 73
0 75 -1 75 -25 0 -20 5 -25 25 -25 20 0 25 5 25 25 0 23 3 25 49 25 44 0 50
-3 53 -22 2 -15 11 -24 26 -26 18 -3 22 1 22 22 0 26 0 26 85 26 87 0 104 9
68 36 -24 18 -50 17 -57 -1 -4 -10 -20 -15 -51 -15 -38 0 -45 3 -45 19 0 11 5
23 10 26 18 11 0 25 -31 25 -27 0 -29 -3 -29 -35 l0 -35 -50 0 c-43 0 -50 3
-50 19 0 11 5 23 10 26 18 11 0 25 -31 25 -27 0 -29 -3 -29 -36z"/>
<path d="M2378 7333 l-3 -78 -108 0 c-79 0 -107 -3 -107 -12 0 -10 28 -13 105
-13 119 0 117 2 91 -84 -27 -89 -99 -176 -192 -232 -40 -25 -3 -24 46 0 106
53 155 108 194 216 l22 61 13 -43 c30 -100 109 -206 181 -243 25 -13 28 -12
48 14 l20 28 -44 22 c-89 43 -171 141 -199 239 -6 22 -6 22 115 22 105 0 121
2 118 16 -2 8 -16 23 -32 32 -27 16 -29 16 -43 -5 -14 -21 -24 -23 -94 -23
l-79 0 0 60 c0 33 4 60 10 60 16 0 11 27 -6 34 -47 18 -53 10 -56 -71z"/>
<path d="M2830 7405 c0 -3 11 -28 24 -55 l24 -50 -34 0 c-25 0 -34 4 -35 18 0
12 -3 9 -10 -8 -6 -14 -22 -37 -36 -52 -30 -31 -25 -61 9 -56 16 2 26 14 34
38 l12 35 182 3 183 2 -6 -30 c-8 -35 1 -37 36 -10 14 11 30 20 36 20 18 0 13
26 -10 46 -16 15 -24 16 -39 6 -11 -7 -37 -12 -57 -12 l-38 1 45 40 c43 39 44
41 25 55 -30 22 -38 17 -69 -41 l-28 -55 -88 0 -87 0 5 25 c2 14 -1 32 -9 41
-13 16 -69 48 -69 39z"/>
<path d="M3538 7333 l-3 -78 -108 0 c-79 0 -107 -3 -107 -12 0 -10 28 -13 105
-13 119 0 117 2 91 -84 -27 -89 -99 -176 -192 -232 -40 -25 -3 -24 46 0 106
53 155 108 194 216 l22 61 13 -43 c30 -100 109 -206 181 -243 25 -13 28 -12
48 14 l20 28 -44 22 c-89 43 -171 141 -199 239 -6 22 -6 22 115 22 105 0 121
2 118 16 -2 8 -16 23 -32 32 -27 16 -29 16 -43 -5 -14 -21 -24 -23 -94 -23
l-79 0 0 60 c0 33 4 60 10 60 16 0 11 27 -6 34 -47 18 -53 10 -56 -71z"/>
<path d="M3990 7405 c0 -3 11 -28 24 -55 l24 -50 -34 0 c-25 0 -34 4 -35 18 0
12 -3 9 -10 -8 -6 -14 -22 -37 -36 -52 -30 -31 -25 -61 9 -56 16 2 26 14 34
38 l12 35 182 3 183 2 -6 -30 c-8 -35 1 -37 36 -10 14 11 30 20 36 20 18 0 13
26 -10 46 -16 15 -24 16 -39 6 -11 -7 -37 -12 -57 -12 l-38 1 45 40 c43 39 44
41 25 55 -30 22 -38 17 -69 -41 l-28 -55 -88 0 -87 0 5 25 c2 14 -1 32 -9 41
-13 16 -69 48 -69 39z"/>
<path d="M4498 7158 c1 -139 4 -259 7 -265 2 -7 11 -10 20 -7 12 5 15 23 15
85 0 84 8 96 39 57 l18 -22 27 27 c41 41 30 124 -23 171 l-21 19 32 56 c17 31
38 64 46 74 14 16 14 20 -6 39 -17 18 -24 19 -36 9 -15 -13 -57 -11 -101 3
-20 7 -20 3 -17 -246z m102 195 c-1 -10 -9 -43 -20 -73 -18 -53 -18 -56 0 -85
17 -28 25 -67 22 -107 -2 -13 -11 -18 -32 -18 l-30 0 0 150 0 150 30 0 c22 0
30 -5 30 -17z"/>
<path d="M6530 7405 c0 -3 11 -28 24 -55 l24 -50 -34 0 c-25 0 -34 4 -35 18 0
12 -3 9 -10 -8 -6 -14 -22 -37 -36 -52 -30 -31 -25 -61 9 -56 16 2 26 14 34
38 l12 35 182 3 183 2 -6 -30 c-8 -35 1 -37 36 -10 14 11 30 20 36 20 18 0 13
26 -10 46 -16 15 -24 16 -39 6 -11 -7 -37 -12 -57 -12 l-38 1 45 40 c43 39 44
41 25 55 -30 22 -38 17 -69 -41 l-28 -55 -88 0 -87 0 5 25 c2 14 -1 32 -9 41
-13 16 -69 48 -69 39z"/>
<path d="M7480 7394 c-11 -12 -35 -15 -127 -13 -62 1 -114 -3 -115 -7 -2 -5 9
-10 25 -12 l27 -3 0 -85 0 -84 -35 0 c-19 0 -35 -4 -35 -10 0 -5 16 -10 36
-10 l37 0 -7 -62 c-9 -77 -38 -147 -77 -184 -29 -27 -37 -44 -21 -44 18 0 94
74 112 110 11 21 25 70 31 109 l12 71 38 0 39 0 0 -138 c0 -76 3 -142 6 -145
4 -3 16 -2 26 4 19 10 20 20 17 142 l-4 132 48 3 c51 3 57 10 29 35 -23 21
-36 21 -52 2 -24 -29 -30 -14 -30 70 l0 85 45 0 c49 0 55 8 27 33 -23 21 -36
21 -52 1z m-60 -119 l0 -85 -40 0 -40 0 0 85 0 85 40 0 40 0 0 -85z"/>
<path d="M8575 7248 l0 -162 -100 -20 c-110 -21 -109 -21 -101 -34 3 -5 40 -1
88 9 127 28 120 32 112 -56 -8 -85 3 -113 38 -94 18 10 20 19 16 97 l-3 87 48
8 c26 5 47 13 47 17 0 4 -12 15 -26 25 -22 14 -28 15 -35 4 -5 -8 -9 -17 -9
-21 0 -5 -7 -8 -15 -8 -13 0 -15 22 -15 134 0 79 4 137 10 141 23 14 9 35 -22
35 l-33 0 0 -162z"/>
<path d="M11105 7248 l0 -162 -100 -20 c-110 -21 -109 -21 -101 -34 3 -5 40
-1 88 9 127 28 120 32 112 -56 -8 -85 3 -113 38 -94 18 10 20 19 16 97 l-3 87
48 8 c26 5 47 13 47 17 0 4 -12 15 -26 25 -22 14 -28 15 -35 4 -5 -8 -9 -17
-9 -21 0 -5 -7 -8 -15 -8 -13 0 -15 22 -15 134 0 79 4 137 10 141 23 14 9 35
-22 35 l-33 0 0 -162z"/>
<path d="M11380 7405 c0 -3 11 -28 24 -55 l24 -50 -34 0 c-25 0 -34 4 -35 18
0 12 -3 9 -10 -8 -6 -14 -22 -37 -36 -52 -30 -31 -25 -61 9 -56 16 2 26 14 34
38 l12 35 182 3 183 2 -6 -30 c-8 -35 1 -37 36 -10 14 11 30 20 36 20 18 0 13
26 -10 46 -16 15 -24 16 -39 6 -11 -7 -37 -12 -57 -12 l-38 1 45 40 c43 39 44
41 25 55 -30 22 -38 17 -69 -41 l-28 -55 -88 0 -87 0 5 25 c2 14 -1 32 -9 41
-13 16 -69 48 -69 39z"/>
<path d="M15965 7248 l0 -162 -100 -20 c-110 -21 -109 -21 -101 -34 3 -5 40
-1 88 9 127 28 120 32 112 -56 -8 -85 3 -113 38 -94 18 10 20 19 16 97 l-3 87
48 8 c26 5 47 13 47 17 0 4 -12 15 -26 25 -22 14 -28 15 -35 4 -5 -8 -9 -17
-9 -21 0 -5 -7 -8 -15 -8 -13 0 -15 22 -15 134 0 79 4 137 10 141 23 14 9 35
-22 35 l-33 0 0 -162z"/>
<path d="M16240 7405 c0 -3 11 -28 24 -55 l24 -50 -34 0 c-25 0 -34 4 -35 18
0 12 -3 9 -10 -8 -6 -14 -22 -37 -36 -52 -30 -31 -25 -61 9 -56 16 2 26 14 34
38 l12 35 182 3 183 2 -6 -30 c-8 -35 1 -37 36 -10 14 11 30 20 36 20 18 0 13
26 -10 46 -16 15 -24 16 -39 6 -11 -7 -37 -12 -57 -12 l-38 1 45 40 c43 39 44
41 25 55 -30 22 -38 17 -69 -41 l-28 -55 -88 0 -87 0 5 25 c2 14 -1 32 -9 41
-13 16 -69 48 -69 39z"/>
<path d="M5480 7255 c0 -137 1 -145 19 -145 11 0 23 9 26 20 5 15 15 20 41 20
34 0 34 0 34 -45 l0 -45 -66 0 c-46 0 -64 -4 -62 -12 3 -8 25 -11 66 -9 l62 2
0 -50 0 -51 -90 0 c-76 0 -90 -3 -90 -16 0 -11 5 -14 16 -10 9 3 99 6 202 6
l185 0 -23 25 c-27 29 -42 31 -60 10 -7 -9 -29 -15 -51 -15 l-39 0 0 50 0 50
70 0 c39 0 70 4 70 9 0 5 -12 16 -26 26 -23 15 -27 15 -43 1 -10 -9 -30 -16
-44 -16 -25 0 -27 3 -27 45 0 45 0 45 35 45 22 0 38 -6 41 -15 4 -8 15 -15 25
-15 18 0 19 9 19 113 0 72 4 117 12 125 8 8 8 15 -2 27 -14 17 -46 20 -55 5
-3 -6 -50 -10 -105 -10 -55 0 -102 4 -105 10 -3 6 -13 10 -21 10 -11 0 -14
-25 -14 -145z m120 65 c0 -39 -1 -40 -35 -40 -34 0 -35 1 -35 40 0 39 1 40 35
40 34 0 35 -1 35 -40z m130 0 l0 -40 -40 0 -40 0 0 40 0 40 40 0 40 0 0 -40z
m-130 -105 c0 -45 0 -45 -35 -45 -35 0 -35 0 -35 45 0 45 0 45 35 45 35 0 35
0 35 -45z m128 -2 l3 -43 -40 0 -41 0 0 46 0 45 38 -3 c36 -3 37 -4 40 -45z"/>
<path d="M7160 7385 c-9 -11 -32 -15 -81 -15 -73 0 -96 -17 -31 -22 l39 -3
-13 -63 c-7 -35 -27 -91 -44 -124 -30 -61 -32 -94 -3 -50 29 42 36 25 32 -85
-4 -103 -3 -108 16 -108 15 0 21 8 23 33 3 28 7 32 33 32 20 0 29 -5 29 -16 0
-10 7 -14 23 -12 21 3 22 6 19 111 -2 75 1 113 9 123 10 12 9 18 -5 32 -13 14
-20 14 -36 4 -26 -16 -73 -16 -67 1 3 6 11 38 18 70 l13 57 48 0 c52 0 58 8
30 33 -23 21 -36 21 -52 2z m0 -290 l0 -95 -30 0 -30 0 0 95 0 95 30 0 30 0 0
-95z"/>
<path d="M9935 7390 c-4 -6 -70 -10 -166 -10 -135 0 -159 -2 -159 -15 0 -13
23 -15 145 -15 80 0 145 -4 145 -8 0 -17 -77 -82 -98 -82 -19 0 -22 -5 -22
-46 l0 -45 -115 2 c-63 1 -116 -3 -117 -7 -2 -5 50 -10 115 -12 l117 -3 0 -99
0 -100 -51 0 c-31 0 -48 -4 -44 -10 3 -5 14 -10 24 -10 10 0 26 -9 36 -20 22
-24 48 -26 69 -4 13 12 16 39 16 130 l0 114 126 0 c134 0 143 5 91 44 l-27 20
-23 -22 c-19 -18 -35 -22 -95 -22 -71 0 -72 0 -72 26 0 30 18 48 108 114 l62
44 -22 23 c-24 25 -34 28 -43 13z"/>
<path d="M15375 7390 c-4 -6 -70 -10 -166 -10 -135 0 -159 -2 -159 -15 0 -13
23 -15 145 -15 80 0 145 -4 145 -8 0 -17 -77 -82 -98 -82 -19 0 -22 -5 -22
-46 l0 -45 -115 2 c-63 1 -116 -3 -117 -7 -2 -5 50 -10 115 -12 l117 -3 0 -99
0 -100 -51 0 c-31 0 -48 -4 -44 -10 3 -5 14 -10 24 -10 10 0 26 -9 36 -20 22
-24 48 -26 69 -4 13 12 16 39 16 130 l0 114 126 0 c134 0 143 5 91 44 l-27 20
-23 -22 c-19 -18 -35 -22 -95 -22 -71 0 -72 0 -72 26 0 30 18 48 108 114 l62
44 -22 23 c-24 25 -34 28 -43 13z"/>
<path d="M5405 7380 c-3 -5 -36 -10 -71 -10 -48 0 -65 -3 -61 -12 2 -8 16 -12
35 -10 l32 4 0 -66 0 -66 -31 0 c-20 0 -29 -4 -26 -12 2 -7 16 -12 31 -10 l27
3 -3 -77 c-3 -76 -3 -78 -33 -87 -40 -13 -39 -12 -25 -47 13 -30 30 -41 30
-17 0 6 28 27 63 45 100 52 147 102 64 67 -20 -8 -39 -15 -42 -15 -3 0 -5 29
-5 65 l0 65 42 0 42 0 -22 22 c-19 19 -25 21 -42 10 -19 -12 -20 -10 -20 53
l0 65 40 0 c43 0 52 13 21 30 -25 13 -38 13 -46 0z"/>
<path d="M6264 7365 c-5 -13 -35 -15 -186 -15 -139 0 -179 -3 -176 -12 3 -9
34 -14 96 -16 l92 -3 0 -174 0 -175 -116 0 c-77 0 -114 -4 -112 -11 4 -11 507
-14 517 -3 4 3 -7 17 -23 30 l-28 25 -22 -20 c-18 -17 -35 -21 -94 -21 l-72 0
0 175 0 175 89 0 c49 0 97 3 106 6 14 6 13 9 -6 30 -25 27 -57 31 -65 9z"/>
<path d="M12610 7355 c-9 -11 -33 -15 -91 -15 -64 0 -77 -3 -73 -14 4 -10 15
-13 40 -9 l34 6 0 -131 c0 -138 -2 -142 -50 -142 -25 0 -32 -13 -24 -45 6 -22
34 -37 34 -17 0 5 33 23 73 40 39 18 83 42 97 53 l25 21 -30 -6 c-16 -3 -40
-8 -52 -12 -23 -6 -23 -6 -23 115 l0 121 51 0 c54 0 61 11 22 37 -17 12 -22
11 -33 -2z"/>
<path d="M8440 7344 c0 -3 14 -22 30 -41 17 -18 30 -38 30 -43 0 -6 9 -10 20
-10 33 0 27 56 -7 73 -38 20 -73 30 -73 21z"/>
<path d="M10970 7344 c0 -3 14 -22 30 -41 17 -18 30 -38 30 -43 0 -6 9 -10 20
-10 33 0 27 56 -7 73 -38 20 -73 30 -73 21z"/>
<path d="M15830 7344 c0 -3 14 -22 30 -41 17 -18 30 -38 30 -43 0 -6 9 -10 20
-10 33 0 27 56 -7 73 -38 20 -73 30 -73 21z"/>
<path d="M10246 7284 c-38 -82 -63 -114 -92 -114 -19 0 -24 -5 -24 -26 0 -23
3 -25 23 -19 63 19 67 19 67 -10 0 -26 -2 -27 -35 -21 -33 7 -35 6 -35 -22 0
-15 -7 -52 -16 -81 -8 -29 -13 -56 -10 -59 10 -9 34 29 53 81 28 76 43 61 41
-40 -3 -82 -2 -88 17 -88 19 0 20 8 23 130 2 88 7 132 15 137 19 12 24 10 30
-12 3 -11 12 -20 21 -20 26 0 20 57 -9 85 -30 31 -50 34 -35 6 15 -29 13 -31
-25 -31 l-35 0 47 60 c25 33 50 60 55 60 17 0 7 17 -17 28 -14 7 -28 12 -30
12 -2 0 -15 -25 -29 -56z"/>
<path d="M18140 7309 c-36 -10 -80 -18 -97 -18 -36 -1 -41 -11 -17 -35 19 -20
14 -20 103 9 41 14 76 23 78 21 8 -8 -41 -120 -75 -170 -44 -63 -91 -106 -164
-147 l-53 -30 40 6 c55 9 129 51 179 102 l42 42 37 -26 c20 -14 51 -48 68 -75
17 -26 37 -48 44 -48 20 0 27 34 14 64 -13 28 -88 83 -126 92 -13 4 -23 8 -23
10 0 3 49 106 74 156 12 22 12 29 -1 47 -17 25 -35 25 -123 0z"/>
<path d="M17072 7300 c-13 -6 -72 -13 -132 -16 -110 -7 -129 -16 -97 -43 10
-8 30 -8 68 -2 30 6 82 13 117 16 l62 7 0 -74 c0 -40 -3 -89 -6 -109 l-6 -37
-102 -8 c-55 -5 -116 -8 -133 -8 -36 1 -39 -3 -20 -30 12 -16 20 -17 85 -7 39
6 107 11 151 11 82 0 98 8 78 40 -9 16 4 178 18 212 4 10 -1 24 -14 37 -23 23
-34 25 -69 11z"/>
<path d="M1222 7242 c-6 -21 -26 -59 -43 -85 -17 -27 -28 -51 -24 -55 3 -4 27
15 51 41 l45 47 90 0 90 0 -16 -31 c-9 -17 -14 -33 -11 -36 9 -10 96 61 93 76
-4 25 -35 37 -57 23 -29 -18 -170 -16 -170 2 0 8 8 17 18 21 16 6 16 7 -2 21
-33 24 -52 17 -64 -24z"/>
<path d="M9420 7235 c-11 -13 -45 -15 -232 -13 -169 2 -218 0 -218 -9 0 -10
59 -13 260 -13 143 0 260 4 260 8 0 12 -34 42 -47 42 -6 0 -16 -7 -23 -15z"/>
<path d="M14860 7235 c-11 -13 -45 -15 -232 -13 -169 2 -218 0 -218 -9 0 -10
59 -13 260 -13 143 0 260 4 260 8 0 12 -34 42 -47 42 -6 0 -16 -7 -23 -15z"/>
<path d="M1130 7225 c-8 -10 -31 -15 -67 -15 -34 0 -52 -4 -48 -10 7 -12 175
-14 175 -2 0 9 -33 42 -42 42 -3 0 -11 -7 -18 -15z"/>
<path d="M3085 7230 c-4 -6 -57 -10 -126 -10 -73 0 -119 -4 -119 -10 0 -6 46
-10 117 -10 l117 0 -30 -31 c-20 -21 -36 -29 -51 -26 -20 4 -23 0 -23 -25 l0
-30 -115 4 c-87 2 -115 0 -115 -9 0 -10 30 -13 115 -13 l115 0 0 -66 0 -67
-45 5 c-25 3 -45 2 -45 -3 0 -5 7 -9 15 -9 9 0 27 -11 41 -25 23 -23 28 -24
52 -13 26 13 27 17 30 96 l3 82 119 0 c128 0 144 7 94 44 -25 18 -26 18 -48
-3 -18 -17 -35 -21 -94 -21 -73 0 -81 4 -59 30 15 19 93 70 107 70 17 0 11 29
-9 40 -25 13 -38 13 -46 0z"/>
<path d="M4245 7230 c-4 -6 -57 -10 -126 -10 -73 0 -119 -4 -119 -10 0 -6 46
-10 117 -10 l117 0 -30 -31 c-20 -21 -36 -29 -51 -26 -20 4 -23 0 -23 -25 l0
-30 -115 4 c-87 2 -115 0 -115 -9 0 -10 30 -13 115 -13 l115 0 0 -66 0 -67
-45 5 c-25 3 -45 2 -45 -3 0 -5 7 -9 15 -9 9 0 27 -11 41 -25 23 -23 28 -24
52 -13 26 13 27 17 30 96 l3 82 119 0 c128 0 144 7 94 44 -25 18 -26 18 -48
-3 -18 -17 -35 -21 -94 -21 -73 0 -81 4 -59 30 15 19 93 70 107 70 17 0 11 29
-9 40 -25 13 -38 13 -46 0z"/>
<path d="M6785 7230 c-4 -6 -57 -10 -126 -10 -73 0 -119 -4 -119 -10 0 -6 46
-10 117 -10 l117 0 -30 -31 c-20 -21 -36 -29 -51 -26 -20 4 -23 0 -23 -25 l0
-30 -115 4 c-87 2 -115 0 -115 -9 0 -10 30 -13 115 -13 l115 0 0 -66 0 -67
-45 5 c-25 3 -45 2 -45 -3 0 -5 7 -9 15 -9 9 0 27 -11 41 -25 23 -23 28 -24
52 -13 26 13 27 17 30 96 l3 82 119 0 c128 0 144 7 94 44 -25 18 -26 18 -48
-3 -18 -17 -35 -21 -94 -21 -73 0 -81 4 -59 30 15 19 93 70 107 70 17 0 11 29
-9 40 -25 13 -38 13 -46 0z"/>
<path d="M11635 7230 c-4 -6 -57 -10 -126 -10 -73 0 -119 -4 -119 -10 0 -6 46
-10 117 -10 l117 0 -30 -31 c-20 -21 -36 -29 -51 -26 -20 4 -23 0 -23 -25 l0
-30 -115 4 c-87 2 -115 0 -115 -9 0 -10 30 -13 115 -13 l115 0 0 -66 0 -67
-45 5 c-25 3 -45 2 -45 -3 0 -5 7 -9 15 -9 9 0 27 -11 41 -25 23 -23 28 -24
52 -13 26 13 27 17 30 96 l3 82 119 0 c128 0 144 7 94 44 -25 18 -26 18 -48
-3 -18 -17 -35 -21 -94 -21 -73 0 -81 4 -59 30 15 19 93 70 107 70 17 0 11 29
-9 40 -25 13 -38 13 -46 0z"/>
<path d="M16495 7230 c-4 -6 -57 -10 -126 -10 -73 0 -119 -4 -119 -10 0 -6 46
-10 117 -10 l117 0 -30 -31 c-20 -21 -36 -29 -51 -26 -20 4 -23 0 -23 -25 l0
-30 -115 4 c-87 2 -115 0 -115 -9 0 -10 30 -13 115 -13 l115 0 0 -66 0 -67
-45 5 c-25 3 -45 2 -45 -3 0 -5 7 -9 15 -9 9 0 27 -11 41 -25 23 -23 28 -24
52 -13 26 13 27 17 30 96 l3 82 119 0 c128 0 144 7 94 44 -25 18 -26 18 -48
-3 -18 -17 -35 -21 -94 -21 -73 0 -81 4 -59 30 15 19 93 70 107 70 17 0 11 29
-9 40 -25 13 -38 13 -46 0z"/>
<path d="M8410 7212 c0 -6 7 -12 15 -16 9 -3 25 -21 36 -41 12 -19 27 -35 34
-35 38 0 28 63 -12 78 -50 19 -73 23 -73 14z"/>
<path d="M10940 7212 c0 -6 7 -12 15 -16 9 -3 25 -21 36 -41 12 -19 27 -35 34
-35 38 0 28 63 -12 78 -50 19 -73 23 -73 14z"/>
<path d="M15800 7212 c0 -6 7 -12 15 -16 9 -3 25 -21 36 -41 12 -19 27 -35 34
-35 38 0 28 63 -12 78 -50 19 -73 23 -73 14z"/>
<path d="M7785 7153 l0 -38 -72 -3 c-94 -4 -95 -22 -2 -22 68 0 70 -1 64 -22
-20 -64 -84 -127 -162 -160 -27 -11 -27 -12 -5 -16 13 -2 52 10 87 26 68 32
118 87 130 143 6 27 10 29 51 29 l44 0 0 -85 c0 -84 0 -86 28 -96 66 -26 194
7 165 43 -6 7 -13 27 -15 43 l-4 30 -16 -36 c-16 -37 -48 -52 -89 -42 -16 5
-19 15 -19 67 0 34 5 67 11 73 7 7 5 15 -6 27 -19 18 -41 21 -50 6 -3 -5 -24
-10 -46 -10 -35 0 -39 3 -39 24 0 14 5 28 10 31 18 11 0 25 -33 25 -30 0 -32
-2 -32 -37z"/>
<path d="M9050 7101 c0 -83 2 -91 19 -91 11 0 23 5 26 10 3 6 28 10 56 10 42
0 49 -3 49 -20 0 -19 -7 -20 -91 -20 -68 0 -90 -3 -87 -12 3 -9 33 -14 91 -16
80 -3 87 -4 87 -23 0 -20 -4 -21 -115 -18 -88 3 -115 1 -115 -8 0 -10 58 -13
260 -13 210 0 260 3 260 13 0 8 -11 20 -25 27 -21 11 -27 11 -43 -3 -14 -13
-38 -17 -95 -17 -70 0 -77 2 -77 20 0 19 7 20 94 20 99 0 126 11 90 37 -10 7
-25 10 -34 6 -8 -4 -45 -9 -82 -11 -63 -3 -68 -2 -68 17 0 18 6 21 49 21 28 0
53 -4 56 -10 3 -5 15 -10 26 -10 17 0 19 7 19 63 0 35 5 68 10 73 7 7 4 16
-10 29 -15 14 -23 15 -34 6 -17 -14 -269 -11 -298 3 -17 7 -18 0 -18 -83z
m150 29 c0 -17 -7 -20 -50 -20 -43 0 -50 3 -50 20 0 17 7 20 50 20 43 0 50 -3
50 -20z m158 -2 c3 -15 -5 -18 -52 -18 -50 0 -56 2 -56 21 0 18 5 20 52 17 41
-2 54 -7 56 -20z m-158 -58 c0 -17 -7 -20 -50 -20 -43 0 -50 3 -50 20 0 17 7
20 50 20 43 0 50 -3 50 -20z m158 -2 c3 -15 -5 -18 -52 -18 -50 0 -56 2 -56
21 0 18 5 20 52 17 41 -2 54 -7 56 -20z"/>
<path d="M14490 7101 c0 -83 2 -91 19 -91 11 0 23 5 26 10 3 6 28 10 56 10 42
0 49 -3 49 -20 0 -19 -7 -20 -91 -20 -68 0 -90 -3 -87 -12 3 -9 33 -14 91 -16
80 -3 87 -4 87 -23 0 -20 -4 -21 -115 -18 -88 3 -115 1 -115 -8 0 -10 58 -13
260 -13 210 0 260 3 260 13 0 8 -11 20 -25 27 -21 11 -27 11 -43 -3 -14 -13
-38 -17 -95 -17 -70 0 -77 2 -77 20 0 19 7 20 94 20 99 0 126 11 90 37 -10 7
-25 10 -34 6 -8 -4 -45 -9 -82 -11 -63 -3 -68 -2 -68 17 0 18 6 21 49 21 28 0
53 -4 56 -10 3 -5 15 -10 26 -10 17 0 19 7 19 63 0 35 5 68 10 73 7 7 4 16
-10 29 -15 14 -23 15 -34 6 -17 -14 -269 -11 -298 3 -17 7 -18 0 -18 -83z
m150 29 c0 -17 -7 -20 -50 -20 -43 0 -50 3 -50 20 0 17 7 20 50 20 43 0 50 -3
50 -20z m158 -2 c3 -15 -5 -18 -52 -18 -50 0 -56 2 -56 21 0 18 5 20 52 17 41
-2 54 -7 56 -20z m-158 -58 c0 -17 -7 -20 -50 -20 -43 0 -50 3 -50 20 0 17 7
20 50 20 43 0 50 -3 50 -20z m158 -2 c3 -15 -5 -18 -52 -18 -50 0 -56 2 -56
21 0 18 5 20 52 17 41 -2 54 -7 56 -20z"/>
<path d="M4936 7164 c-5 -13 -26 -15 -141 -12 -103 2 -135 0 -135 -9 0 -8 14
-13 35 -13 32 0 35 -2 35 -30 0 -67 -59 -155 -121 -181 -37 -15 -38 -33 -1
-24 43 10 109 52 130 83 24 34 42 87 42 123 0 25 4 29 30 29 l29 0 3 -112 3
-113 74 -3 c41 -2 78 1 82 5 11 11 -1 113 -12 113 -5 0 -9 -8 -9 -18 0 -35
-30 -63 -63 -60 l-32 3 -3 93 -3 92 61 0 c46 0 60 3 60 15 0 14 -29 35 -48 35
-6 0 -13 -7 -16 -16z"/>
<path d="M17685 7169 c-33 -4 -122 -9 -197 -11 -122 -3 -138 -5 -138 -20 0
-29 30 -36 105 -26 39 4 130 10 204 11 140 2 163 10 119 41 -12 9 -25 15 -28
15 -3 -1 -32 -5 -65 -10z"/>
<path d="M1270 7135 c0 -94 -56 -177 -146 -216 -54 -24 -58 -41 -6 -27 88 24
161 81 183 142 l12 34 22 -46 c24 -52 91 -118 130 -128 19 -5 30 -1 44 17 l18
23 -55 23 c-31 12 -71 38 -90 56 -39 40 -66 105 -50 125 14 16 9 20 -30 28
-31 6 -32 6 -32 -31z"/>
<path d="M10274 7084 c3 -9 9 -34 12 -55 5 -29 11 -39 23 -37 24 5 25 50 1 81
-23 30 -46 36 -36 11z"/>
<path d="M12200 7074 l0 -26 -165 3 c-127 3 -165 1 -165 -8 0 -10 40 -13 165
-13 l165 0 0 -44 0 -45 -42 -3 c-42 -4 -43 -4 -16 -15 14 -7 31 -20 37 -30 9
-17 12 -17 38 -3 25 14 28 21 31 78 l3 62 69 0 c77 0 91 14 46 43 -22 15 -26
15 -49 -3 -32 -25 -72 -27 -63 -3 7 18 -9 33 -36 33 -13 0 -18 -8 -18 -26z"/>
<path d="M1165 7073 c-22 -7 -68 -21 -101 -29 -55 -14 -61 -18 -56 -37 3 -12
10 -28 15 -35 9 -12 13 -11 22 1 5 8 35 26 65 41 59 28 108 62 100 69 -3 2
-23 -2 -45 -10z"/>
<path d="M12002 7003 c9 -10 23 -32 32 -50 19 -37 46 -35 46 3 0 17 -10 31
-32 44 -43 26 -68 27 -46 3z"/>
<path d="M13981 6966 c-7 -8 -41 -27 -76 -42 -36 -16 -65 -31 -65 -35 0 -9 92
7 155 28 30 10 55 21 55 25 0 8 -41 38 -51 38 -4 0 -12 -6 -18 -14z"/>
<path d="M14144 6958 c119 -81 140 -90 148 -65 13 35 -31 63 -113 72 -46 5
-51 4 -35 -7z"/>
<path d="M5989 6711 c0 -3 0 -30 1 -58 l1 -53 -60 0 c-33 0 -63 5 -66 10 -15
24 -35 9 -35 -27 0 -34 -1 -35 -18 -20 -21 19 -42 22 -42 7 0 -5 -4 -10 -10
-10 -14 0 -12 104 2 118 16 16 -7 33 -37 30 -18 -3 -20 -9 -17 -75 l4 -73 -37
0 c-46 0 -43 -24 4 -28 l32 -3 -3 -82 -3 -81 -32 -8 c-36 -9 -41 -24 -18 -54
9 -12 17 -15 22 -9 16 21 143 94 143 82 0 -29 -22 -86 -50 -131 -17 -27 -28
-51 -25 -54 3 -3 21 9 39 28 38 36 71 103 81 165 12 79 15 85 35 85 17 0 20
-7 20 -54 0 -70 -7 -86 -37 -86 l-25 0 23 -25 c51 -53 72 -28 88 102 9 68 8
80 -6 91 -11 8 -20 9 -27 2 -5 -5 -20 -10 -33 -10 -21 0 -23 5 -23 45 l0 45
54 0 53 0 7 -71 c4 -38 14 -91 21 -116 14 -45 13 -47 -15 -83 -16 -20 -50 -54
-75 -75 -25 -20 -44 -39 -41 -42 7 -8 69 27 117 68 l47 38 28 -40 c27 -40 77
-75 93 -65 11 7 11 126 0 126 -5 0 -9 -6 -9 -12 0 -7 -4 -19 -9 -27 -8 -13
-12 -13 -26 -1 -9 7 -23 26 -30 41 -13 25 -12 33 16 96 17 37 36 71 41 74 11
7 -10 26 -36 31 -15 2 -21 -7 -31 -45 -22 -86 -34 -79 -42 27 l-6 76 72 0 c39
0 71 4 71 9 0 5 -11 18 -25 29 -14 11 -25 27 -25 36 0 8 -13 22 -29 30 -34 18
-111 37 -112 27z m115 -83 c19 -22 11 -28 -36 -28 -38 0 -38 0 -38 39 0 46 18
58 42 27 9 -11 24 -28 32 -38z m-281 -219 c-5 -5 -23 -12 -41 -15 l-32 -6 0
70 0 71 38 3 37 3 3 -59 c2 -32 -1 -63 -5 -67z"/>
<path d="M7020 6711 c0 -6 4 -13 10 -16 5 -3 14 -24 20 -45 11 -42 32 -52 48
-23 13 23 -3 56 -38 76 -32 19 -40 21 -40 8z"/>
<path d="M8390 6711 c0 -6 4 -13 10 -16 5 -3 14 -24 20 -45 11 -42 32 -52 48
-23 13 23 -3 56 -38 76 -32 19 -40 21 -40 8z"/>
<path d="M8889 6713 c-1 -5 0 -23 1 -40 l2 -33 -67 0 c-42 0 -64 -4 -60 -10 8
-13 305 -13 305 0 0 5 -11 17 -25 26 -24 15 -27 15 -44 0 -25 -22 -71 -21 -71
2 0 10 5 23 12 30 6 6 10 13 7 15 -10 9 -59 17 -60 10z"/>
<path d="M10330 6711 c0 -6 4 -13 10 -16 5 -3 14 -24 20 -45 11 -42 32 -52 48
-23 13 23 -3 56 -38 76 -32 19 -40 21 -40 8z"/>
<path d="M10840 6695 c-25 -13 -66 -29 -92 -35 -62 -15 -64 -35 -3 -26 l45 7
0 -47 0 -47 -51 7 c-40 5 -50 4 -47 -6 3 -7 23 -14 46 -16 24 -2 42 -8 42 -15
0 -17 -56 -133 -81 -169 -12 -16 -18 -32 -15 -35 9 -9 44 26 78 79 17 26 33
48 34 48 2 0 1 -56 -3 -124 -6 -126 -2 -143 31 -130 13 5 16 30 18 147 l3 142
28 -44 c26 -39 30 -42 44 -28 22 22 8 50 -37 76 -57 32 -53 51 10 51 56 0 69
22 25 42 -20 9 -28 8 -43 -5 -28 -26 -32 -21 -32 33 l0 50 45 12 c47 13 52 23
19 44 -16 11 -26 9 -64 -11z"/>
<path d="M11580 6685 c0 -39 1 -39 -34 -25 -14 5 -26 7 -26 4 0 -3 -9 -51 -20
-106 -12 -55 -19 -103 -16 -105 3 -3 17 20 33 51 18 37 33 56 45 56 16 0 18
-9 18 -69 l0 -70 -45 -7 c-47 -7 -54 -18 -34 -56 l11 -20 19 21 c39 42 48 29
51 -76 3 -90 5 -98 23 -98 19 0 20 8 23 111 l3 111 34 19 c33 17 50 42 23 31
-60 -22 -58 -23 -58 42 l0 61 35 0 c41 0 42 -2 14 -46 -11 -19 -16 -34 -11
-34 12 0 82 79 82 92 0 4 9 8 21 8 16 0 19 -4 14 -22 -17 -56 -45 -108 -89
-161 -52 -64 -49 -71 12 -28 48 35 98 105 119 166 11 33 20 45 35 45 18 0 19
-4 13 -37 -17 -90 -58 -167 -127 -237 -37 -39 -66 -72 -64 -74 3 -2 25 8 49
23 92 54 164 157 188 273 6 28 15 52 21 52 14 0 3 -205 -15 -276 l-12 -49 -54
-5 -54 -5 36 -17 c21 -10 37 -22 37 -28 0 -15 32 -12 57 5 27 19 49 113 58
255 4 58 11 110 16 116 6 7 1 18 -12 30 -16 15 -24 16 -39 6 -18 -11 -190 -18
-190 -7 0 11 25 62 39 78 13 16 13 19 1 27 -8 6 -24 10 -35 10 -17 0 -24 -12
-39 -70 -10 -38 -20 -70 -22 -70 -2 0 -13 6 -24 12 -16 10 -24 10 -40 0 -19
-12 -20 -10 -20 42 0 33 5 56 12 58 21 7 -3 28 -33 28 -27 0 -29 -3 -29 -35z
m0 -75 c0 -20 -5 -30 -15 -30 -18 0 -19 14 -5 41 15 27 20 24 20 -11z"/>
<path d="M12860 6711 c0 -6 4 -13 10 -16 5 -3 14 -24 20 -45 11 -42 32 -52 48
-23 13 23 -3 56 -38 76 -32 19 -40 21 -40 8z"/>
<path d="M13305 6673 c-14 -37 -43 -81 -98 -150 -6 -9 -6 -13 2 -13 16 0 89
68 122 113 l27 37 31 -37 c17 -21 31 -41 31 -45 0 -5 9 -8 20 -8 15 0 20 7 20
25 0 18 -11 33 -40 53 -21 15 -39 32 -40 39 0 6 -13 16 -29 21 -28 10 -30 9
-46 -35z"/>
<path d="M14156 6713 c-3 -3 -6 -28 -6 -55 l0 -48 -97 0 c-123 0 -114 -18 12
-22 l90 -3 6 -75 c4 -41 12 -94 18 -118 12 -41 11 -44 -23 -85 -19 -23 -55
-55 -80 -72 -47 -31 -57 -45 -32 -45 18 0 133 77 146 98 10 16 12 15 23 -2 32
-51 81 -97 101 -94 17 3 20 11 20 65 1 68 -4 77 -23 37 -14 -32 -30 -27 -53
18 l-18 35 37 79 c21 43 39 82 41 85 1 4 -10 11 -26 17 l-29 10 -17 -61 c-10
-33 -21 -56 -25 -51 -5 5 -12 44 -16 87 l-7 77 71 0 c75 0 87 9 47 35 -13 9
-26 25 -29 36 -7 26 -114 69 -131 52z m84 -53 c7 -16 16 -30 21 -30 5 0 9 -4
9 -10 0 -5 -16 -10 -35 -10 -33 0 -35 2 -35 33 0 55 21 64 40 17z"/>
<path d="M5220 6674 l0 -36 -75 4 c-56 2 -75 0 -75 -9 0 -9 21 -13 75 -13 73
0 75 -1 75 -25 0 -20 5 -25 25 -25 20 0 25 5 25 25 0 23 3 25 49 25 44 0 50
-3 53 -22 2 -15 11 -24 26 -26 18 -3 22 1 22 22 0 26 0 26 85 26 87 0 104 9
68 36 -24 18 -50 17 -57 -1 -4 -10 -20 -15 -51 -15 -38 0 -45 3 -45 19 0 11 5
23 10 26 18 11 0 25 -31 25 -27 0 -29 -3 -29 -35 l0 -35 -50 0 c-43 0 -50 3
-50 19 0 11 5 23 10 26 18 11 0 25 -31 25 -27 0 -29 -3 -29 -36z"/>
<path d="M6448 6633 l-3 -78 -108 0 c-79 0 -107 -3 -107 -12 0 -10 28 -13 105
-13 119 0 117 2 91 -84 -27 -89 -99 -176 -192 -232 -40 -25 -3 -24 46 0 106
53 155 108 194 216 l22 61 13 -43 c30 -100 109 -206 181 -243 25 -13 28 -12
48 14 l20 28 -44 22 c-89 43 -171 141 -199 239 -6 22 -6 22 115 22 105 0 121
2 118 16 -2 8 -16 23 -32 32 -27 16 -29 16 -43 -5 -14 -21 -24 -23 -94 -23
l-79 0 0 60 c0 33 4 60 10 60 16 0 11 27 -6 34 -47 18 -53 10 -56 -71z"/>
<path d="M6900 6705 c0 -3 11 -28 24 -55 l24 -50 -34 0 c-25 0 -34 4 -35 18 0
12 -3 9 -10 -8 -6 -14 -22 -37 -36 -52 -30 -31 -25 -61 9 -56 16 2 26 14 34
38 l12 35 182 3 183 2 -6 -30 c-8 -35 1 -37 36 -10 14 11 30 20 36 20 18 0 13
26 -10 46 -16 15 -24 16 -39 6 -11 -7 -37 -12 -57 -12 l-38 1 45 40 c43 39 44
41 25 55 -30 22 -38 17 -69 -41 l-28 -55 -88 0 -87 0 5 25 c2 14 -1 32 -9 41
-13 16 -69 48 -69 39z"/>
<path d="M8270 6705 c0 -3 11 -28 24 -55 l24 -50 -34 0 c-25 0 -34 4 -35 18 0
12 -3 9 -10 -8 -6 -14 -22 -37 -36 -52 -30 -31 -25 -61 9 -56 16 2 26 14 34
38 l12 35 182 3 183 2 -6 -30 c-8 -35 1 -37 36 -10 14 11 30 20 36 20 18 0 13
26 -10 46 -16 15 -24 16 -39 6 -11 -7 -37 -12 -57 -12 l-38 1 45 40 c43 39 44
41 25 55 -30 22 -38 17 -69 -41 l-28 -55 -88 0 -87 0 5 25 c2 14 -1 32 -9 41
-13 16 -69 48 -69 39z"/>
<path d="M9229 6694 c-13 -16 -57 -15 -121 1 l-28 7 7 -111 c6 -116 2 -128
-32 -91 l-18 20 -22 -20 c-19 -18 -55 -28 -55 -15 0 11 53 85 61 85 21 0 6 19
-21 29 -26 9 -32 8 -36 -7 -3 -9 -13 -37 -23 -62 l-17 -45 -87 0 c-64 0 -87
-3 -87 -12 0 -10 39 -13 170 -13 l169 0 -2 -132 c-2 -131 -2 -133 21 -136 l22
-3 0 235 0 236 40 0 c48 0 49 -6 14 -94 l-26 -65 31 -39 c57 -71 51 -150 -11
-138 -15 3 -30 1 -33 -4 -3 -6 1 -10 10 -10 8 0 23 -9 32 -20 22 -25 34 -25
64 -2 46 38 19 154 -46 196 l-25 16 36 58 c20 31 44 68 53 82 20 28 17 46 -9
60 -13 7 -21 5 -31 -6z"/>
<path d="M10210 6705 c0 -3 11 -28 24 -55 l24 -50 -34 0 c-25 0 -34 4 -35 18
0 12 -3 9 -10 -8 -6 -14 -22 -37 -36 -52 -30 -31 -25 -61 9 -56 16 2 26 14 34
38 l12 35 182 3 183 2 -6 -30 c-8 -35 1 -37 36 -10 14 11 30 20 36 20 18 0 13
26 -10 46 -16 15 -24 16 -39 6 -11 -7 -37 -12 -57 -12 l-38 1 45 40 c43 39 44
41 25 55 -30 22 -38 17 -69 -41 l-28 -55 -88 0 -87 0 5 25 c2 14 -1 32 -9 41
-13 16 -69 48 -69 39z"/>
<path d="M11095 6548 l0 -162 -100 -20 c-110 -21 -109 -21 -101 -34 3 -5 40
-1 88 9 127 28 120 32 112 -56 -8 -85 3 -113 38 -94 18 10 20 19 16 97 l-3 87
48 8 c26 5 47 13 47 17 0 4 -12 15 -26 25 -22 14 -28 15 -35 4 -5 -8 -9 -17
-9 -21 0 -5 -7 -8 -15 -8 -13 0 -15 22 -15 134 0 79 4 137 10 141 23 14 9 35
-22 35 l-33 0 0 -162z"/>
<path d="M12740 6705 c0 -3 11 -28 24 -55 l24 -50 -34 0 c-25 0 -34 4 -35 18
0 12 -3 9 -10 -8 -6 -14 -22 -37 -36 -52 -30 -31 -25 -61 9 -56 16 2 26 14 34
38 l12 35 182 3 183 2 -6 -30 c-8 -35 1 -37 36 -10 14 11 30 20 36 20 18 0 13
26 -10 46 -16 15 -24 16 -39 6 -11 -7 -37 -12 -57 -12 l-38 1 45 40 c43 39 44
41 25 55 -30 22 -38 17 -69 -41 l-28 -55 -88 0 -87 0 5 25 c2 14 -1 32 -9 41
-13 16 -69 48 -69 39z"/>
<path d="M13690 6694 c-11 -12 -34 -15 -127 -12 -85 2 -113 0 -113 -9 0 -9 19
-13 60 -13 56 0 60 -2 60 -22 0 -41 -15 -54 -45 -40 -14 7 -30 12 -35 12 -6 0
-10 -65 -10 -160 l0 -160 25 0 c14 0 25 5 25 10 0 6 30 10 69 10 39 0 73 -4
76 -10 3 -5 15 -10 26 -10 18 0 19 8 19 133 0 77 4 137 10 143 7 7 4 16 -10
29 -17 15 -24 16 -43 6 -13 -7 -38 -11 -55 -9 l-31 3 20 33 c20 31 24 32 85
32 66 0 80 11 47 36 -24 18 -38 17 -53 -2z m-20 -154 l0 -30 -70 0 -70 0 0 30
0 30 70 0 70 0 0 -30z m0 -80 l0 -30 -70 0 -70 0 0 30 0 30 70 0 70 0 0 -30z
m0 -95 l0 -35 -70 0 -70 0 0 35 0 35 70 0 70 0 0 -35z"/>
<path d="M13867 6631 l6 -81 -39 0 c-41 0 -37 -16 6 -22 24 -3 25 -5 28 -96 2
-68 -1 -94 -10 -97 -74 -26 -70 -22 -52 -57 14 -26 18 -29 28 -17 6 8 34 29
62 47 28 18 60 42 70 54 19 21 19 21 -1 16 -11 -3 -28 -9 -37 -13 -16 -6 -18
1 -18 79 l0 86 40 0 40 0 0 -90 c0 -83 1 -90 20 -90 13 0 20 7 20 20 0 16 7
20 30 20 17 0 30 -4 30 -10 0 -5 9 -10 20 -10 18 0 20 7 20 63 0 35 5 68 10
73 7 7 4 16 -10 29 -16 14 -22 15 -35 5 -9 -8 -29 -10 -52 -6 -21 3 -44 7 -50
8 -7 1 -20 10 -30 20 -15 17 -17 17 -35 2 -17 -16 -18 -15 -18 42 0 33 5 65
12 72 15 15 9 20 -29 28 l-31 6 5 -81z m223 -171 c0 -49 -1 -50 -30 -50 -29 0
-30 1 -30 50 0 49 1 50 30 50 29 0 30 -1 30 -50z"/>
<path d="M7800 6555 c0 -137 1 -145 19 -145 11 0 23 9 26 20 5 15 15 20 41 20
34 0 34 0 34 -45 l0 -45 -66 0 c-46 0 -64 -4 -62 -12 3 -8 25 -11 66 -9 l62 2
0 -50 0 -51 -90 0 c-76 0 -90 -3 -90 -16 0 -11 5 -14 16 -10 9 3 99 6 202 6
l185 0 -23 25 c-27 29 -42 31 -60 10 -7 -9 -29 -15 -51 -15 l-39 0 0 50 0 50
70 0 c39 0 70 4 70 9 0 5 -12 16 -26 26 -23 15 -27 15 -43 1 -10 -9 -30 -16
-44 -16 -25 0 -27 3 -27 45 0 45 0 45 35 45 22 0 38 -6 41 -15 4 -8 15 -15 25
-15 18 0 19 9 19 113 0 72 4 117 12 125 8 8 8 15 -2 27 -14 17 -46 20 -55 5
-3 -6 -50 -10 -105 -10 -55 0 -102 4 -105 10 -3 6 -13 10 -21 10 -11 0 -14
-25 -14 -145z m120 65 c0 -39 -1 -40 -35 -40 -34 0 -35 1 -35 40 0 39 1 40 35
40 34 0 35 -1 35 -40z m130 0 l0 -40 -40 0 -40 0 0 40 0 40 40 0 40 0 0 -40z
m-130 -105 c0 -45 0 -45 -35 -45 -35 0 -35 0 -35 45 0 45 0 45 35 45 35 0 35
0 35 -45z m128 -2 l3 -43 -40 0 -41 0 0 46 0 45 38 -3 c36 -3 37 -4 40 -45z"/>
<path d="M9740 6555 c0 -137 1 -145 19 -145 11 0 23 9 26 20 5 15 15 20 41 20
34 0 34 0 34 -45 l0 -45 -66 0 c-46 0 -64 -4 -62 -12 3 -8 25 -11 66 -9 l62 2
0 -50 0 -51 -90 0 c-76 0 -90 -3 -90 -16 0 -11 5 -14 16 -10 9 3 99 6 202 6
l185 0 -23 25 c-27 29 -42 31 -60 10 -7 -9 -29 -15 -51 -15 l-39 0 0 50 0 50
70 0 c39 0 70 4 70 9 0 5 -12 16 -26 26 -23 15 -27 15 -43 1 -10 -9 -30 -16
-44 -16 -25 0 -27 3 -27 45 0 45 0 45 35 45 22 0 38 -6 41 -15 4 -8 15 -15 25
-15 18 0 19 9 19 113 0 72 4 117 12 125 8 8 8 15 -2 27 -14 17 -46 20 -55 5
-3 -6 -50 -10 -105 -10 -55 0 -102 4 -105 10 -3 6 -13 10 -21 10 -11 0 -14
-25 -14 -145z m120 65 c0 -39 -1 -40 -35 -40 -34 0 -35 1 -35 40 0 39 1 40 35
40 34 0 35 -1 35 -40z m130 0 l0 -40 -40 0 -40 0 0 40 0 40 40 0 40 0 0 -40z
m-130 -105 c0 -45 0 -45 -35 -45 -35 0 -35 0 -35 45 0 45 0 45 35 45 35 0 35
0 35 -45z m128 -2 l3 -43 -40 0 -41 0 0 46 0 45 38 -3 c36 -3 37 -4 40 -45z"/>
<path d="M12270 6555 c0 -137 1 -145 19 -145 11 0 23 9 26 20 5 15 15 20 41
20 34 0 34 0 34 -45 l0 -45 -66 0 c-46 0 -64 -4 -62 -12 3 -8 25 -11 66 -9
l62 2 0 -50 0 -51 -90 0 c-76 0 -90 -3 -90 -16 0 -11 5 -14 16 -10 9 3 99 6
202 6 l185 0 -23 25 c-27 29 -42 31 -60 10 -7 -9 -29 -15 -51 -15 l-39 0 0 50
0 50 70 0 c39 0 70 4 70 9 0 5 -12 16 -26 26 -23 15 -27 15 -43 1 -10 -9 -30
-16 -44 -16 -25 0 -27 3 -27 45 0 45 0 45 35 45 22 0 38 -6 41 -15 4 -8 15
-15 25 -15 18 0 19 9 19 113 0 72 4 117 12 125 8 8 8 15 -2 27 -14 17 -46 20
-55 5 -3 -6 -50 -10 -105 -10 -55 0 -102 4 -105 10 -3 6 -13 10 -21 10 -11 0
-14 -25 -14 -145z m120 65 c0 -39 -1 -40 -35 -40 -34 0 -35 1 -35 40 0 39 1
40 35 40 34 0 35 -1 35 -40z m130 0 l0 -40 -40 0 -40 0 0 40 0 40 40 0 40 0 0
-40z m-130 -105 c0 -45 0 -45 -35 -45 -35 0 -35 0 -35 45 0 45 0 45 35 45 35
0 35 0 35 -45z m128 -2 l3 -43 -40 0 -41 0 0 46 0 45 38 -3 c36 -3 37 -4 40
-45z"/>
<path d="M7725 6680 c-3 -5 -36 -10 -71 -10 -48 0 -65 -3 -61 -12 2 -8 16 -12
35 -10 l32 4 0 -66 0 -66 -31 0 c-20 0 -29 -4 -26 -12 2 -7 16 -12 31 -10 l27
3 -3 -77 c-3 -76 -3 -78 -33 -87 -40 -13 -39 -12 -25 -47 13 -30 30 -41 30
-17 0 6 28 27 63 45 100 52 147 102 64 67 -20 -8 -39 -15 -42 -15 -3 0 -5 29
-5 65 l0 65 42 0 42 0 -22 22 c-19 19 -25 21 -42 10 -19 -12 -20 -10 -20 53
l0 65 40 0 c43 0 52 13 21 30 -25 13 -38 13 -46 0z"/>
<path d="M9665 6680 c-3 -5 -36 -10 -71 -10 -48 0 -65 -3 -61 -12 2 -8 16 -12
35 -10 l32 4 0 -66 0 -66 -31 0 c-20 0 -29 -4 -26 -12 2 -7 16 -12 31 -10 l27
3 -3 -77 c-3 -76 -3 -78 -33 -87 -40 -13 -39 -12 -25 -47 13 -30 30 -41 30
-17 0 6 28 27 63 45 100 52 147 102 64 67 -20 -8 -39 -15 -42 -15 -3 0 -5 29
-5 65 l0 65 42 0 42 0 -22 22 c-19 19 -25 21 -42 10 -19 -12 -20 -10 -20 53
l0 65 40 0 c43 0 52 13 21 30 -25 13 -38 13 -46 0z"/>
<path d="M12195 6680 c-3 -5 -36 -10 -71 -10 -48 0 -65 -3 -61 -12 2 -8 16
-12 35 -10 l32 4 0 -66 0 -66 -31 0 c-20 0 -29 -4 -26 -12 2 -7 16 -12 31 -10
l27 3 -3 -77 c-3 -76 -3 -78 -33 -87 -40 -13 -39 -12 -25 -47 13 -30 30 -41
30 -17 0 6 28 27 63 45 100 52 147 102 64 67 -20 -8 -39 -15 -42 -15 -3 0 -5
29 -5 65 l0 65 42 0 42 0 -22 22 c-19 19 -25 21 -42 10 -19 -12 -20 -10 -20
53 l0 65 40 0 c43 0 52 13 21 30 -25 13 -38 13 -46 0z"/>
<path d="M10960 6644 c0 -3 14 -22 30 -41 17 -18 30 -38 30 -43 0 -6 9 -10 20
-10 33 0 27 56 -7 73 -38 20 -73 30 -73 21z"/>
<path d="M8828 6553 c18 -56 32 -69 49 -47 14 19 8 41 -20 72 -35 38 -46 28
-29 -25z"/>
<path d="M5292 6542 c-6 -21 -26 -59 -43 -85 -17 -27 -28 -51 -24 -55 3 -4 27
15 51 41 l45 47 90 0 90 0 -16 -31 c-9 -17 -14 -33 -11 -36 9 -10 96 61 93 76
-4 25 -35 37 -57 23 -29 -18 -170 -16 -170 2 0 8 8 17 18 21 16 6 16 7 -2 21
-33 24 -52 17 -64 -24z"/>
<path d="M13375 6560 c-3 -5 -29 -10 -56 -10 -36 0 -49 -4 -47 -12 5 -14 128
-24 156 -13 13 5 12 8 -3 25 -20 22 -40 26 -50 10z"/>
<path d="M5200 6525 c-8 -10 -31 -15 -67 -15 -34 0 -52 -4 -48 -10 7 -12 175
-14 175 -2 0 9 -33 42 -42 42 -3 0 -11 -7 -18 -15z"/>
<path d="M7155 6530 c-4 -6 -57 -10 -126 -10 -73 0 -119 -4 -119 -10 0 -6 46
-10 117 -10 l117 0 -30 -31 c-20 -21 -36 -29 -51 -26 -20 4 -23 0 -23 -25 l0
-30 -115 4 c-87 2 -115 0 -115 -9 0 -10 30 -13 115 -13 l115 0 0 -66 0 -67
-45 5 c-25 3 -45 2 -45 -3 0 -5 7 -9 15 -9 9 0 27 -11 41 -25 23 -23 28 -24
52 -13 26 13 27 17 30 96 l3 82 119 0 c128 0 144 7 94 44 -25 18 -26 18 -48
-3 -18 -17 -35 -21 -94 -21 -73 0 -81 4 -59 30 15 19 93 70 107 70 17 0 11 29
-9 40 -25 13 -38 13 -46 0z"/>
<path d="M8525 6530 c-4 -6 -57 -10 -126 -10 -73 0 -119 -4 -119 -10 0 -6 46
-10 117 -10 l117 0 -30 -31 c-20 -21 -36 -29 -51 -26 -20 4 -23 0 -23 -25 l0
-30 -115 4 c-87 2 -115 0 -115 -9 0 -10 30 -13 115 -13 l115 0 0 -66 0 -67
-45 5 c-25 3 -45 2 -45 -3 0 -5 7 -9 15 -9 9 0 27 -11 41 -25 23 -23 28 -24
52 -13 26 13 27 17 30 96 l3 82 119 0 c128 0 144 7 94 44 -25 18 -26 18 -48
-3 -18 -17 -35 -21 -94 -21 -73 0 -81 4 -59 30 15 19 93 70 107 70 17 0 11 29
-9 40 -25 13 -38 13 -46 0z"/>
<path d="M10465 6530 c-4 -6 -57 -10 -126 -10 -73 0 -119 -4 -119 -10 0 -6 46
-10 117 -10 l117 0 -30 -31 c-20 -21 -36 -29 -51 -26 -20 4 -23 0 -23 -25 l0
-30 -115 4 c-87 2 -115 0 -115 -9 0 -10 30 -13 115 -13 l115 0 0 -66 0 -67
-45 5 c-25 3 -45 2 -45 -3 0 -5 7 -9 15 -9 9 0 27 -11 41 -25 23 -23 28 -24
52 -13 26 13 27 17 30 96 l3 82 119 0 c128 0 144 7 94 44 -25 18 -26 18 -48
-3 -18 -17 -35 -21 -94 -21 -73 0 -81 4 -59 30 15 19 93 70 107 70 17 0 11 29
-9 40 -25 13 -38 13 -46 0z"/>
<path d="M12995 6530 c-4 -6 -57 -10 -126 -10 -73 0 -119 -4 -119 -10 0 -6 46
-10 117 -10 l117 0 -30 -31 c-20 -21 -36 -29 -51 -26 -20 4 -23 0 -23 -25 l0
-30 -115 4 c-87 2 -115 0 -115 -9 0 -10 30 -13 115 -13 l115 0 0 -66 0 -67
-45 5 c-25 3 -45 2 -45 -3 0 -5 7 -9 15 -9 9 0 27 -11 41 -25 23 -23 28 -24
52 -13 26 13 27 17 30 96 l3 82 119 0 c128 0 144 7 94 44 -25 18 -26 18 -48
-3 -18 -17 -35 -21 -94 -21 -73 0 -81 4 -59 30 15 19 93 70 107 70 17 0 11 29
-9 40 -25 13 -38 13 -46 0z"/>
<path d="M10930 6512 c0 -6 7 -12 15 -16 9 -3 25 -21 36 -41 12 -19 27 -35 34
-35 38 0 28 63 -12 78 -50 19 -73 23 -73 14z"/>
<path d="M13405 6480 c-3 -5 -46 -10 -95 -10 -74 0 -88 -2 -84 -15 4 -10 15
-12 35 -8 l28 5 3 -128 c3 -121 4 -129 23 -129 19 0 20 8 23 128 l3 128 27 -3
c26 -3 27 -6 30 -65 3 -62 2 -63 -23 -63 -14 0 -25 -4 -25 -10 0 -5 5 -10 11
-10 7 0 18 -8 25 -17 10 -14 17 -16 31 -7 14 9 19 29 24 100 5 83 -1 114 -22
114 -4 0 -11 -4 -14 -10z"/>
<path d="M5340 6435 c0 -94 -56 -177 -146 -216 -54 -24 -58 -41 -6 -27 88 24
161 81 183 142 l12 34 22 -46 c24 -52 91 -118 130 -128 19 -5 30 -1 44 17 l18
23 -55 23 c-31 12 -71 38 -90 56 -39 40 -66 105 -50 125 14 16 9 20 -30 28
-31 6 -32 6 -32 -31z"/>
<path d="M8797 6321 c1 -61 4 -115 7 -120 10 -16 36 -1 36 20 0 17 8 19 66 19
58 0 67 -2 71 -20 3 -13 12 -20 22 -18 13 3 17 19 19 88 2 47 7 89 12 94 15
15 12 24 -11 36 -15 8 -24 8 -34 0 -15 -12 -132 -9 -170 4 -19 7 -20 3 -18
-103z m181 2 l3 -63 -71 0 -70 0 0 65 0 66 68 -3 67 -3 3 -62z"/>
<path d="M5235 6373 c-22 -7 -68 -21 -101 -29 -55 -14 -61 -18 -56 -37 3 -12
10 -28 15 -35 9 -12 13 -11 22 1 5 8 35 26 65 41 59 28 108 62 100 69 -3 2
-23 -2 -45 -10z"/>
<path d="M14099 6335 c-20 -7 -62 -18 -93 -25 -52 -10 -56 -14 -50 -33 9 -30
23 -44 32 -32 4 6 42 27 85 48 42 21 77 42 77 48 0 11 -6 11 -51 -6z"/>
<path d="M13514 6269 c-10 -12 -39 -33 -64 -48 -40 -23 -42 -26 -21 -29 18 -3
139 46 161 65 7 6 -31 33 -45 33 -7 0 -20 -9 -31 -21z"/>
<path d="M13673 6237 c54 -53 77 -59 77 -22 0 30 -33 54 -86 62 l-39 6 48 -46z"/>
<path d="M5737 5380 c-3 -87 -8 -164 -12 -169 -8 -14 -285 -14 -411 0 -53 6
-98 9 -99 7 -2 -2 4 -30 13 -62 l16 -58 35 6 c20 3 123 9 229 12 219 8 204 16
172 -89 -65 -211 -199 -398 -392 -549 -137 -107 -134 -104 -119 -122 20 -24
32 -21 145 32 316 150 515 370 594 657 l19 70 187 3 186 2 0 -32 c-1 -61 -29
-233 -50 -300 -24 -77 -63 -118 -113 -118 -18 0 -89 5 -159 12 -70 6 -130 9
-133 6 -16 -16 15 -40 85 -63 122 -41 153 -67 177 -150 7 -26 14 -30 46 -33
57 -5 143 24 186 63 79 71 125 201 156 435 10 76 20 117 30 122 38 22 75 62
75 82 0 36 -149 166 -191 166 -10 0 -43 -25 -74 -55 l-55 -55 -165 0 -165 0 1
38 c0 20 4 58 7 84 6 44 10 49 52 70 38 20 45 27 45 53 0 45 -32 55 -281 89
l-31 4 -6 -158z"/>
<path d="M2605 5507 c-2 -7 -9 -50 -15 -97 -56 -410 -312 -999 -597 -1373 -45
-58 -52 -89 -21 -95 22 -4 190 157 296 283 l75 90 -8 -775 c-4 -426 -7 -795
-7 -820 2 -64 33 -90 108 -90 69 0 109 20 123 61 8 22 11 281 11 863 l0 831
38 20 c29 16 38 27 40 51 3 34 -12 45 -96 63 -24 5 -46 12 -49 14 -2 3 13 36
35 74 91 157 174 334 256 551 l51 134 49 16 c27 10 56 27 63 39 14 20 13 24
-12 47 -45 42 -332 137 -340 113z"/>
<path d="M15809 5325 l3 -185 -425 0 -425 0 -12 84 c-8 58 -17 86 -27 90 -24
10 -30 0 -42 -70 -26 -148 -68 -213 -194 -299 -46 -31 -91 -69 -100 -85 -36
-60 -9 -156 53 -187 39 -20 102 -15 151 10 82 44 139 147 160 293 l11 74 1015
0 1015 0 -7 -27 c-3 -16 -22 -64 -41 -108 -48 -108 -49 -114 -29 -121 24 -10
70 15 167 89 105 80 110 83 182 91 77 9 96 20 96 57 0 25 -15 45 -77 106 -162
158 -184 164 -268 68 l-57 -65 -454 0 -454 0 0 98 0 99 41 18 c66 30 78 75 27
101 -34 18 -218 53 -278 54 l-35 0 4 -185z"/>
<path d="M12668 5285 l5 -195 -410 0 -410 0 -11 67 c-11 63 -28 91 -45 74 -4
-4 -15 -39 -22 -76 -27 -126 -86 -205 -208 -276 -75 -45 -96 -70 -104 -127 -8
-60 20 -110 75 -135 41 -17 51 -18 100 -7 61 14 117 61 152 130 26 50 60 180
60 227 l0 33 263 0 264 0 -9 -57 c-14 -98 -57 -234 -96 -307 -44 -82 -142
-191 -226 -251 -83 -59 -226 -127 -377 -180 -112 -38 -124 -45 -124 -66 0 -22
3 -24 49 -21 80 4 290 51 399 89 257 88 421 221 517 418 45 91 86 225 96 314
l7 61 185 0 185 0 -6 -243 c-8 -338 4 -386 107 -439 70 -36 174 -47 436 -47
135 -1 288 4 340 9 183 19 280 71 280 149 0 42 -16 61 -71 84 -44 18 -48 35
-41 158 4 84 4 89 -15 89 -16 0 -26 -17 -52 -89 -64 -179 -93 -197 -327 -212
-100 -6 -195 -6 -254 -1 -186 18 -184 15 -188 314 l-4 228 301 0 c166 0 301
-2 301 -4 0 -14 -57 -160 -82 -209 -49 -98 -19 -102 108 -16 49 33 107 78 129
99 46 45 81 60 135 60 76 0 108 25 96 74 -6 25 -198 198 -241 218 -31 14 -57
-2 -121 -77 l-48 -55 -428 0 -428 0 0 105 0 104 33 17 c45 23 77 54 77 75 0
30 -53 49 -193 69 -73 11 -139 20 -148 20 -14 0 -15 -21 -11 -195z"/>
<path d="M10800 5380 l-75 -80 -565 0 c-311 0 -594 5 -630 10 -35 5 -65 8 -67
7 -1 -2 5 -31 14 -65 12 -50 19 -62 32 -57 8 3 75 9 148 12 l133 6 0 -289 c0
-159 -3 -373 -7 -476 l-6 -188 -136 1 c-75 0 -161 4 -191 8 -30 5 -58 7 -61 5
-4 -2 1 -30 11 -61 11 -39 22 -57 31 -54 8 1 89 5 181 8 l167 6 -5 -74 c-3
-41 -9 -132 -15 -204 -42 -539 -175 -858 -483 -1153 -47 -45 -86 -89 -86 -96
0 -46 78 -11 228 102 233 174 410 432 492 715 48 167 90 463 90 640 l0 67 231
0 232 0 -5 -745 -5 -745 22 -20 c17 -16 35 -20 83 -20 33 0 73 5 87 12 56 25
54 3 48 791 l-6 727 236 0 c129 0 242 3 251 6 9 4 16 18 16 34 0 28 -56 87
-162 173 -68 55 -87 50 -168 -45 l-65 -77 -52 -1 -53 0 0 475 0 475 209 0
c115 0 216 3 225 6 30 11 17 49 -31 95 -85 82 -174 149 -196 149 -15 0 -47
-27 -97 -80z m-340 -645 l0 -475 -225 0 -225 0 0 475 0 475 225 0 225 0 0
-475z"/>
<path d="M6754 5364 c3 -26 6 -226 6 -445 0 -393 0 -399 21 -420 18 -18 30
-21 85 -17 79 5 104 25 111 92 l6 46 298 0 299 0 0 -45 c0 -62 26 -79 116 -73
109 7 106 -4 98 346 l-7 293 42 35 c57 49 55 75 -11 137 -28 26 -71 60 -94 73
-50 30 -58 27 -124 -40 l-44 -46 -286 0 c-160 0 -290 4 -295 9 -10 9 -212 101
-223 101 -2 0 -2 -21 2 -46z m826 -404 l0 -250 -300 0 -300 0 0 250 0 250 300
0 300 0 0 -250z"/>
<path d="M9119 5343 c-25 -27 -54 -60 -66 -75 l-21 -28 -333 0 c-184 1 -354 5
-379 10 -25 4 -47 7 -49 5 -2 -2 3 -30 11 -62 10 -41 19 -57 29 -54 8 2 94 6
192 9 l178 5 -7 -54 c-59 -482 -202 -906 -416 -1235 -69 -107 -76 -130 -40
-142 16 -5 172 153 242 245 30 40 55 71 56 70 1 -1 -3 -276 -8 -611 -10 -711
-20 -650 99 -644 59 3 77 8 95 26 22 21 23 32 26 182 l3 160 170 0 169 0 0
-64 c0 -93 17 -111 105 -111 61 0 69 3 91 28 l24 28 0 597 0 597 35 28 c59 47
50 70 -58 166 -74 66 -94 66 -160 1 l-50 -50 -161 0 c-89 0 -167 4 -174 8 -10
7 -5 29 22 98 64 165 133 436 161 627 l7 47 238 0 c131 0 245 3 254 6 30 12
18 55 -27 98 -69 66 -167 136 -192 136 -14 0 -39 -18 -66 -47z m-49 -1588 l0
-525 -170 0 -170 0 0 525 0 525 170 0 170 0 0 -525z"/>
<path d="M4315 5300 l-59 -60 -541 0 c-480 0 -677 7 -739 26 -20 7 -20 7 5
-90 10 -36 12 -38 42 -31 18 3 128 9 245 12 l212 5 0 -312 0 -312 -357 5
c-197 3 -375 9 -397 12 -34 7 -38 5 -33 -11 3 -11 10 -37 16 -59 l10 -40 382
3 382 4 -7 -254 c-4 -139 -10 -280 -14 -313 l-7 -60 -235 -3 c-129 -1 -273 2
-319 8 -47 5 -87 8 -89 5 -3 -3 0 -30 7 -61 l13 -56 36 6 c21 4 157 9 305 12
196 5 267 3 267 -5 0 -6 -9 -55 -21 -108 -81 -375 -262 -624 -618 -853 -77
-50 -100 -70 -98 -85 4 -35 58 -21 209 53 321 157 518 333 632 567 50 102 90
221 115 345 l17 85 302 3 302 2 0 -63 c0 -90 18 -107 111 -107 65 0 73 2 101
30 l30 30 -7 410 -8 410 205 0 c224 0 246 5 235 52 -4 14 -45 62 -92 106 -105
102 -124 105 -183 35 -21 -27 -47 -60 -57 -75 -14 -24 -24 -28 -61 -28 l-44 0
1 278 0 277 42 30 c44 32 55 61 38 94 -16 30 -169 141 -194 141 -14 0 -45 -23
-82 -60z m-35 -450 l0 -310 -280 0 -280 0 0 310 0 310 280 0 280 0 0 -310z m0
-715 l0 -315 -296 0 -296 0 6 43 c10 72 26 356 26 475 l0 112 280 0 280 0 0
-315z"/>
<path d="M16630 4795 l-85 -85 -662 0 c-389 0 -714 4 -788 11 -70 6 -129 9
-131 6 -3 -3 1 -29 9 -58 13 -51 15 -54 43 -51 16 1 147 5 292 8 l263 6 -7
-28 c-33 -138 -137 -426 -169 -471 -17 -23 -200 -29 -400 -14 -81 6 -149 10
-151 8 -5 -4 54 -257 67 -289 26 -64 70 -60 99 8 11 24 25 44 32 44 37 0 548
55 784 85 225 29 401 56 779 121 32 6 25 14 133 -159 52 -82 107 -106 172 -72
64 33 82 143 39 231 -30 59 -138 161 -228 214 -86 51 -213 107 -341 149 -116
38 -143 42 -148 19 -2 -11 25 -36 89 -79 86 -59 249 -202 249 -219 0 -4 -39
-10 -87 -14 -213 -16 -575 -36 -768 -43 l-210 -6 25 30 c14 17 54 66 89 109
60 73 157 217 223 328 l28 46 559 0 c499 0 560 2 565 16 9 25 -9 49 -87 112
-104 85 -158 122 -176 122 -9 0 -54 -38 -101 -85z"/>
<path d="M5647 4298 c10 -186 10 -697 0 -961 l-8 -207 25 -25 c21 -21 34 -25
83 -25 71 0 103 15 123 57 l15 33 683 0 c669 0 682 0 682 -19 0 -32 38 -51
103 -51 58 0 111 19 120 42 3 7 3 238 -1 514 l-5 501 41 38 c26 23 42 46 42
60 0 41 -155 168 -206 168 -18 0 -42 -16 -78 -52 l-52 -51 -653 0 -654 0 -52
30 c-53 30 -190 90 -207 90 -4 0 -5 -62 -1 -142z m1593 -193 l0 -125 -680 0
-680 0 0 125 0 125 680 0 680 0 0 -125z m0 -335 l0 -130 -680 0 -680 0 0 130
0 130 680 0 680 0 0 -130z m0 -360 l0 -150 -680 0 -680 0 0 150 0 150 680 0
680 0 0 -150z"/>
<path d="M12449 4120 c2 -89 0 -191 -4 -226 l-7 -64 -336 0 c-185 0 -364 4
-396 10 -33 5 -61 8 -63 6 -4 -4 23 -115 29 -121 2 -2 21 0 43 5 22 5 192 13
377 16 l337 7 -15 -64 c-94 -415 -379 -722 -873 -937 -114 -50 -133 -64 -124
-89 7 -19 38 -16 146 12 225 58 435 147 595 251 102 66 262 222 317 309 86
135 154 303 185 456 l11 56 252 5 c139 3 254 3 257 -1 3 -3 2 -190 -3 -416
-10 -456 -9 -472 48 -530 62 -62 111 -70 415 -70 341 0 462 20 535 90 29 27
35 39 35 74 0 37 -4 44 -42 72 -24 17 -47 37 -51 45 -5 9 -3 87 3 176 10 133
10 162 -1 169 -20 12 -24 4 -58 -102 -43 -134 -88 -239 -113 -267 -39 -41
-116 -56 -298 -56 -188 0 -234 11 -246 60 -4 15 -4 177 -1 358 6 295 8 332 23
341 44 26 74 59 74 79 0 39 -166 186 -209 186 -14 0 -47 -23 -85 -60 l-63 -60
-231 0 -231 0 5 53 c2 28 6 86 10 127 l5 76 47 24 c39 21 48 30 50 57 2 24 -2
35 -20 47 -24 16 -147 40 -263 51 l-70 7 4 -162z"/>
<path d="M15803 3844 c4 -22 9 -113 13 -202 l7 -164 -439 6 c-241 3 -458 8
-481 11 l-42 7 18 -59 17 -58 40 3 c21 1 229 5 462 8 l422 6 0 -276 0 -276
-562 1 c-310 0 -587 4 -616 8 -29 4 -54 6 -56 4 -2 -2 3 -31 12 -64 13 -55 17
-60 36 -53 12 5 622 10 1356 11 734 2 1345 5 1358 8 35 8 27 43 -21 90 -55 52
-206 170 -231 179 -27 9 -53 -11 -131 -103 l-68 -81 -424 0 -423 0 0 275 0
275 507 2 c485 3 508 4 511 21 5 25 -32 63 -142 148 -127 100 -124 100 -222
-4 l-82 -87 -286 0 -286 0 0 110 0 110 38 19 c49 25 64 44 60 73 -4 29 -68 52
-188 67 -47 6 -103 14 -124 17 l-39 6 6 -38z"/>
<path d="M6039 3083 c-120 -125 -384 -267 -665 -359 -158 -51 -175 -59 -172
-78 3 -20 9 -21 85 -19 245 5 584 91 808 205 72 37 87 41 145 39 125 -4 131
42 16 126 -36 27 -92 65 -125 85 l-59 37 -33 -36z"/>
<path d="M6782 3050 c3 -20 17 -28 103 -55 228 -71 376 -149 632 -330 95 -67
158 -71 214 -15 24 24 29 37 29 77 0 190 -317 323 -808 340 l-174 6 4 -23z"/>
<path d="M6970 1586 c0 -8 12 -21 27 -28 15 -7 30 -24 34 -38 4 -14 7 -165 8
-336 1 -280 3 -313 17 -318 10 -4 25 1 35 10 15 13 24 15 46 6 81 -31 192 -21
249 23 91 70 111 280 38 396 -24 39 -83 69 -135 69 -39 0 -86 -20 -126 -54
l-33 -28 0 156 0 156 -80 0 c-63 0 -80 -3 -80 -14z m350 -314 c53 -54 65 -214
21 -300 -35 -68 -117 -84 -173 -33 l-33 29 -3 127 -4 126 40 39 c34 34 46 40
82 40 32 0 48 -6 70 -28z"/>
<path d="M9000 1580 c0 -13 7 -20 20 -20 10 0 24 -9 30 -19 6 -12 10 -131 10
-315 l0 -296 -25 -16 c-14 -9 -25 -23 -25 -30 0 -11 21 -14 100 -14 79 0 100
3 100 14 0 7 -11 21 -25 30 -24 16 -25 21 -25 111 0 90 1 95 21 95 26 0 58
-34 124 -129 45 -67 48 -74 32 -86 -37 -27 -19 -35 83 -35 110 0 127 11 70 47
-16 10 -68 68 -114 128 l-85 110 66 67 c37 37 86 77 110 90 72 38 58 48 -72
48 -93 0 -115 -3 -115 -14 0 -8 9 -18 20 -21 43 -14 16 -74 -58 -131 -83 -63
-82 -66 -82 186 l0 220 -80 0 c-73 0 -80 -2 -80 -20z"/>
<path d="M3370 1571 c-90 -19 -153 -73 -199 -171 -24 -51 -26 -65 -26 -190 1
-117 4 -143 23 -192 52 -131 188 -188 329 -139 50 17 53 17 70 0 12 -12 26
-16 41 -13 21 6 22 11 22 121 0 112 8 149 36 166 8 4 14 15 14 22 0 12 -20 15
-105 15 -70 0 -105 -4 -105 -11 0 -6 14 -24 30 -39 27 -25 30 -34 30 -90 0
-66 -19 -116 -47 -124 -56 -15 -84 -16 -116 -3 -83 35 -122 145 -115 322 5
121 25 185 76 238 72 76 199 46 235 -55 4 -12 17 -18 37 -18 l31 0 -3 72 -3
72 -34 7 c-60 12 -184 18 -221 10z"/>
<path d="M1510 1559 c0 -6 14 -24 30 -39 l30 -28 0 -264 c0 -144 -3 -273 -6
-284 -3 -12 -17 -27 -30 -33 -13 -6 -24 -17 -24 -26 0 -12 18 -15 110 -15 92
0 110 3 110 15 0 9 -11 20 -24 24 -13 5 -26 17 -30 26 -3 9 -6 137 -6 285 0
148 3 276 6 285 4 9 17 21 30 26 13 4 24 15 24 24 0 12 -18 15 -110 15 -73 0
-110 -4 -110 -11z"/>
<path d="M6670 1559 c0 -6 14 -24 30 -39 l30 -28 0 -264 c0 -144 -3 -273 -6
-284 -3 -12 -17 -27 -30 -33 -13 -6 -24 -17 -24 -26 0 -12 18 -15 110 -15 92
0 110 3 110 15 0 9 -11 20 -24 24 -13 5 -26 17 -30 26 -3 9 -6 137 -6 285 0
148 3 276 6 285 4 9 17 21 30 26 13 4 24 15 24 24 0 12 -18 15 -110 15 -73 0
-110 -4 -110 -11z"/>
<path d="M10110 1555 c0 -9 11 -20 25 -25 13 -5 27 -20 30 -32 2 -13 6 -129 7
-258 3 -230 4 -236 28 -280 39 -69 93 -95 200 -95 110 0 172 28 210 96 24 43
25 50 30 292 l5 249 28 22 c48 38 36 46 -73 46 -79 0 -100 -3 -100 -14 0 -7
11 -21 25 -30 l25 -16 0 -246 c0 -269 -5 -295 -58 -330 -39 -26 -123 -24 -159
2 -55 41 -58 57 -58 322 l0 244 28 22 c49 39 37 46 -83 46 -92 0 -110 -3 -110
-15z"/>
<path d="M15500 1559 c0 -6 14 -24 30 -39 l30 -28 0 -331 c0 -370 -2 -385 -63
-421 -26 -16 -34 -26 -30 -41 8 -29 17 -31 65 -10 53 23 103 77 117 128 7 23
11 166 11 358 0 176 4 325 8 331 4 6 17 16 30 23 12 6 22 18 22 26 0 12 -20
15 -110 15 -73 0 -110 -4 -110 -11z"/>
<path d="M9620 1510 l0 -50 50 0 50 0 0 50 0 50 -50 0 -50 0 0 -50z"/>
<path d="M11420 1510 l0 -50 50 0 50 0 0 50 0 50 -50 0 -50 0 0 -50z"/>
<path d="M13620 1510 l0 -50 50 0 50 0 0 50 0 50 -50 0 -50 0 0 -50z"/>
<path d="M13916 1478 c-3 -7 -7 -31 -10 -52 -5 -40 -39 -86 -63 -86 -7 0 -13
-9 -13 -20 0 -16 7 -20 35 -20 l35 0 0 -157 c0 -87 5 -175 10 -195 26 -92 149
-114 235 -43 27 23 28 26 14 41 -15 15 -19 15 -42 -1 -35 -23 -76 -16 -100 17
-18 24 -21 47 -25 182 l-5 155 84 3 c83 3 84 3 87 30 l3 27 -83 3 -83 3 -3 63
-3 62 -35 0 c-19 0 -36 -6 -38 -12z"/>
<path d="M1957 1356 c-74 -27 -107 -78 -107 -163 0 -49 27 -109 57 -126 11 -7
7 -17 -22 -48 -41 -45 -45 -83 -15 -122 l21 -26 -24 -16 c-52 -33 -62 -106
-21 -154 40 -47 158 -70 265 -51 112 20 169 74 169 158 0 102 -47 132 -205
132 -116 0 -145 9 -145 44 0 37 24 50 91 47 98 -4 161 26 196 93 16 30 14 131
-2 170 -7 16 -4 18 36 15 42 -4 44 -2 47 24 l3 27 -73 0 c-40 0 -109 2 -153 5
-56 4 -91 1 -118 -9z m128 -42 c39 -15 61 -123 36 -186 -22 -57 -103 -67 -145
-17 -42 50 -35 159 13 196 17 13 69 17 96 7z m68 -465 c30 -16 37 -28 37 -66
0 -62 -80 -102 -182 -90 -90 11 -126 78 -77 141 19 25 25 26 110 26 50 0 100
-5 112 -11z"/>
<path d="M2497 1359 c-21 -5 -60 -18 -88 -30 -45 -20 -49 -24 -49 -55 0 -33 1
-34 38 -34 32 0 41 5 50 25 6 14 27 33 46 42 73 34 136 -18 136 -113 l0 -42
-77 -11 c-140 -21 -213 -73 -213 -155 0 -124 136 -165 258 -76 l42 30 0 -35 0
-35 70 0 c78 0 88 10 43 46 l-28 22 -5 179 c-3 121 -9 185 -18 201 -26 46
-112 63 -205 41z m131 -315 c-6 -73 -36 -105 -106 -112 -41 -4 -53 -1 -71 17
-60 60 23 149 143 151 l38 0 -4 -56z"/>
<path d="M3808 1363 c-34 -3 -48 -8 -48 -19 0 -7 5 -14 10 -14 6 0 19 -9 30
-20 18 -18 20 -33 20 -195 0 -175 0 -176 -25 -199 -43 -40 -34 -46 80 -46 113
0 131 10 76 42 -26 14 -30 23 -36 84 -11 96 -1 216 20 248 39 59 93 65 128 15
11 -14 23 -20 43 -17 28 3 29 4 29 63 l0 60 -34 3 c-61 6 -101 -8 -147 -50
l-44 -41 0 47 c0 51 10 48 -102 39z"/>
<path d="M4356 1360 c-115 -35 -178 -179 -146 -333 22 -107 91 -161 205 -161
164 -1 245 100 233 288 -7 101 -40 158 -111 192 -54 25 -125 30 -181 14z m133
-66 c44 -37 65 -116 57 -211 -3 -41 -13 -87 -21 -102 -34 -67 -107 -91 -158
-51 -63 49 -84 228 -39 321 35 73 104 91 161 43z"/>
<path d="M5353 1363 c-60 -5 -68 -19 -24 -45 20 -11 32 -27 36 -50 3 -18 5
-149 3 -291 l-3 -259 -27 -22 c-49 -39 -37 -46 77 -46 87 0 105 3 105 15 0 9
-11 20 -24 26 -30 14 -36 34 -36 122 l0 68 38 -8 c59 -13 146 -7 187 13 55 26
91 82 106 165 16 90 2 194 -34 248 -58 87 -172 94 -264 17 l-33 -28 0 41 c0
46 12 42 -107 34z m290 -83 c35 -28 51 -80 51 -170 1 -94 -23 -164 -64 -185
-62 -32 -140 -9 -159 46 -6 18 -11 81 -11 142 l0 109 39 39 c32 32 46 39 78
39 25 0 50 -8 66 -20z"/>
<path d="M7717 1359 c-21 -5 -60 -18 -88 -30 -45 -20 -49 -24 -49 -55 0 -33 1
-34 38 -34 32 0 41 5 50 25 6 14 27 33 46 42 73 34 136 -18 136 -113 l0 -42
-77 -11 c-140 -21 -213 -73 -213 -155 0 -124 136 -165 258 -76 l42 30 0 -35 0
-35 70 0 c78 0 88 10 43 46 l-28 22 -5 179 c-3 121 -9 185 -18 201 -26 46
-112 63 -205 41z m131 -315 c-6 -73 -36 -105 -106 -112 -41 -4 -53 -1 -71 17
-60 60 23 149 143 151 l38 0 -4 -56z"/>
<path d="M8118 1363 c-34 -3 -48 -8 -48 -19 0 -7 5 -14 10 -14 6 0 19 -9 30
-20 18 -18 20 -33 20 -195 0 -175 0 -176 -25 -199 -43 -40 -34 -46 80 -46 113
0 131 10 76 42 -26 14 -30 23 -36 84 -11 96 -1 216 20 248 39 59 93 65 128 15
11 -14 23 -20 43 -17 28 3 29 4 29 63 l0 60 -34 3 c-61 6 -101 -8 -147 -50
l-44 -41 0 47 c0 51 10 48 -102 39z"/>
<path d="M8657 1359 c-21 -5 -60 -18 -88 -30 -45 -20 -49 -24 -49 -55 0 -33 1
-34 38 -34 32 0 41 5 50 25 6 14 27 33 46 42 73 34 136 -18 136 -113 l0 -42
-77 -11 c-140 -21 -213 -73 -213 -155 0 -124 136 -165 258 -76 l42 30 0 -35 0
-35 70 0 c78 0 88 10 43 46 l-28 22 -5 179 c-3 121 -9 185 -18 201 -26 46
-112 63 -205 41z m131 -315 c-6 -73 -36 -105 -106 -112 -41 -4 -53 -1 -71 17
-60 60 23 149 143 151 l38 0 -4 -56z"/>
<path d="M9608 1363 c-34 -3 -48 -8 -48 -19 0 -7 5 -14 10 -14 6 0 19 -9 30
-20 18 -18 20 -33 20 -195 0 -175 0 -176 -25 -199 -43 -40 -33 -46 75 -46 109
0 121 8 73 46 l-28 22 -3 216 -4 216 -26 -2 c-15 -1 -48 -3 -74 -5z"/>
<path d="M10828 1363 c-34 -3 -48 -8 -48 -19 0 -7 5 -14 10 -14 6 0 19 -9 30
-20 18 -18 20 -33 20 -195 0 -175 0 -176 -25 -199 -43 -40 -33 -46 75 -46 109
0 121 8 73 46 -26 20 -27 25 -31 140 -5 143 7 188 57 221 44 30 85 29 115 0
21 -21 25 -38 31 -122 11 -145 3 -215 -29 -240 -47 -38 -34 -45 79 -45 87 0
105 3 105 15 0 8 -4 15 -10 15 -5 0 -19 9 -30 20 -18 18 -20 33 -20 178 0 186
-14 232 -74 257 -66 28 -122 15 -191 -43 l-30 -25 -3 41 c-3 46 6 43 -104 35z"/>
<path d="M11408 1363 c-34 -3 -48 -8 -48 -19 0 -7 5 -14 10 -14 6 0 19 -9 30
-20 18 -18 20 -33 20 -195 0 -175 0 -176 -25 -199 -43 -40 -33 -46 75 -46 109
0 121 8 73 46 l-28 22 -3 216 -4 216 -26 -2 c-15 -1 -48 -3 -74 -5z"/>
<path d="M12325 1355 c-58 -20 -110 -81 -131 -151 -22 -78 -15 -178 18 -242
59 -115 230 -134 343 -38 38 33 39 35 22 53 -14 15 -20 16 -35 5 -37 -27 -99
-52 -130 -52 -74 0 -118 48 -129 141 l-6 49 162 0 162 0 -6 58 c-4 31 -17 77
-29 101 -39 80 -140 112 -241 76z m115 -45 c25 -14 39 -39 49 -95 l8 -45 -109
0 -110 0 7 33 c21 95 89 142 155 107z"/>
<path d="M12728 1363 c-34 -3 -48 -8 -48 -19 0 -7 5 -14 10 -14 6 0 19 -9 30
-20 18 -18 20 -33 20 -195 0 -175 0 -176 -25 -199 -43 -40 -34 -46 80 -46 113
0 131 10 76 42 -26 14 -30 23 -36 84 -11 96 -1 216 20 248 39 59 93 65 128 15
11 -14 23 -20 43 -17 28 3 29 4 29 63 l0 60 -34 3 c-61 6 -101 -8 -147 -50
l-44 -41 0 47 c0 51 10 48 -102 39z"/>
<path d="M13238 1360 c-77 -23 -108 -61 -108 -133 0 -59 27 -87 137 -142 74
-37 93 -52 102 -76 38 -109 -149 -140 -190 -32 -7 19 -15 24 -37 21 -26 -3
-27 -6 -27 -57 0 -52 1 -55 30 -64 17 -5 71 -9 120 -10 71 -1 98 3 130 18 51
26 78 74 72 133 -6 57 -33 85 -132 134 -101 51 -115 63 -115 104 0 41 30 64
83 64 49 0 73 -13 92 -50 11 -21 23 -30 40 -30 24 0 25 3 25 59 l0 58 -46 7
c-61 8 -142 6 -176 -4z"/>
<path d="M13608 1363 c-34 -3 -48 -8 -48 -19 0 -7 5 -14 10 -14 6 0 19 -9 30
-20 18 -18 20 -33 20 -195 0 -175 0 -176 -25 -199 -43 -40 -33 -46 75 -46 109
0 121 8 73 46 l-28 22 -3 216 -4 216 -26 -2 c-15 -1 -48 -3 -74 -5z"/>
<path d="M15967 1359 c-21 -5 -60 -18 -88 -30 -45 -20 -49 -24 -49 -55 0 -33
1 -34 38 -34 32 0 41 5 50 25 6 14 27 33 46 42 73 34 136 -18 136 -113 l0 -42
-77 -11 c-140 -21 -213 -73 -213 -155 0 -124 136 -165 258 -76 l42 30 0 -35 0
-35 70 0 c78 0 88 10 43 46 l-28 22 -5 179 c-3 121 -9 185 -18 201 -26 46
-112 63 -205 41z m131 -315 c-6 -73 -36 -105 -106 -112 -41 -4 -53 -1 -71 17
-60 60 23 149 143 151 l38 0 -4 -56z"/>
<path d="M16363 1363 c-60 -5 -68 -19 -24 -45 20 -11 32 -27 36 -50 3 -18 5
-149 3 -291 l-3 -259 -27 -22 c-49 -39 -37 -46 77 -46 87 0 105 3 105 15 0 9
-11 20 -24 26 -30 14 -36 34 -36 122 l0 68 38 -8 c59 -13 146 -7 187 13 55 26
91 82 106 165 16 90 2 194 -34 248 -58 87 -172 94 -264 17 l-33 -28 0 41 c0
46 12 42 -107 34z m290 -83 c35 -28 51 -80 51 -170 1 -94 -23 -164 -64 -185
-62 -32 -140 -9 -159 46 -6 18 -11 81 -11 142 l0 109 39 39 c32 32 46 39 78
39 25 0 50 -8 66 -20z"/>
<path d="M17057 1359 c-21 -5 -60 -18 -88 -30 -45 -20 -49 -24 -49 -55 0 -33
1 -34 38 -34 32 0 41 5 50 25 6 14 27 33 46 42 73 34 136 -18 136 -113 l0 -42
-77 -11 c-140 -21 -213 -73 -213 -155 0 -124 136 -165 258 -76 l42 30 0 -35 0
-35 70 0 c78 0 88 10 43 46 l-28 22 -5 179 c-3 121 -9 185 -18 201 -26 46
-112 63 -205 41z m131 -315 c-6 -73 -36 -105 -106 -112 -41 -4 -53 -1 -71 17
-60 60 23 149 143 151 l38 0 -4 -56z"/>
<path d="M17458 1363 c-34 -3 -48 -8 -48 -19 0 -7 5 -14 10 -14 6 0 19 -9 30
-20 18 -18 20 -33 20 -195 0 -175 0 -176 -25 -199 -43 -40 -33 -46 75 -46 109
0 121 8 73 46 -26 20 -27 25 -31 140 -5 143 7 188 57 221 44 30 85 29 115 0
21 -21 25 -38 31 -122 11 -145 3 -215 -29 -240 -47 -38 -34 -45 79 -45 87 0
105 3 105 15 0 8 -4 15 -10 15 -5 0 -19 9 -30 20 -18 18 -20 33 -20 178 0 186
-14 232 -74 257 -66 28 -122 15 -191 -43 l-30 -25 -3 41 c-3 46 6 43 -104 35z"/>
<path d="M4730 1345 c0 -8 5 -15 10 -15 6 0 19 -9 30 -20 18 -18 20 -33 20
-167 0 -82 5 -165 11 -187 30 -109 161 -126 257 -34 l32 32 0 -41 c0 -23 3
-44 8 -46 4 -2 37 -2 75 1 49 3 67 8 67 18 0 8 -11 19 -24 23 -13 5 -26 17
-30 26 -3 9 -6 109 -6 221 l0 204 -75 0 c-58 0 -75 -3 -75 -14 0 -8 9 -17 19
-21 30 -9 41 -58 41 -177 0 -126 -13 -168 -62 -198 -41 -25 -79 -26 -108 -2
-27 22 -39 109 -40 290 l0 122 -75 0 c-60 0 -75 -3 -75 -15z"/>
<path d="M11620 1345 c0 -9 7 -18 15 -22 22 -8 38 -41 104 -226 88 -243 85
-237 119 -237 28 0 32 6 112 183 105 231 129 275 151 282 11 4 19 13 19 21 0
11 -20 14 -100 14 -77 0 -100 -3 -100 -13 0 -8 11 -19 25 -25 19 -9 25 -19 25
-43 0 -28 -91 -263 -110 -282 -9 -10 -100 255 -100 291 0 14 9 27 25 34 14 6
25 17 25 25 0 10 -24 13 -105 13 -88 0 -105 -3 -105 -15z"/>
<path d="M14170 1345 c0 -8 8 -19 19 -24 21 -12 45 -66 130 -296 l59 -160 -19
-36 c-44 -87 -97 -124 -127 -88 -9 10 -27 19 -39 19 -21 0 -23 -4 -23 -55 l0
-55 56 0 c71 0 111 23 152 88 17 26 76 151 132 277 117 265 137 303 162 311
10 3 18 12 18 20 0 11 -20 14 -100 14 -77 0 -100 -3 -100 -13 0 -8 11 -19 25
-25 19 -9 25 -19 25 -42 0 -28 -91 -265 -108 -282 -9 -9 -102 257 -102 290 0
14 9 27 25 34 14 6 25 17 25 25 0 10 -24 13 -105 13 -86 0 -105 -3 -105 -15z"/>
<path d="M6190 933 c-1 -64 -19 -124 -46 -154 -16 -18 -16 -21 -2 -35 14 -15
19 -14 48 7 71 53 105 127 93 202 -5 36 -6 37 -49 37 l-44 0 0 -57z"/>
<path d="M15030 933 c-1 -64 -19 -124 -46 -154 -16 -18 -16 -21 -2 -35 14 -15
19 -14 48 7 71 53 105 127 93 202 -5 36 -6 37 -49 37 l-44 0 0 -57z"/>
</g>
</svg>
