<?xml version="1.0" standalone="no"?>
<!DOCTYPE svg PUBLIC "-//W3C//DTD SVG 20010904//EN"
 "http://www.w3.org/TR/2001/REC-SVG-20010904/DTD/svg10.dtd">
<svg version="1.0" xmlns="http://www.w3.org/2000/svg"
 width="958.000000pt" height="968.000000pt" viewBox="0 0 958.000000 968.000000"
 preserveAspectRatio="xMidYMid meet">

<g transform="translate(0.000000,968.000000) scale(0.100000,-0.100000)"
fill="#000000" stroke="none">
<path d="M5593 8283 c-42 -14 -113 -83 -113 -109 0 -18 -15 -21 -161 -34 -74
-6 -173 -15 -220 -21 -47 -5 -112 -9 -146 -9 -54 0 -61 2 -71 25 -7 14 -33 39
-59 55 -106 67 -237 13 -272 -113 -11 -39 -11 -52 4 -96 9 -30 29 -61 46 -76
29 -24 30 -26 18 -63 -7 -20 -11 -38 -10 -40 0 -1 -5 -17 -13 -36 -8 -19 -12
-36 -10 -39 3 -2 0 -17 -7 -33 -6 -16 -13 -36 -15 -44 -19 -75 -56 -206 -59
-209 -10 -9 -23 13 -29 49 -9 57 -77 125 -135 135 -90 15 -180 -29 -211 -104
-8 -21 -21 -31 -43 -35 -33 -6 -234 -22 -408 -33 l-96 -6 -14 34 c-7 19 -14
36 -15 39 0 3 -4 13 -7 23 -16 42 -16 50 7 80 26 36 46 89 46 124 0 16 4 22
12 17 7 -5 8 -3 4 5 -5 7 -10 10 -13 7 -3 -3 -17 18 -32 47 -20 40 -36 57 -71
75 -74 37 -182 23 -218 -29 -11 -16 -20 -19 -41 -14 -14 4 -34 9 -45 11 -38 7
-61 32 -73 77 -13 47 -47 86 -99 113 -34 18 -117 18 -153 0 -32 -17 -86 -76
-95 -104 -6 -17 -24 -20 -154 -31 -81 -7 -203 -18 -271 -25 -118 -13 -161 -12
-161 4 0 20 -68 74 -108 87 -122 36 -235 -47 -235 -172 0 -57 20 -104 57 -133
14 -11 23 -21 21 -23 -2 -3 -6 -17 -9 -32 -3 -15 -14 -60 -26 -100 -23 -77
-44 -152 -80 -284 -21 -75 -25 -83 -47 -83 -93 0 -168 -118 -144 -225 9 -41 9
-60 -4 -100 -51 -170 33 -382 191 -482 24 -15 49 -40 55 -55 17 -43 71 -84
127 -99 l52 -13 0 -347 0 -347 -37 -6 c-36 -6 -187 -19 -388 -33 l-91 -6 -27
37 c-39 50 -90 74 -152 71 -65 -3 -82 -11 -126 -56 -69 -72 -69 -175 -1 -248
l34 -35 -17 -56 c-9 -30 -25 -84 -35 -120 -59 -208 -73 -258 -77 -287 -4 -28
-10 -33 -32 -33 -57 0 -132 -67 -151 -137 -13 -46 -4 -91 32 -150 21 -35 89
-73 131 -73 18 0 30 -7 33 -17 3 -10 10 -28 15 -40 5 -13 13 -33 18 -45 34
-86 61 -160 61 -172 0 -7 -9 -21 -20 -31 -11 -10 -27 -42 -36 -70 -14 -49 -13
-56 6 -108 29 -76 98 -127 171 -127 37 0 115 36 133 61 12 18 15 18 78 -2 63
-20 66 -23 72 -58 12 -79 95 -151 173 -151 27 0 34 -4 39 -28 9 -43 37 -93 61
-109 18 -12 21 -19 12 -34 -5 -10 -7 -19 -5 -19 3 0 -1 -18 -9 -40 -8 -22 -14
-44 -15 -48 0 -4 -5 -23 -10 -42 -6 -19 -15 -51 -20 -70 -10 -39 -45 -164 -62
-222 -8 -27 -17 -38 -30 -38 -22 0 -75 -25 -101 -48 -41 -36 -61 -113 -47
-177 8 -35 7 -59 -5 -104 -46 -178 30 -378 178 -471 31 -19 56 -38 57 -43 0
-4 12 -25 26 -47 61 -91 199 -105 281 -28 21 20 24 20 72 4 27 -9 57 -16 65
-16 12 0 16 -10 16 -35 0 -48 40 -108 87 -132 48 -25 133 -25 180 0 33 18 83
75 83 96 0 18 45 31 108 31 31 0 104 5 162 10 58 6 144 14 191 18 l87 8 26
-75 26 -74 -23 -31 c-39 -53 -52 -108 -37 -160 12 -45 56 -100 98 -123 53 -31
194 -4 219 42 8 13 17 13 76 -6 64 -20 67 -22 67 -53 0 -18 10 -46 23 -64 80
-108 201 -119 287 -26 22 24 40 50 40 58 0 20 15 23 121 30 52 4 137 11 189
16 52 5 136 12 186 15 90 5 91 5 102 -20 18 -39 98 -85 148 -85 87 0 151 47
179 130 15 45 15 58 4 97 -7 26 -26 61 -42 80 -31 35 -31 44 -7 128 6 22 15
56 20 75 17 70 72 265 75 269 10 9 24 -14 30 -51 5 -30 19 -52 50 -83 24 -23
51 -43 59 -44 32 -5 112 -4 133 2 31 8 89 63 103 97 14 35 53 43 204 44 l100
1 7 -30 c20 -93 106 -210 189 -256 21 -12 46 -36 54 -53 33 -71 90 -106 168
-106 49 0 121 30 136 55 8 15 14 16 48 6 76 -24 94 -34 94 -51 0 -51 51 -119
113 -150 36 -18 106 -16 144 3 34 18 88 76 97 105 7 22 9 22 482 58 l91 7 42
-45 c115 -125 312 -55 314 111 0 61 -11 91 -51 133 l-25 28 22 82 c12 46 26
99 31 118 24 99 73 267 81 282 5 10 19 18 30 18 69 0 143 88 141 169 -1 83 -6
156 -10 138 -4 -17 -18 -23 -24 -9 -8 19 -69 52 -107 58 -32 5 -45 13 -57 35
-8 16 -14 30 -13 31 0 2 -4 14 -9 28 -6 14 -24 60 -40 103 l-31 77 35 52 c23
37 34 64 34 90 0 21 4 38 9 38 24 0 117 -88 152 -143 40 -64 50 -72 24 -20
-24 47 -91 119 -145 154 -27 17 -54 44 -60 59 -22 53 -107 110 -163 110 -16 0
-17 29 -17 349 l0 348 43 7 c44 8 238 23 392 32 l90 5 20 -32 c29 -47 78 -71
146 -71 65 0 92 11 135 58 61 66 63 157 4 234 -40 53 -41 56 -29 87 6 15 13
35 15 43 4 15 23 85 69 250 15 52 29 110 32 128 4 26 10 32 30 32 56 0 133 69
153 136 29 99 -64 224 -167 224 -14 0 -26 7 -29 18 -3 9 -11 28 -16 42 -6 14
-14 34 -18 45 -70 179 -69 174 -40 200 11 10 27 42 36 70 14 49 13 56 -6 108
-12 31 -33 66 -48 78 -33 26 -87 49 -115 49 -39 0 -99 -24 -128 -51 l-29 -27
-65 20 c-50 16 -65 25 -65 40 0 29 -26 85 -52 110 -34 34 -68 49 -116 51 -40
1 -42 3 -48 36 -9 43 -40 98 -65 111 -14 8 -16 16 -10 33 11 28 23 72 51 177
22 83 50 186 72 263 8 26 17 37 30 37 22 0 75 25 101 48 41 36 61 113 47 177
-8 35 -7 59 5 104 46 178 -30 378 -178 471 -31 19 -56 38 -57 43 -1 22 -55 86
-89 105 -65 37 -161 23 -218 -30 l-22 -20 -63 19 c-59 19 -63 22 -66 53 -15
145 -211 199 -314 87 -21 -22 -38 -46 -38 -53 0 -22 -21 -28 -125 -35 -55 -4
-171 -13 -258 -19 -87 -7 -161 -9 -164 -7 -3 3 -16 36 -29 72 l-24 66 29 42
c55 77 50 165 -13 228 -49 49 -65 56 -131 57 -65 0 -86 -8 -127 -45 l-26 -25
-66 22 c-63 21 -66 23 -66 54 0 55 -57 118 -130 143 -43 16 -54 15 -107 -4z
m126 -42 c39 -20 62 -48 76 -90 6 -21 5 -23 -23 -16 -18 3 -33 2 -37 -4 -13
-22 -22 -10 -21 32 l1 42 -62 3 -63 3 0 -68 0 -68 -112 -1 c-170 -1 -344 -12
-433 -28 -80 -14 -80 -14 -27 -15 33 -1 51 -5 47 -11 -9 -15 -82 -12 -115 5
-26 14 -48 50 -37 61 4 4 518 53 572 54 13 0 26 13 37 38 21 44 78 81 126 82
18 0 50 -9 71 -19z m-918 -87 c27 -14 52 -45 62 -79 6 -18 2 -20 -39 -21 -33
-1 -42 2 -35 9 18 18 13 55 -8 67 -11 5 -40 10 -65 10 l-46 0 0 -85 0 -85 55
0 c47 0 57 3 71 25 8 13 12 30 8 36 -4 8 -3 9 4 5 7 -4 12 -19 12 -34 -1 -21
-12 -35 -49 -61 -41 -29 -50 -42 -60 -85 -7 -28 -17 -64 -22 -81 -5 -16 -18
-64 -29 -105 -51 -186 -74 -250 -90 -250 -43 1 -42 10 25 256 69 254 70 258
56 249 -16 -9 -53 54 -58 99 -13 114 100 184 208 130z m887 9 c-2 -12 -14 -19
-36 -21 -27 -3 -32 0 -32 17 0 17 6 21 36 21 28 0 35 -3 32 -17z m1 -52 c22
-14 3 -31 -35 -31 -27 0 -34 4 -34 20 0 15 7 20 28 20 15 0 33 -4 41 -9z m61
-28 c0 -35 -31 -53 -92 -53 -32 0 -58 4 -58 10 0 6 25 10 56 10 52 0 56 2 67
29 11 31 27 32 27 4z m-982 5 c-7 -20 -68 -23 -68 -4 0 12 10 16 36 16 24 0
34 -4 32 -12z m1435 -36 c24 -25 31 -41 35 -85 4 -49 1 -57 -24 -86 -16 -18
-47 -38 -69 -45 -26 -9 -41 -21 -43 -34 -2 -14 -13 -21 -35 -25 -18 -2 -33 -4
-34 -3 -2 1 2 17 7 36 8 30 6 36 -20 63 -17 17 -30 33 -30 37 0 3 -125 -4
-277 -17 -360 -29 -330 -29 -335 7 -4 28 -2 30 36 35 57 7 514 45 548 45 19 0
28 5 28 15 0 24 30 64 59 81 43 24 117 13 154 -24z m-1435 -29 c-2 -12 -14
-19 -36 -21 -27 -3 -32 0 -32 17 0 17 6 21 36 21 28 0 35 -3 32 -17z m835 -22
c64 -1 107 -5 107 -11 0 -12 -43 -12 -237 -3 -94 4 -143 10 -143 17 0 8 25 9
83 4 45 -3 130 -7 190 -7z m-2593 -8 c16 -9 34 -27 41 -40 11 -20 10 -25 -7
-38 -29 -22 -33 -18 -27 21 7 45 -5 54 -74 54 l-53 0 0 -68 0 -67 -112 -58
c-62 -31 -117 -57 -122 -57 -21 0 17 24 111 71 54 27 90 49 81 49 -13 0 -18 8
-18 31 0 90 103 148 180 102z m2256 -14 c25 -20 44 -65 44 -103 0 -45 -39 -92
-89 -107 -96 -29 -183 79 -137 170 16 30 50 56 81 63 27 5 82 -7 101 -23z
m-2280 -30 c8 -14 -14 -29 -43 -29 -16 0 -23 6 -23 20 0 15 7 20 29 20 17 0
33 -5 37 -11z m-949 -25 c-3 -3 -12 -4 -19 -1 -8 3 -5 6 6 6 11 1 17 -2 13 -5z
m80 -47 l20 -33 -24 -11 c-23 -11 -43 0 -23 12 14 9 13 48 -2 64 -8 9 -9 11
-2 7 7 -3 21 -21 31 -39z m701 6 c3 -20 -2 -22 -80 -28 -46 -4 -130 -8 -188
-10 -94 -3 -218 -15 -307 -30 -30 -5 -33 -3 -33 18 l0 23 278 26 c324 30 326
30 330 1z m-848 -73 l0 -65 52 4 c59 3 78 14 78 42 0 11 5 19 10 19 12 0 13
-40 2 -55 -4 -6 -18 -16 -32 -23 -14 -6 -34 -18 -45 -24 -11 -7 -21 -14 -23
-14 -2 -1 -21 -64 -43 -140 -21 -77 -43 -146 -48 -154 -5 -9 -12 -30 -16 -49
-4 -18 -9 -30 -12 -28 -6 7 11 88 52 247 l34 135 -24 25 c-47 49 -52 94 -18
149 22 34 33 11 33 -69z m4023 62 c27 -28 35 -52 18 -52 -5 0 -24 17 -41 38
-18 20 -28 28 -22 17 6 -11 22 -31 36 -44 14 -14 26 -31 26 -39 0 -8 -22 -35
-49 -61 -65 -62 -81 -117 -57 -199 17 -56 17 -59 -6 -137 -22 -76 -24 -80 -58
-87 -39 -8 -31 -15 -214 187 -44 49 -123 134 -173 189 -51 55 -93 107 -93 116
0 9 6 24 13 35 12 15 31 19 112 21 83 3 195 15 268 29 9 2 15 -1 11 -6 -5 -9
62 -3 126 11 60 14 75 11 103 -18z m-3010 -2 c-4 -14 -14 -20 -34 -20 -22 0
-29 5 -29 20 0 16 7 20 34 20 29 0 33 -3 29 -20z m46 -46 c-13 -16 -129 -20
-129 -4 0 6 25 10 56 10 53 0 56 1 67 31 l12 32 3 -27 c2 -15 -2 -34 -9 -42z
m-961 44 c-7 -20 -68 -23 -68 -4 0 12 10 16 36 16 24 0 34 -4 32 -12z m1365
-25 c-13 -2 -35 -2 -50 0 -16 2 -5 4 22 4 28 0 40 -2 28 -4z m-43 -173 c76 0
116 32 91 72 -7 12 -8 25 -3 36 5 9 7 24 4 32 -3 11 -2 12 8 4 15 -14 26 -70
22 -106 -5 -38 -55 -73 -105 -73 -78 0 -122 90 -79 164 l17 31 3 -80 3 -80 39
0z m-1327 144 c13 -14 -7 -34 -34 -34 -22 0 -29 5 -29 20 0 15 7 20 28 20 16
0 31 -3 35 -6z m1382 -24 c0 -9 -11 -16 -27 -18 -23 -3 -28 1 -28 18 0 17 5
21 28 18 16 -2 27 -9 27 -18z m1510 -189 l-130 -128 -47 4 -48 5 153 148 152
148 25 -24 25 -24 -130 -129z m610 -71 l224 -245 -26 -27 -25 -26 -209 227
c-266 291 -252 272 -233 300 9 12 22 21 30 19 8 -2 115 -113 239 -248z m-2285
200 c0 -11 -6 -20 -12 -20 -7 -1 -35 -3 -63 -5 -27 -2 -142 -11 -255 -20 -113
-8 -222 -17 -242 -19 -30 -3 -38 -1 -38 12 0 13 11 18 43 19 81 5 423 35 482
43 33 4 66 8 73 9 6 0 12 -8 12 -19z m3660 -42 l-1 -63 -105 -50 c-127 -60
-124 -59 -124 -47 0 5 45 30 100 56 73 35 98 51 93 62 -5 14 23 104 33 104 2
0 4 -28 4 -62z m150 27 c0 -13 -5 -27 -11 -30 -17 -11 -23 3 -9 20 7 8 10 22
6 30 -3 9 -2 13 4 10 6 -3 10 -17 10 -30z m-4507 -51 l2 -58 -40 -22 c-48 -27
-71 -29 -91 -10 -22 23 -17 26 35 26 32 0 55 6 65 16 20 19 20 24 1 51 -10 14
-12 24 -5 28 5 3 10 16 10 28 0 14 3 18 10 11 6 -6 12 -37 13 -70z m871 68
c10 -17 -12 -33 -40 -30 -18 2 -30 10 -32 21 -3 13 4 17 32 17 19 0 37 -4 40
-8z m3581 -12 c0 -9 -11 -16 -27 -18 -23 -3 -28 1 -28 18 0 17 5 21 28 18 16
-2 27 -9 27 -18z m-4505 -5 c0 -10 -11 -15 -35 -15 -24 0 -35 5 -35 15 0 10
11 15 35 15 24 0 35 -5 35 -15z m-100 -55 c0 -19 -4 -42 -10 -50 -7 -11 -11
-9 -19 13 -6 16 -11 32 -11 37 0 5 5 21 11 37 8 22 12 24 19 13 6 -8 10 -31
10 -50z m2774 45 l68 1 63 -66 c35 -36 82 -87 106 -115 24 -27 73 -81 110
-120 144 -155 164 -178 160 -194 -11 -48 -12 -144 -1 -155 8 -8 -46 -67 -216
-233 l-227 -222 -28 15 c-15 7 -36 14 -47 14 -15 0 -18 8 -18 53 -1 28 -3 67
-6 86 -3 18 1 51 9 73 15 44 16 142 2 203 -24 103 -119 235 -201 279 -23 12
-41 32 -49 54 -8 20 -31 48 -52 63 l-37 27 132 126 c97 93 137 124 148 119 8
-5 46 -8 84 -8z m-2949 -29 c31 -11 41 -20 46 -43 3 -17 9 -34 12 -40 3 -5
-18 -34 -48 -63 -30 -30 -55 -48 -55 -41 0 8 -14 51 -31 96 -27 71 -30 85 -18
98 15 17 32 16 94 -7z m273 -27 c2 -12 -6 -18 -32 -21 -32 -4 -36 -2 -36 20 0
20 4 23 32 20 21 -2 34 -9 36 -19z m3490 -70 l-3 -49 63 0 c61 0 63 1 77 33
l14 32 1 -31 c0 -41 -19 -56 -78 -62 -40 -3 -51 0 -74 22 -31 28 -37 73 -15
119 11 25 12 25 15 6 2 -12 2 -44 0 -70z m152 56 c0 -13 -5 -27 -11 -30 -15
-10 -17 -4 -12 32 6 37 23 35 23 -2z m700 24 c0 -14 -14 -17 -100 -24 -105 -9
-101 10 5 23 90 10 95 10 95 1z m173 4 c12 -11 -14 -33 -39 -33 -17 0 -24 6
-24 20 0 15 7 20 28 20 16 0 32 -3 35 -7z m42 -53 c-15 -16 -30 -20 -79 -19
l-61 2 51 6 c58 7 84 24 85 55 0 21 0 21 11 -2 9 -18 7 -26 -7 -42z m-3849 -7
c46 -53 58 -83 33 -83 -14 0 -118 113 -119 128 0 29 39 8 86 -45z m2884 43 c0
-14 -21 -26 -46 -26 -8 0 -14 9 -14 20 0 16 7 20 30 20 19 0 30 -5 30 -14z
m360 -26 c-8 -5 -19 -10 -25 -10 -5 0 -3 5 5 10 8 5 20 10 25 10 6 0 3 -5 -5
-10z m-365 -40 c0 -10 -12 -16 -32 -18 -32 -3 -45 13 -26 32 13 12 58 2 58
-14z m1441 -55 c4 -75 -15 -95 -91 -95 -30 0 -55 5 -55 10 0 6 21 10 46 10 61
0 84 14 84 50 0 17 -4 30 -9 30 -5 0 -4 13 2 30 15 39 19 32 23 -35z m-156
-12 c-1 -64 -2 -67 -15 -43 -8 14 -14 33 -15 42 0 17 20 68 27 68 1 0 3 -30 3
-67z m98 55 c-7 -20 -58 -23 -58 -4 0 11 10 16 31 16 20 0 29 -4 27 -12z
m-4652 -258 c120 -133 220 -247 222 -254 2 -7 -3 -18 -11 -25 -12 -9 -53 31
-222 216 -115 126 -217 238 -228 250 -21 23 -17 53 6 53 8 0 112 -108 233
-240z m-488 217 c9 -10 -28 -52 -161 -184 -154 -152 -176 -171 -212 -176 -39
-6 -37 -3 154 184 107 104 198 189 202 189 3 0 11 -6 17 -13z m5365 -37 c110
-101 153 -204 145 -350 -3 -48 -9 -94 -14 -103 -8 -14 -13 -13 -39 11 -30 27
-86 52 -117 52 -9 0 -21 15 -28 33 -7 17 -16 41 -20 52 -4 11 -23 57 -40 103
l-33 83 24 27 c37 41 49 68 49 107 0 19 4 35 9 35 5 0 34 -23 64 -50z m-3385
15 c11 -10 -13 -25 -39 -25 -28 0 -39 17 -22 34 7 6 53 0 61 -9z m52 -15 c0
-17 -17 -37 -25 -29 -2 2 -1 16 2 31 6 30 23 28 23 -2z m2244 -42 c8 -76 -4
-88 -87 -87 l-62 1 53 8 c29 4 59 13 67 20 18 15 20 57 4 62 -9 3 -9 10 0 26
7 12 9 28 5 35 -5 8 -4 9 3 2 6 -5 13 -36 17 -67z m871 52 c0 -10 -12 -16 -32
-18 -28 -3 -33 0 -33 18 0 18 5 21 33 18 20 -2 32 -8 32 -18z m-925 -5 c0 -8
-3 -15 -7 -15 -5 0 -18 -3 -30 -6 -19 -5 -23 -2 -23 15 0 17 6 21 30 21 20 0
30 -5 30 -15z m-2340 -41 c0 -27 -4 -43 -10 -39 -11 7 -13 45 -4 69 10 26 14
18 14 -30z m2239 -21 l-1 -68 -14 34 c-12 26 -13 40 -4 67 7 19 13 34 16 34 2
0 4 -30 3 -67z m-3905 49 c3 -5 -38 -51 -90 -103 -85 -85 -96 -93 -114 -81
-24 15 -25 9 -4 -23 22 -33 21 -101 -3 -133 -37 -49 -53 -53 -103 -26 l-45 24
32 0 c56 0 83 16 83 50 0 16 -5 30 -11 30 -8 0 -8 4 1 14 6 8 10 25 8 37 -2
16 20 44 92 114 52 51 102 95 110 98 23 8 38 8 44 -1z m89 -94 c38 -40 103
-111 144 -157 l76 -84 -169 -85 -169 -85 -62 69 c-49 54 -61 73 -55 89 4 11 6
53 5 93 l-1 73 76 80 c42 43 78 79 81 79 3 0 36 -33 74 -72z m802 12 c-4 -11
-11 -20 -17 -20 -5 0 -7 7 -4 16 3 9 6 25 6 37 1 20 2 20 11 4 6 -9 7 -26 4
-37z m875 46 c0 -22 -17 -36 -41 -36 -22 0 -29 5 -29 20 0 16 7 20 35 20 19 0
35 -2 35 -4z m60 -29 c0 -6 -7 -19 -17 -29 -12 -14 -29 -18 -77 -17 l-61 2 58
6 c60 7 81 22 73 54 -4 15 -2 16 10 6 8 -6 14 -16 14 -22z m1570 16 c-2 -44
-28 -118 -44 -121 -20 -4 -20 -6 0 73 10 41 22 65 30 65 8 0 14 -8 14 -17z
m606 3 c20 -16 18 -18 -33 -29 -19 -4 -23 -1 -23 19 0 28 25 32 56 10z m-3160
-7 c8 -14 -14 -29 -43 -29 -16 0 -23 6 -23 20 0 15 7 20 29 20 17 0 33 -5 37
-11z m3868 -55 c32 -34 56 -68 54 -74 -2 -7 -34 22 -72 64 -37 42 -62 75 -54
75 7 -1 39 -30 72 -65z m-3966 -36 l-4 -33 -8 28 c-5 15 -5 44 0 65 l8 37 4
-32 c2 -18 2 -48 0 -65z m102 18 c0 -15 -21 -26 -51 -26 -12 0 -19 7 -19 20 0
16 7 20 35 20 23 0 35 -5 35 -14z m50 -20 c0 -12 -5 -27 -12 -34 -14 -14 -128
-16 -128 -2 0 6 25 10 55 10 49 0 57 3 64 23 5 12 6 26 3 31 -3 5 0 6 6 2 7
-4 12 -17 12 -30z m249 18 c10 -9 -116 -3 -129 7 -11 7 6 8 55 3 39 -3 72 -8
74 -10z m1133 -29 c-6 -12 -6 -28 2 -47 10 -26 8 -32 -13 -49 -25 -21 -131
-28 -131 -9 0 6 22 10 49 10 32 0 55 6 65 16 18 17 21 50 6 59 -7 4 -7 13 0
26 6 11 8 25 4 32 -4 6 1 5 11 -4 13 -13 15 -21 7 -34z m-52 20 c0 -10 -10
-15 -30 -15 -20 0 -30 5 -30 15 0 10 10 15 30 15 20 0 30 -5 30 -15z m-581
-12 c127 -5 165 -9 136 -15 -50 -9 -375 12 -375 25 0 5 14 7 31 3 18 -3 111
-9 208 -13z m479 -70 l-4 -28 -8 28 c-5 15 -5 39 0 55 l8 27 4 -27 c2 -16 2
-40 0 -55z m2201 -191 c121 -133 221 -246 221 -251 0 -34 -43 6 -249 231 -180
198 -228 255 -219 265 6 8 14 10 18 6 4 -4 107 -117 229 -251z m-5009 225 c0
-7 -7 -22 -15 -33 -13 -17 -13 -16 -3 14 13 34 18 40 18 19z m3170 -84 c79
-90 117 -239 90 -352 -12 -52 -12 -52 -34 -34 -36 31 -64 43 -99 43 -31 0 -34
3 -56 63 -13 34 -30 76 -37 92 -7 17 -20 52 -29 78 l-15 49 29 34 c19 21 32
49 36 79 l7 45 38 -30 c21 -17 53 -47 70 -67z m-261 78 c22 -14 3 -31 -35 -31
-32 0 -45 16 -27 33 9 10 45 8 62 -2z m-924 -21 c0 -10 -12 -16 -32 -18 -28
-3 -33 0 -33 18 0 18 5 21 33 18 20 -2 32 -8 32 -18z m52 -18 c-3 -14 0 -37 6
-50 10 -21 8 -27 -16 -48 -22 -18 -40 -24 -78 -24 -27 0 -49 5 -49 10 0 6 15
10 34 10 69 0 107 30 87 68 -11 21 -2 74 11 66 5 -4 8 -18 5 -32z m-1632 8 c0
-8 -8 -16 -19 -18 -11 -3 -16 0 -12 7 4 6 2 11 -3 11 -6 0 -11 -4 -11 -10 0
-5 -4 -10 -10 -10 -5 0 -10 9 -10 21 0 17 5 20 33 17 20 -2 32 -8 32 -18z
m1485 -47 c0 -41 -3 -54 -10 -43 -11 17 -13 61 -4 84 11 28 14 18 14 -41z
m2756 -40 c-50 -49 -93 -92 -97 -96 -3 -4 -11 -2 -17 6 -9 10 6 30 71 94 73
72 108 96 128 86 4 -1 -34 -42 -85 -90z m-616 67 c0 -5 -21 -9 -47 -8 l-48 1
45 7 c25 4 46 8 48 8 1 1 2 -2 2 -8z m735 -10 c3 -5 1 -10 -4 -10 -6 0 -11 5
-11 10 0 6 2 10 4 10 3 0 8 -4 11 -10z m-805 -170 c27 0 28 -1 17 -30 -7 -17
-13 -26 -15 -20 -2 5 -9 10 -16 10 -17 0 -53 40 -66 74 -12 34 0 88 27 118 17
20 18 18 21 -66 l3 -86 29 0z m-1967 153 c13 -12 -15 -33 -44 -33 -22 0 -29 5
-29 20 0 16 7 20 33 20 19 0 37 -3 40 -7z m-1585 -20 c-2 -12 -14 -19 -36 -21
-27 -3 -32 0 -32 17 0 17 6 21 36 21 28 0 35 -3 32 -17z m4423 -31 c20 -21 74
-80 120 -132 46 -52 87 -97 91 -101 4 -3 -70 -42 -165 -88 l-172 -83 -62 68
c-41 45 -61 74 -57 84 15 35 20 111 9 133 -11 20 -6 29 59 95 68 69 73 73 106
67 21 -4 49 -21 71 -43z m-811 23 c0 -9 -7 -18 -15 -21 -23 -9 -45 3 -39 21 8
20 54 20 54 0z m-3724 -20 c-10 -8 -23 -12 -29 -8 -11 7 12 23 33 23 12 -1 11
-4 -4 -15z m-321 -5 c3 -6 -1 -7 -9 -4 -18 7 -21 14 -7 14 6 0 13 -4 16 -10z
m290 -52 c147 -36 267 -178 283 -336 24 -219 -111 -399 -332 -443 -117 -24
-252 20 -345 112 -161 162 -158 415 6 570 108 102 238 134 388 97z m803 -42
c62 -64 71 -79 52 -91 -13 -8 -13 -115 0 -135 7 -12 -6 -31 -58 -82 -61 -62
-70 -68 -108 -68 -39 0 -44 4 -122 93 -90 103 -172 186 -172 173 0 -9 160
-189 213 -240 l31 -29 -50 6 c-45 6 -55 12 -118 79 -97 104 -143 161 -131 165
6 2 93 46 195 98 102 52 190 94 196 95 6 0 39 -29 72 -64z m2932 44 c-6 -11
-17 -20 -25 -20 -8 0 -15 9 -15 20 0 15 7 20 25 20 23 0 24 -2 15 -20z m-3422
-72 c60 -62 62 -67 43 -77 -34 -19 -47 -13 -106 51 l-57 62 22 18 c13 10 26
17 29 16 3 -2 34 -33 69 -70z m1633 -85 c74 -82 176 -194 228 -251 65 -71 91
-106 84 -113 -7 -7 -82 67 -241 242 -206 225 -241 269 -213 269 4 0 68 -66
142 -147z m2306 49 c10 -89 -33 -126 -112 -98 l-40 15 45 1 c71 0 113 43 78
78 -8 8 -8 15 1 25 6 8 8 23 5 33 -5 14 -4 16 5 8 6 -6 14 -34 18 -62z m-59
36 c2 -11 -3 -18 -13 -18 -9 0 -13 5 -10 10 3 6 0 10 -9 10 -8 0 -17 -6 -19
-12 -3 -7 -6 -3 -6 10 -1 20 3 23 26 20 17 -2 29 -10 31 -20z m-4608 8 c0 -2
-7 -7 -16 -10 -8 -3 -12 -2 -9 4 6 10 25 14 25 6z m3821 -283 c-119 -117 -221
-213 -228 -213 -6 0 -24 5 -40 11 l-28 11 230 223 230 223 26 -22 26 -21 -216
-212z m792 221 c13 -14 -7 -34 -34 -34 -22 0 -29 5 -29 20 0 15 7 20 28 20 16
0 31 -3 35 -6z m1434 -66 c3 -68 -7 -88 -43 -88 -13 0 -24 -4 -24 -10 0 -12
-43 -14 -54 -2 -4 4 -12 7 -17 7 -5 0 -10 5 -11 10 -2 6 22 11 52 13 30 2 60
8 67 14 16 13 17 54 2 64 -8 4 -8 9 0 17 6 6 11 20 11 31 0 10 3 16 7 12 4 -4
8 -34 10 -68z m-4671 -55 c-10 -24 -26 -4 -26 32 0 19 6 47 13 62 12 27 12 26
15 -26 2 -30 1 -60 -2 -68z m4619 108 c6 -11 -26 -31 -49 -31 -9 0 -16 9 -16
20 0 15 7 20 29 20 17 0 32 -4 36 -9z m-4531 -16 c-6 -16 -54 -21 -54 -7 0 15
12 22 36 22 17 0 22 -4 18 -15z m3036 -15 c-16 -11 -40 -13 -40 -5 0 8 44 24
50 18 2 -2 -2 -8 -10 -13z m-3057 -50 c-3 -11 -12 -20 -19 -20 -8 0 -14 9 -14
20 0 13 7 20 19 20 14 0 18 -5 14 -20z m3830 -46 c41 -48 56 -71 51 -83 -4 -9
-8 -51 -8 -93 l-1 -78 -79 -79 -79 -79 -41 42 c-23 23 -77 82 -120 132 -44 49
-91 100 -104 113 l-25 24 164 83 c90 46 169 83 174 83 6 1 36 -29 68 -65z
m727 52 c0 -15 -21 -26 -51 -26 -12 0 -19 7 -19 20 0 16 7 20 35 20 23 0 35
-5 35 -14z m-1478 -38 c135 -62 218 -186 226 -334 7 -140 -50 -263 -160 -341
-176 -127 -433 -84 -553 91 -53 78 -68 129 -69 231 -1 81 2 97 31 157 97 206
322 290 525 196z m1368 22 c0 -12 -220 -124 -228 -116 -8 8 -8 8 113 69 127
65 115 60 115 47z m-1073 -134 c-9 -26 -47 -8 -97 48 -52 56 -53 59 -35 73 19
13 24 10 78 -48 32 -34 56 -67 54 -73z m-3387 85 c0 -18 -15 -19 -40 -5 l-25
13 33 1 c17 0 32 -4 32 -9z m-120 -64 c0 -7 -13 -26 -30 -42 -16 -15 -27 -32
-24 -37 6 -10 -2 -10 -34 -2 -23 7 -22 8 19 50 43 44 69 56 69 31z m2035 -69
c5 -80 -3 -88 -83 -87 l-67 2 51 6 c28 3 59 12 68 20 19 16 21 58 4 64 -10 3
-10 7 1 20 7 9 10 25 7 34 -6 14 -4 15 5 6 6 -6 13 -35 14 -65z m-60 42 c0 -9
-11 -16 -27 -18 -23 -3 -28 1 -28 18 0 17 5 21 28 18 16 -2 27 -9 27 -18z
m2288 -122 c-12 -13 -31 -18 -75 -18 -32 0 -58 4 -58 10 0 6 24 10 53 10 29 0
58 5 65 12 15 15 16 55 1 64 -8 4 -8 9 0 17 6 6 12 20 12 32 1 11 5 -9 10 -45
7 -53 5 -67 -8 -82z m-43 117 c0 -10 -10 -15 -30 -15 -20 0 -30 5 -30 15 0 10
10 15 30 15 20 0 30 -5 30 -15z m-4150 -5 c13 -8 13 -10 -2 -10 -9 0 -25 -3
-35 -7 -16 -6 -16 -5 -4 10 16 20 20 20 41 7z m1810 -41 c0 -31 -4 -48 -10
-44 -11 7 -13 54 -4 79 10 27 14 18 14 -35z m1657 45 c-3 -4 2 -14 12 -23 36
-30 271 -292 271 -300 0 -10 -29 -36 -34 -30 -22 28 -247 272 -272 296 l-33
32 27 15 c31 16 38 18 29 10z m583 -56 c0 -45 -3 -59 -10 -48 -15 24 -10 110
6 110 2 0 4 -28 4 -62z m-2361 26 c2 -2 2 -7 -2 -10 -8 -9 -147 6 -147 16 0 7
141 1 149 -6z m227 -25 c8 -14 -14 -29 -43 -29 -16 0 -23 6 -23 20 0 15 7 20
29 20 17 0 33 -5 37 -11z m2239 -9 c0 -10 -12 -16 -32 -18 -28 -3 -33 0 -33
18 0 18 5 21 33 18 20 -2 32 -8 32 -18z m-4457 -14 c0 -11 -6 -29 -15 -38 -16
-18 -17 -17 -41 4 -13 13 -28 31 -33 40 -8 15 -3 17 39 16 41 -1 48 -4 50 -22z
m42 10 c0 -11 -19 -15 -25 -6 -3 5 1 10 9 10 9 0 16 -2 16 -4z m92 -1 c2 -3
-73 -82 -168 -176 -121 -121 -177 -170 -188 -166 -9 4 -16 10 -16 15 0 5 71
79 158 163 86 84 156 157 155 161 -3 9 50 11 59 3z m227 -64 c21 -13 4 -31
-30 -31 -27 0 -39 17 -22 33 9 10 35 8 52 -2z m58 -61 c1 -50 -3 -63 -20 -75
-24 -17 -113 -20 -122 -5 -4 6 12 10 40 10 67 0 87 14 84 58 -3 57 0 84 9 78
5 -3 9 -32 9 -66z m-147 10 c0 -27 -4 -50 -10 -50 -11 0 -13 42 -4 78 10 35
14 26 14 -28z m1887 24 c-3 -3 -12 -4 -19 -1 -8 3 -5 6 6 6 11 1 17 -2 13 -5z
m-190 -10 c-3 -3 -12 -4 -19 -1 -8 3 -5 6 6 6 11 1 17 -2 13 -5z m446 -1 c-7
-2 -21 -2 -30 0 -10 3 -4 5 12 5 17 0 24 -2 18 -5z m358 -3 c40 0 69 -4 69
-10 0 -6 -41 -9 -112 -6 -62 3 -123 5 -136 5 -15 1 -21 5 -16 12 4 8 27 9 67
5 33 -3 91 -6 128 -6z m-443 -17 c-15 -4 -18 -17 -18 -84 l0 -79 48 0 c27 0
57 7 70 16 25 17 29 52 7 60 -13 5 -13 9 0 27 10 14 11 25 4 39 -8 15 -6 18
10 18 13 0 24 -13 35 -41 26 -64 8 -122 -51 -160 -52 -35 -133 -15 -166 40
-19 32 -23 116 -7 126 6 4 8 11 5 16 -4 5 1 9 9 9 9 0 16 5 16 10 0 6 12 9 28
9 16 -1 20 -3 10 -6z m-1960 -20 c-2 -12 -14 -19 -36 -21 -27 -3 -32 0 -32 17
0 17 6 21 36 21 28 0 35 -3 32 -17z m462 -3 c102 -5 270 -14 374 -19 233 -12
326 -21 326 -31 0 -5 -37 -6 -82 -4 -222 11 -478 25 -613 34 -82 6 -187 10
-232 10 -86 0 -113 5 -113 23 0 6 26 8 78 3 42 -4 160 -11 262 -16z m970 -15
c0 -13 -5 -27 -11 -30 -15 -10 -17 -4 -12 32 6 37 23 35 23 -2z m-50 11 c0 -8
-13 -16 -30 -18 -24 -4 -30 -1 -30 14 0 13 8 18 30 18 19 0 30 -5 30 -14z
m-1619 -5 c-11 -7 -10 -10 5 -14 16 -4 16 -5 -3 -6 -14 -1 -23 5 -23 14 0 8 8
15 18 15 14 0 14 -2 3 -9z m2277 -13 c3 -15 -4 -18 -32 -18 -34 0 -47 15 -29
34 13 13 58 1 61 -16z m425 -10 c2 -18 4 -34 3 -35 -4 -5 -266 -26 -270 -22
-2 2 -6 19 -9 37 l-6 32 47 1 c26 0 70 4 97 9 28 4 69 8 91 9 40 1 42 -1 47
-31z m-1185 -55 l-4 -28 -8 28 c-5 15 -5 39 0 55 l8 27 4 -27 c2 -16 2 -40 0
-55z m2712 67 c0 -6 -21 -31 -46 -56 -37 -38 -49 -45 -65 -37 -19 8 -17 12 23
55 40 44 88 64 88 38z m-2611 -43 c15 -19 4 -27 -36 -27 -31 0 -44 16 -26 33
11 12 50 8 62 -6z m61 -24 c0 -36 -31 -53 -92 -53 -37 0 -57 4 -53 10 3 6 29
10 56 10 47 0 52 2 62 29 11 31 27 32 27 4z m384 -33 c13 -72 89 -131 170
-132 86 -1 146 36 177 109 13 31 14 32 99 37 47 4 111 8 143 11 41 3 59 1 61
-8 23 -81 35 -110 64 -155 35 -54 110 -127 150 -145 13 -6 32 -28 43 -48 25
-49 73 -85 127 -94 l42 -7 0 -352 0 -353 -102 -7 c-57 -3 -139 -9 -183 -11
-44 -3 -106 -9 -137 -13 l-57 -8 -16 45 c-9 25 -20 54 -26 63 -12 22 -12 58 0
58 12 0 52 86 58 127 l6 33 29 -18 c42 -24 119 -110 145 -163 13 -24 23 -38
23 -31 0 12 -52 97 -82 133 -23 28 -109 89 -118 84 -5 -3 -12 5 -15 17 -11 35
-54 88 -89 109 -21 13 -50 19 -87 19 -48 0 -65 -5 -106 -33 l-50 -34 -61 20
c-50 15 -62 23 -62 40 0 39 -40 106 -78 129 -38 23 -59 30 -102 32 -20 1 -27
10 -41 49 -9 26 -29 61 -44 77 -34 36 -37 16 45 310 12 41 25 91 29 111 11 49
21 66 31 48 4 -8 10 -30 14 -49z m-2030 35 c-4 -9 -19 -15 -35 -15 -19 0 -29
5 -29 15 0 10 11 15 35 15 26 0 33 -3 29 -15z m2249 9 c14 -15 -8 -34 -39 -34
-27 0 -34 4 -34 20 0 16 7 20 33 20 19 0 36 -3 40 -6z m-1730 -274 c167 -182
222 -248 214 -258 -5 -7 -11 -11 -12 -10 -1 2 -104 115 -228 251 -194 213
-247 280 -207 265 4 -2 109 -113 233 -248z m3777 225 c0 -8 4 -23 9 -33 5 -9
20 -45 34 -79 24 -58 24 -63 8 -77 -16 -14 -23 -14 -79 5 -48 16 -62 25 -62
41 0 10 -5 28 -10 38 -9 16 -2 28 37 70 49 52 63 60 63 35z m-4901 -8 c8 -11
6 -18 -9 -32 -19 -17 -22 -17 -37 -2 -13 13 -14 19 -3 31 15 20 34 20 49 3z
m641 -2 c-8 -10 -31 -15 -66 -15 -72 0 -69 18 4 23 31 2 61 4 66 5 5 1 3 -5
-4 -13z m413 -35 c-6 -23 -14 -25 -31 -8 -18 18 -14 28 12 28 19 0 23 -4 19
-20z m-628 -10 c10 -11 16 -22 14 -24 -2 -2 -40 -7 -84 -10 l-80 -7 55 30 c66
36 72 37 95 11z m385 -83 c0 -5 -4 -6 -9 -3 -8 5 -245 -10 -453 -29 -53 -4
-58 -3 -58 15 0 12 7 20 18 20 47 0 466 41 471 45 5 6 30 -33 31 -48z m-605
-11 c10 -62 -1 -84 -48 -107 -34 -17 -47 -18 -69 -10 -43 16 -33 31 22 31 41
0 52 4 65 24 16 24 11 56 -8 56 -7 0 -7 4 1 12 7 7 12 20 12 31 0 34 19 7 25
-37z m4430 47 c-11 -3 -23 -10 -27 -17 -5 -7 -8 -5 -8 7 0 12 7 17 28 16 21
-1 22 -2 7 -6z m-4587 -86 c-3 -57 -3 -58 -20 -37 -20 25 -23 56 -7 97 16 42
30 10 27 -60z m100 71 c-7 -20 -68 -23 -68 -4 0 12 10 16 36 16 24 0 34 -4 32
-12z m4554 -20 c-8 -8 -9 -4 -5 13 4 13 8 18 11 10 2 -7 -1 -18 -6 -23z
m-5052 12 c0 -13 -30 -13 -50 0 -11 7 -7 10 18 10 17 0 32 -4 32 -10z m43 3
c-15 -5 -18 -73 -4 -73 22 0 58 19 82 43 l26 26 64 -23 c45 -16 65 -29 67 -42
7 -49 14 -65 38 -94 34 -40 94 -70 139 -70 28 0 35 -4 35 -20 0 -30 22 -72 53
-104 27 -26 29 -32 19 -62 -5 -19 -7 -34 -2 -34 4 0 13 20 19 44 13 51 14 62
5 53 -3 -3 -17 7 -30 22 -27 33 -49 111 -30 111 6 0 28 14 49 31 l37 30 0 -69
0 -69 58 5 c63 5 82 15 82 44 0 10 5 16 10 13 15 -9 12 -41 -5 -58 -8 -8 -11
-18 -7 -21 3 -4 0 -5 -8 -1 -20 7 -68 -39 -76 -73 -3 -15 -9 -38 -14 -52 -5
-14 -25 -86 -45 -160 -20 -74 -41 -145 -46 -158 -5 -13 -9 -31 -9 -41 0 -9 -6
-25 -13 -35 -11 -15 -16 -15 -43 -4 l-30 13 43 155 c23 85 45 169 48 185 13
71 -26 -47 -65 -195 -40 -155 -50 -169 -69 -95 -15 58 -71 116 -130 134 -36
10 -52 10 -90 0 -52 -15 -131 -86 -131 -119 0 -13 -7 -20 -20 -20 -18 0 -20
-7 -20 -61 0 -56 2 -60 20 -54 24 8 26 -7 4 -26 -9 -7 -20 -22 -25 -34 -4 -11
-8 201 -8 473 0 459 1 492 17 491 10 0 12 -3 5 -6z m455 -65 c3 -15 -4 -18
-32 -18 -30 0 -36 4 -36 21 0 17 5 20 32 17 22 -2 34 -9 36 -20z m692 -20 c18
-40 18 -43 2 -50 -14 -6 -15 -7 -1 -7 9 -1 22 -12 29 -26 20 -37 3 -50 -47
-35 -45 14 -91 4 -149 -31 -55 -33 -156 -19 -168 24 -8 32 -8 35 12 40 13 4
12 5 -5 6 -13 1 -30 15 -43 36 -12 19 -27 35 -33 35 -7 0 -8 3 -1 10 5 5 81
14 169 20 87 6 161 13 164 15 2 3 15 5 28 5 19 0 28 -10 43 -42z m3804 27
c-25 -19 -44 -19 -44 0 0 10 10 15 32 15 30 0 31 -1 12 -15z m47 -46 c-16 -13
-37 -19 -70 -18 l-46 2 54 6 c34 4 58 13 65 23 6 10 13 15 16 12 3 -3 -6 -14
-19 -25z m-4273 -5 c30 -24 62 -76 62 -103 0 -5 -14 -6 -34 -1 -21 5 -39 3
-45 -3 -16 -16 -24 -1 -11 22 20 38 -3 61 -60 61 -28 0 -50 3 -50 8 1 18 18
31 50 35 19 2 39 5 44 5 5 1 25 -10 44 -24z m3621 -8 c9 -10 8 -16 -3 -25 -12
-10 -17 -8 -25 7 -16 30 6 44 28 18z m1084 -13 c12 -11 -14 -33 -39 -33 -17 0
-24 6 -24 20 0 15 7 20 28 20 16 0 32 -3 35 -7z m53 -58 c4 -75 -15 -95 -91
-95 -71 0 -71 16 0 23 30 3 59 8 65 12 13 8 13 62 0 67 -7 2 -6 13 2 30 7 15
14 25 16 23 3 -2 6 -29 8 -60z m-688 13 c-2 -5 -35 -11 -73 -13 l-70 -4 55 29
c51 26 56 27 73 12 10 -8 16 -19 15 -24z m532 -25 c-1 -64 -2 -67 -15 -43 -8
14 -14 35 -15 48 0 23 16 62 25 62 3 0 5 -30 5 -67z m-4660 23 c0 -8 -13 -16
-30 -18 -24 -4 -30 -1 -30 14 0 13 8 18 30 18 19 0 30 -5 30 -14z m3894 -88
c8 -75 -5 -88 -85 -88 -38 0 -58 4 -54 10 3 6 28 10 54 10 26 0 52 5 59 12 15
15 16 54 2 63 -7 4 -7 13 0 26 6 11 8 25 4 32 -5 8 -4 9 3 2 6 -5 13 -36 17
-67z m872 61 c8 -14 -14 -29 -43 -29 -16 0 -23 6 -23 20 0 15 7 20 29 20 17 0
33 -5 37 -11z m-1026 -66 c-1 -68 -1 -68 -17 -39 -12 24 -13 36 -4 68 7 21 14
38 16 38 3 0 5 -30 5 -67z m100 52 c0 -10 -10 -15 -30 -15 -20 0 -30 5 -30 15
0 10 10 15 30 15 20 0 30 -5 30 -15z m-3846 -14 c17 -7 17 -8 2 -24 -27 -26
-56 -22 -56 8 0 26 16 31 54 16z m3567 -17 c27 -9 49 -21 49 -28 0 -6 11 -34
24 -62 31 -66 79 -103 144 -111 48 -5 50 -7 62 -47 6 -22 25 -58 42 -79 20
-26 28 -46 25 -60 -5 -22 -37 -141 -63 -232 -8 -27 -17 -61 -20 -74 -3 -13 -9
-32 -14 -41 -5 -10 -7 -20 -4 -23 8 -7 -15 -47 -26 -47 -6 0 -10 11 -10 24 0
37 -18 78 -48 109 -87 91 -235 72 -292 -37 -24 -44 -57 -66 -66 -43 -2 7 -3
167 -2 357 l3 345 26 3 c14 2 41 16 60 32 40 34 45 35 110 14z m1453 -12 c23
-14 72 -81 63 -88 -1 0 -22 -4 -47 -8 -36 -6 -43 -5 -32 5 6 7 12 23 12 35 0
29 -14 37 -74 44 -48 5 -49 6 -32 23 21 21 61 16 110 -11z m-4549 -2 c0 -11
-14 -16 -52 -18 l-53 -3 0 -82 0 -83 63 3 c57 4 63 2 80 -21 17 -25 17 -25
-12 -41 -99 -51 -222 33 -206 140 8 50 27 80 68 106 38 23 112 23 112 -1z
m3373 -22 c3 -14 -3 -18 -27 -18 -25 0 -31 4 -31 21 0 16 5 20 27 17 17 -2 29
-10 31 -20z m733 -13 c12 -19 25 -35 31 -35 5 0 7 -4 4 -9 -5 -8 -106 -19
-226 -26 -25 -1 -80 -6 -122 -10 -52 -5 -78 -4 -78 3 0 5 -14 25 -31 43 l-32
34 104 7 c116 8 310 24 322 27 4 0 17 -15 28 -34z m-3899 18 c-6 -2 -10 -9 -6
-14 3 -5 -4 -9 -15 -9 -12 0 -24 0 -28 -1 -5 0 -9 7 -11 15 -3 12 5 16 35 15
21 0 32 -3 25 -6z m58 -17 c0 -16 -24 -38 -32 -30 -8 7 15 53 24 48 5 -3 8
-11 8 -18z m-150 -48 c0 -45 -3 -59 -10 -48 -15 24 -10 110 6 110 2 0 4 -28 4
-62z m4355 -100 c59 4 90 28 77 61 -5 14 -4 14 11 2 22 -18 21 -37 -2 -60 -11
-11 -15 -21 -10 -23 6 -2 7 -11 4 -19 -4 -12 -26 -18 -73 -23 l-67 -7 -36 40
c-32 35 -42 41 -78 41 -36 0 -41 3 -41 23 0 19 8 25 49 36 29 7 60 24 77 42
l29 30 3 -73 3 -73 54 3z m-4485 112 c0 -15 -7 -20 -25 -20 -18 0 -25 5 -25
20 0 15 7 20 25 20 18 0 25 -5 25 -20z m3620 -1 c42 -25 69 -57 70 -82 0 -14
-5 -17 -20 -12 -11 4 -20 2 -20 -4 0 -6 -7 -11 -15 -11 -18 0 -19 4 -3 30 21
34 -1 55 -61 58 -28 2 -51 5 -51 7 0 39 47 46 100 14z m908 9 c-7 -20 -68 -23
-68 -4 0 12 10 16 36 16 24 0 34 -4 32 -12z m-4298 -28 c0 -12 -33 -30 -54
-30 -9 0 -16 9 -16 20 0 16 7 20 35 20 19 0 35 -4 35 -10z m50 -25 c0 -14 -8
-29 -19 -35 -25 -13 -121 -13 -121 0 0 6 25 10 55 10 49 0 57 3 64 23 5 12 6
26 3 31 -3 5 0 6 6 2 7 -4 12 -18 12 -31z m1328 13 c3 -14 -3 -18 -27 -18 -25
0 -31 4 -31 21 0 16 5 20 27 17 17 -2 29 -10 31 -20z m53 -26 c-7 -14 -8 -23
-1 -27 14 -9 13 -48 -2 -63 -7 -7 -38 -11 -77 -11 l-66 2 58 6 c57 6 77 19 77
52 0 8 -5 20 -12 27 -8 8 -8 15 1 26 7 8 9 21 5 28 -4 7 1 6 11 -3 13 -13 15
-21 6 -37z m2563 18 c24 -9 26 -14 26 -79 0 -62 -2 -70 -21 -76 -16 -5 -28 1
-49 27 l-28 33 40 7 c63 11 59 19 -7 17 -33 -1 -73 4 -88 10 -47 18 -118 13
-162 -12 -30 -16 -56 -22 -100 -22 -33 1 -66 4 -73 9 -13 8 -17 56 -4 57 399
39 434 41 466 29z m-2715 -47 c0 -41 -2 -45 -11 -26 -10 20 -4 73 7 73 3 0 5
-21 4 -47z m1998 -28 l-5 -75 43 0 c66 0 95 14 95 47 0 19 3 24 11 16 16 -16
7 -56 -16 -68 -53 -26 -76 -54 -91 -112 -23 -88 -39 -146 -80 -288 -20 -71
-37 -135 -37 -140 0 -8 -10 -8 -32 -1 -25 8 -31 14 -24 26 5 8 36 117 69 242
l60 226 -29 31 c-16 18 -33 45 -36 62 -6 27 -2 36 32 68 21 21 40 39 42 40 2
0 1 -33 -2 -74z m1016 69 c13 -14 -7 -34 -34 -34 -22 0 -29 5 -29 20 0 15 7
20 28 20 16 0 31 -3 35 -6z m-4507 -15 c8 -14 -14 -29 -43 -29 -16 0 -23 6
-23 20 0 15 7 20 29 20 17 0 33 -5 37 -11z m3589 -9 c0 -10 -12 -16 -32 -18
-28 -3 -33 0 -33 18 0 18 5 21 33 18 20 -2 32 -8 32 -18z m1389 -14 c69 -29
96 -107 61 -176 -16 -32 -61 -60 -95 -60 -11 0 -20 -2 -20 -5 0 -2 -26 -96
-59 -207 -32 -112 -66 -229 -75 -260 -13 -46 -21 -58 -36 -58 -11 0 -20 1 -20
3 0 3 69 267 110 421 28 106 30 120 16 128 -25 14 -46 63 -46 106 0 46 29 88
74 108 40 17 49 17 90 0z m-4254 -31 c0 -28 -17 -42 -33 -26 -8 8 -8 11 1 11
7 0 12 12 12 26 0 14 4 23 10 19 6 -3 10 -17 10 -30z m876 24 c9 -15 -14 -29
-48 -29 -21 0 -28 5 -28 20 0 16 7 20 34 20 19 0 38 -5 42 -11z m-2125 -353
c-17 -17 -44 -39 -60 -49 l-30 -17 11 32 c5 18 14 49 18 68 5 19 23 85 40 145
17 61 34 126 38 145 4 21 8 -30 10 -129 l3 -165 -30 -30z m1199 340 c0 -15
-21 -26 -51 -26 -12 0 -19 7 -19 20 0 16 7 20 35 20 23 0 35 -5 35 -14z m-101
-58 c0 -55 -2 -59 -11 -35 -9 25 -4 97 7 97 3 0 5 -28 4 -62z m3736 44 c11 -8
45 -58 45 -67 0 -3 -22 -5 -50 -5 l-50 0 0 34 c0 32 5 38 40 45 3 0 10 -3 15
-7z m-3919 -24 c60 -20 64 -24 64 -52 1 -69 100 -155 178 -156 25 0 32 -4 32
-19 0 -10 6 -33 14 -51 11 -28 11 -42 -7 -109 -23 -89 -28 -97 -67 -103 -25
-4 -38 5 -92 61 -35 36 -100 107 -143 156 -44 50 -89 99 -101 110 -12 11 -38
39 -58 62 l-38 42 45 12 c26 6 57 23 73 40 15 16 30 29 32 29 2 0 33 -10 68
-22z m3204 14 c0 -15 -24 -32 -47 -32 -16 0 -23 6 -23 20 0 16 7 20 35 20 19
0 35 -4 35 -8z m-3865 -211 l-130 -126 -59 5 -60 5 159 152 160 152 30 -31 30
-30 -130 -127z m936 178 c27 -14 14 -29 -27 -29 -27 0 -34 4 -34 20 0 22 28
27 61 9z m726 -6 c4 -10 18 -29 32 -43 l25 -25 -74 -7 c-141 -14 -315 -26
-322 -22 -9 5 -31 74 -26 79 2 3 76 9 163 15 87 6 161 13 164 15 10 11 32 4
38 -12z m396 10 c-7 -2 -21 -2 -30 0 -10 3 -4 5 12 5 17 0 24 -2 18 -5z
m-1069 -63 c-25 -24 -134 -33 -134 -10 0 6 25 10 56 10 53 0 56 2 67 30 11 29
12 30 21 10 7 -16 5 -25 -10 -40z m3319 53 c-13 -2 -35 -2 -50 0 -16 2 -5 4
22 4 28 0 40 -2 28 -4z m-3907 -23 c22 -9 424 -442 424 -458 0 -5 -13 -20 -28
-34 l-28 -25 -215 234 c-252 276 -246 268 -229 288 12 15 23 14 76 -5z m1737
-19 c25 -37 25 -39 5 -33 -19 5 -20 2 -14 -32 11 -55 -12 -76 -81 -76 -29 0
-53 5 -53 10 0 6 22 10 49 10 40 0 53 4 65 22 14 19 14 25 1 44 -10 16 -11 25
-4 30 6 3 9 19 7 35 -3 16 -4 29 -3 29 1 0 14 -18 28 -39z m2237 -17 c0 -8 5
-14 10 -14 16 0 12 -66 -5 -80 -8 -6 -13 -17 -12 -23 1 -7 -8 -11 -23 -9 -19
2 -22 1 -10 -7 26 -17 -38 -35 -81 -22 -74 22 -106 95 -72 160 32 61 43 51 43
-38 l0 -81 46 0 c61 0 84 14 84 50 0 17 -5 30 -12 30 -9 0 -9 3 0 12 13 13 16
49 5 64 -5 5 0 1 10 -9 9 -11 17 -25 17 -33z m698 14 c3 -26 1 -26 -60 -32
-161 -15 -458 -36 -500 -36 -44 0 -48 2 -48 25 0 14 6 25 13 26 6 0 120 11
252 24 132 12 263 22 290 21 46 -1 50 -3 53 -28z m-3801 2 c1 -11 0 -20 -1
-20 -2 0 -11 9 -21 20 -18 19 -17 20 1 20 13 0 20 -7 21 -20z m703 -44 l0 -55
-67 -32 c-38 -17 -89 -43 -115 -56 -27 -13 -48 -19 -48 -14 0 5 48 33 108 62
64 32 100 54 90 57 -25 5 -22 38 5 67 12 13 23 24 25 24 1 1 2 -24 2 -53z
m110 46 c0 -15 -24 -32 -47 -32 -16 0 -23 6 -23 20 0 16 7 20 35 20 19 0 35
-4 35 -8z m2235 -12 c0 -10 -12 -16 -32 -18 -28 -3 -33 0 -33 18 0 18 5 21 33
18 20 -2 32 -8 32 -18z m-4090 -14 c17 0 39 3 51 7 17 6 34 -6 91 -65 39 -40
88 -93 109 -118 21 -25 68 -76 105 -115 115 -120 170 -188 164 -203 -13 -35
-16 -92 -6 -127 l11 -39 -222 -216 c-122 -118 -229 -214 -237 -214 -75 6 -76
6 -81 75 -3 35 -8 69 -12 75 -4 6 -1 35 7 65 17 64 19 182 4 230 -36 116 -95
195 -197 269 -23 17 -47 41 -51 53 -10 25 -42 61 -68 76 -16 9 -1 27 107 136
123 124 126 126 160 119 19 -4 49 -8 65 -8z m908 -3 c-13 -2 -33 -2 -45 0 -13
2 -3 4 22 4 25 0 35 -2 23 -4z m155 -28 c-3 -3 -9 2 -12 12 -6 14 -5 15 5 6 7
-7 10 -15 7 -18z m622 -3 c0 -16 -14 -20 -94 -30 -52 -7 -140 -12 -196 -12
-56 0 -109 -4 -118 -9 -9 -4 -59 -11 -109 -14 -85 -5 -93 -4 -93 12 0 16 23
20 213 36 116 10 246 18 287 17 41 -1 82 3 90 8 20 13 20 13 20 -8z m163 2
c13 -14 -7 -34 -34 -34 -22 0 -29 5 -29 20 0 15 7 20 28 20 16 0 31 -3 35 -6z
m3017 -39 c19 -22 20 -25 4 -12 -30 25 -41 21 -16 -6 18 -19 21 -29 13 -53 -5
-16 -35 -123 -67 -239 -32 -117 -64 -216 -72 -222 -36 -29 -67 -16 -133 59
-35 40 -77 86 -94 103 -16 17 -66 71 -110 120 -44 50 -91 102 -105 116 -74 76
-74 76 -57 102 13 20 28 25 121 36 59 6 110 10 114 7 4 -3 55 1 112 8 58 8
136 14 174 15 38 1 72 3 75 6 2 3 7 2 10 -2 4 -5 17 -21 31 -38z m-3885 4 c0
-15 -7 -25 -18 -27 -16 -3 -17 -1 -7 17 6 12 8 26 4 33 -4 6 -1 9 7 6 8 -3 14
-15 14 -29z m3113 14 c-2 -12 -14 -19 -36 -21 -27 -3 -32 0 -32 17 0 17 6 21
36 21 28 0 35 -3 32 -17z m-3213 -123 c59 0 85 16 85 53 0 15 3 18 11 10 36
-36 -48 -112 -110 -98 -39 8 -73 47 -80 92 -5 31 -3 41 14 55 20 16 20 15 23
-48 l3 -64 54 0z m49 115 c-4 -9 -19 -15 -35 -15 -19 0 -29 5 -29 15 0 10 11
15 35 15 26 0 33 -3 29 -15z m1282 -111 c-6 -86 -6 -86 16 -80 13 3 42 6 65 6
53 0 74 27 49 65 -10 15 -12 26 -6 30 6 3 10 16 10 28 0 15 3 18 11 10 14 -14
13 -121 -2 -139 -6 -8 -22 -14 -36 -14 -14 0 -21 -4 -18 -10 4 -6 -7 -10 -25
-10 -18 0 -29 4 -25 10 3 6 -5 10 -19 10 -52 0 -72 76 -38 144 9 20 19 36 21
36 2 0 1 -39 -3 -86z m-1283 59 c12 -11 -14 -33 -39 -33 -17 0 -24 6 -24 20 0
15 7 20 28 20 16 0 32 -3 35 -7z m1385 -20 c2 -9 -8 -13 -32 -13 -26 0 -36 4
-36 16 0 19 61 16 68 -3z m-3180 -20 c-10 -2 -28 -2 -40 0 -13 2 -5 4 17 4 22
1 32 -1 23 -4z m4448 -268 c-2 -7 -27 -28 -55 -48 -49 -35 -50 -36 -41 -11 6
14 20 60 31 102 11 43 25 93 31 112 5 19 15 55 21 80 11 42 12 36 15 -89 1
-74 1 -140 -2 -146z m234 100 l-130 -130 -48 3 -48 4 100 96 c56 54 126 121
156 149 l55 52 23 -22 23 -21 -131 -131z m402 156 c7 -10 107 -120 222 -245
l209 -228 -25 -24 -24 -25 -204 223 c-112 123 -215 235 -228 250 -25 27 -25
28 -7 48 23 25 40 25 57 1z m792 -56 l25 -68 -24 23 -25 23 0 -313 0 -314 50
49 c28 27 50 47 50 45 0 -3 -5 -21 -11 -40 -6 -19 -15 -51 -19 -70 -5 -19 -22
-84 -39 -145 -17 -60 -31 -129 -31 -152 0 -24 -4 -43 -10 -43 -7 0 -10 174
-10 503 0 444 4 586 16 574 2 -2 15 -34 28 -72z m-5966 -62 l-4 -38 -13 30
c-10 25 -10 37 0 70 l13 40 4 -32 c2 -18 2 -50 0 -70z m105 90 c12 -11 -14
-33 -39 -33 -17 0 -24 6 -24 20 0 15 7 20 28 20 16 0 32 -3 35 -7z m57 -17 c0
-16 -24 -38 -32 -30 -8 7 15 53 24 48 5 -3 8 -11 8 -18z m2179 15 c21 -13 4
-31 -30 -31 -22 0 -29 5 -29 20 0 21 33 28 59 11z m61 -60 c0 -65 -13 -84 -68
-96 -44 -9 -89 10 -107 46 -18 35 -18 57 0 89 13 24 14 21 15 -42 l0 -68 51 0
c28 0 59 5 70 10 20 11 26 54 10 64 -5 4 -5 18 2 35 16 43 27 28 27 -38z m690
60 c0 -10 -48 -16 -254 -31 -134 -10 -184 -8 -115 5 29 5 275 29 347 34 12 0
22 -3 22 -8z m180 -5 c0 -8 -14 -15 -35 -18 -29 -3 -35 -1 -35 14 0 14 8 18
35 18 23 0 35 -5 35 -14z m1754 -19 l68 1 62 -65 c33 -36 64 -71 68 -78 4 -7
8 -194 8 -415 1 -456 11 -402 -93 -493 -32 -28 -62 -46 -65 -41 -4 5 -15 9
-24 10 -60 3 -60 2 -53 35 4 17 1 51 -5 75 -10 35 -10 54 -1 85 28 92 12 251
-35 340 -34 67 -127 159 -180 179 -14 6 -24 18 -24 29 0 10 -19 37 -42 60
l-42 42 125 125 c100 100 127 123 144 117 11 -3 51 -6 89 -6z m-2527 -29 c-3
-8 -6 -5 -6 6 -1 11 2 17 5 13 3 -3 4 -12 1 -19z m-757 -18 c0 -3 -8 -32 -18
-65 -14 -47 -23 -60 -38 -60 -22 0 -22 19 2 101 14 49 17 52 35 41 10 -6 19
-14 19 -17z m-2510 -22 c0 -18 -18 -34 -27 -24 -3 3 -1 12 6 19 6 8 9 23 5 33
-5 16 -4 16 5 4 6 -8 11 -23 11 -32z m-152 -75 c-4 -37 -4 -37 -12 -10 -5 15
-4 49 0 75 l8 47 4 -37 c2 -21 2 -55 0 -75z m1022 87 c-6 -12 -21 -20 -35 -20
-18 0 -25 5 -25 20 0 16 7 20 35 20 33 0 35 -2 25 -20z m60 -9 c0 -39 -70 -71
-125 -57 -43 11 -27 26 28 26 56 0 77 12 77 43 0 10 5 15 10 12 6 -3 10 -14
10 -24z m2185 9 c0 -10 -12 -16 -32 -18 -28 -3 -33 0 -33 18 0 18 5 21 33 18
20 -2 32 -8 32 -18z m-3165 -5 c0 -10 -10 -15 -30 -15 -20 0 -30 5 -30 15 0
10 10 15 30 15 20 0 30 -5 30 -15z m3856 -27 c22 -24 48 -53 58 -65 19 -23 19
-23 -1 -23 -11 0 -43 26 -77 65 -43 49 -53 65 -39 65 10 0 37 -19 59 -42z
m-3471 12 c-3 -5 -12 -10 -18 -10 -7 0 -6 4 3 10 19 12 23 12 15 0z m68 3 c-7
-2 -21 -2 -30 0 -10 3 -4 5 12 5 17 0 24 -2 18 -5z m-453 -53 c0 -16 -7 -20
-30 -20 -23 0 -30 4 -30 20 0 16 7 20 30 20 23 0 30 -4 30 -20z m55 -30 c-4
-11 -18 -25 -32 -31 -32 -12 -113 -12 -113 1 0 6 21 10 46 10 56 0 84 14 84
42 0 16 3 19 11 11 6 -6 8 -21 4 -33z m582 34 c-3 -3 -12 -4 -19 -1 -8 3 -5 6
6 6 11 1 17 -2 13 -5z m746 -1 c12 -11 -14 -33 -39 -33 -17 0 -24 6 -24 20 0
15 7 20 28 20 16 0 32 -3 35 -7z m54 -60 c0 -32 -4 -63 -9 -70 -14 -17 -88
-26 -118 -14 -23 9 -21 10 17 10 66 1 93 16 93 50 0 16 -5 31 -10 33 -7 2 -6
13 2 30 18 38 25 27 25 -39z m-152 -20 c-7 -35 -8 -36 -17 -16 -13 28 -2 81
14 65 6 -6 8 -25 3 -49z m2095 -83 c62 -69 131 -145 154 -170 23 -25 73 -78
110 -118 65 -70 67 -74 51 -92 -17 -19 -18 -19 -38 8 -11 15 -48 56 -81 92
-34 36 -84 90 -111 120 -28 30 -94 103 -148 161 -91 100 -96 108 -81 124 9 9
20 13 24 8 4 -4 58 -64 120 -133z m-1735 29 c20 -23 51 -71 69 -108 28 -60 31
-75 31 -161 0 -52 -4 -108 -8 -124 l-8 -29 -22 20 c-30 28 -55 40 -102 47
l-41 7 -51 136 -51 136 29 37 c21 25 31 52 36 88 l6 52 37 -30 c20 -16 54 -48
75 -71z m1353 81 c-1 -5 -81 -88 -176 -184 -133 -133 -181 -175 -205 -180 -27
-5 -4 21 163 184 171 166 230 215 218 180z m3251 -190 c79 -89 101 -119 96
-135 -15 -49 -17 -97 -5 -126 l13 -31 -146 -146 -147 -147 0 395 0 394 44 -44
c24 -25 89 -97 145 -160z m-5616 183 c-7 -2 -21 -2 -30 0 -10 3 -4 5 12 5 17
0 24 -2 18 -5z m-120 -70 c8 -78 -6 -93 -85 -93 -32 0 -58 4 -58 10 0 6 24 10
53 10 29 0 58 5 65 12 15 15 16 54 2 63 -7 4 -7 13 0 26 6 11 8 25 4 31 -4 6
-3 8 3 5 6 -4 13 -32 16 -64z m877 52 c0 -8 -9 -15 -19 -15 -11 0 -26 -3 -35
-6 -12 -4 -16 0 -16 15 0 17 6 21 35 21 24 0 35 -5 35 -15z m3586 4 c8 -14
-14 -29 -43 -29 -16 0 -23 6 -23 20 0 15 7 20 29 20 17 0 33 -5 37 -11z m54
-19 c0 -17 -17 -37 -25 -29 -2 2 -1 16 2 31 6 30 23 28 23 -2z m-4570 5 c0
-10 -10 -15 -30 -15 -20 0 -30 5 -30 15 0 10 10 15 30 15 20 0 30 -5 30 -15z
m-101 -57 c-1 -56 -2 -59 -9 -28 -8 31 -3 90 6 90 2 0 4 -28 3 -62z m6699 35
c56 -35 77 -114 46 -178 -18 -38 -46 -60 -94 -72 l-33 -9 -54 -189 c-90 -321
-91 -325 -114 -325 -30 0 -33 23 -10 99 12 39 29 101 40 139 10 37 28 101 41
142 40 138 48 172 43 190 -4 15 4 18 53 22 60 5 91 28 78 58 -4 8 -6 34 -5 58
2 40 0 43 -29 48 -21 5 -30 12 -30 26 0 15 5 18 23 13 12 -4 32 -14 45 -22z
m-4548 13 c0 -25 -16 -36 -56 -36 -41 0 -44 -2 -44 -27 0 -16 -3 -52 -6 -80
l-7 -53 33 0 c27 0 31 -3 25 -17 -4 -10 -10 -26 -12 -35 -7 -22 -17 -22 -53
-2 -82 49 -80 184 3 234 27 17 117 29 117 16z m702 -1 c3 -3 -38 -47 -90 -99
-87 -85 -122 -106 -122 -72 0 14 148 161 170 169 20 7 36 8 42 2z m1657 -42
c0 -41 -2 -45 -11 -26 -10 20 -4 73 7 73 3 0 5 -21 4 -47z m-1583 -35 c28 -29
82 -89 121 -133 39 -44 95 -105 124 -135 28 -30 67 -74 86 -97 35 -42 35 -43
22 -92 -10 -39 -10 -59 -1 -88 l12 -38 -85 -84 -84 -85 -53 55 c-30 29 -87 92
-128 138 -41 47 -97 108 -124 135 -27 28 -64 70 -83 93 -35 42 -35 43 -22 92
10 39 10 59 1 88 l-12 38 82 82 c46 46 85 83 88 83 3 0 28 -24 56 -52z m-2821
22 c0 -10 -12 -16 -32 -18 -28 -3 -33 0 -33 18 0 18 5 21 33 18 20 -2 32 -8
32 -18z m4508 0 c-4 -14 -14 -20 -34 -20 -22 0 -29 5 -29 20 0 16 7 20 34 20
29 0 33 -3 29 -20z m57 -14 c0 -36 -19 -46 -84 -45 l-61 2 54 6 c55 7 87 31
76 59 -2 7 0 10 5 7 6 -3 10 -16 10 -29z m-975 15 c6 -11 -26 -31 -49 -31 -9
0 -16 9 -16 20 0 15 7 20 29 20 17 0 32 -4 36 -9z m55 -15 c0 -16 -24 -38 -32
-30 -8 7 15 53 24 48 5 -3 8 -11 8 -18z m2905 -6 c0 -10 -12 -16 -32 -18 -32
-3 -45 13 -26 32 13 12 58 2 58 -14z m-4527 -7 c-2 -10 -13 -19 -26 -21 -17
-3 -22 2 -22 17 0 16 6 21 26 21 19 0 25 -5 22 -17z m1471 -21 c0 -15 -4 -36
-8 -47 -7 -18 -9 -16 -15 12 -8 36 1 76 15 68 5 -4 9 -18 8 -33z m94 -8 c13
-14 -7 -34 -34 -34 -22 0 -29 5 -29 20 0 15 7 20 28 20 16 0 31 -3 35 -6z m57
-31 c0 -35 -31 -53 -92 -53 -32 0 -58 4 -58 10 0 6 24 10 53 10 56 0 77 12 77
43 0 10 5 15 10 12 6 -3 10 -13 10 -22z m1378 -40 c1 -77 -14 -93 -85 -93 -29
0 -53 5 -53 10 0 6 20 10 45 10 51 0 92 29 80 58 -8 19 -9 27 -7 60 4 47 19
10 20 -45z m-3008 53 c0 -2 -3 -11 -6 -20 -9 -23 -34 -20 -34 4 0 13 7 20 20
20 11 0 20 -2 20 -4z m2958 -8 c-7 -20 -68 -23 -68 -4 0 12 10 16 36 16 24 0
34 -4 32 -12z m1585 6 c14 -15 -8 -34 -39 -34 -27 0 -34 4 -34 20 0 16 7 20
33 20 19 0 36 -3 40 -6z m-1688 -71 c-7 -35 -8 -36 -16 -15 -11 29 -1 78 14
63 5 -5 6 -25 2 -48z m-3976 -415 c1 -461 -3 -608 -20 -608 -14 0 -11 971 2
1026 6 24 12 44 14 44 1 0 3 -208 4 -462z m-624 255 c99 -108 200 -219 224
-245 28 -32 40 -53 34 -59 -10 -10 -30 10 -208 206 -55 60 -123 135 -151 165
-64 68 -104 116 -104 124 0 26 49 -20 205 -191z m2279 85 c-2 -71 -65 -129
-102 -95 -10 10 -28 17 -40 17 -12 0 -22 5 -22 10 0 6 22 10 48 10 26 0 53 5
60 12 15 15 16 55 2 63 -8 5 -8 11 0 20 6 8 10 19 9 27 -5 37 3 40 23 8 14
-21 22 -49 22 -72z m2424 75 c-2 -12 -14 -19 -36 -21 -27 -3 -32 0 -32 17 0
17 6 21 36 21 28 0 35 -3 32 -17z m225 -35 c33 -33 67 -80 88 -123 32 -65 34
-76 34 -165 0 -52 -2 -107 -5 -122 l-4 -27 -22 20 c-12 11 -48 29 -80 39 l-58
18 -49 130 -49 130 25 34 c14 18 31 52 38 76 7 23 16 42 20 42 5 0 32 -24 62
-52z m-1150 27 c-1 -5 -16 -13 -32 -16 -26 -5 -31 -3 -31 13 0 16 6 19 33 16
17 -2 31 -7 30 -13z m54 -55 c2 -50 0 -61 -17 -70 -24 -13 -120 -13 -120 0 0
6 22 10 48 10 26 0 53 5 60 12 14 14 16 54 3 62 -5 4 -4 16 2 30 16 34 21 24
24 -44z m-1634 53 c4 -3 2 -12 -4 -20 -13 -15 -43 -18 -34 -3 3 6 2 10 -4 10
-5 0 -12 -6 -14 -12 -3 -7 -6 -3 -6 10 -1 18 4 22 27 22 16 0 32 -3 35 -7z
m-2503 -553 c0 -353 -3 -540 -10 -540 -7 0 -10 187 -10 540 0 353 3 540 10
540 7 0 10 -187 10 -540z m3985 482 c-6 -24 -8 -25 -17 -9 -5 10 -7 30 -3 45
6 24 8 25 17 9 5 -10 7 -30 3 -45z m-2280 -231 c-126 -124 -231 -226 -232
-227 -1 0 2 -14 9 -30 16 -44 2 -100 -36 -142 -30 -32 -40 -36 -93 -40 -58 -4
-62 -3 -101 33 -45 40 -59 81 -48 140 5 25 14 39 31 45 12 5 37 23 54 39 35
34 48 36 103 17 21 -8 35 -10 33 -6 -3 5 97 107 222 229 l226 220 31 -26 31
-26 -230 -226z m-1584 242 l24 -28 -26 23 c-14 12 -29 19 -34 15 -4 -5 -5 -2
-1 5 9 16 9 16 37 -15z m5997 20 c-15 -2 -42 -2 -60 0 -18 2 -6 4 27 4 33 0
48 -2 33 -4z m-2040 -13 c6 0 12 -6 12 -14 0 -8 -14 -15 -35 -18 -31 -4 -35
-2 -35 20 0 20 4 23 23 18 12 -3 28 -6 35 -6z m-1584 -6 c35 -13 11 -44 -35
-44 -14 0 -19 7 -19 25 0 26 19 32 54 19z m3536 -77 l0 -72 60 3 c66 4 90 24
71 60 -5 10 -6 32 -1 52 7 32 9 33 15 13 4 -13 11 -23 16 -23 5 0 9 -17 9 -38
0 -37 -28 -82 -51 -82 -6 0 -8 -4 -5 -9 13 -21 -70 -29 -107 -10 -55 28 -76
111 -41 164 25 38 34 21 34 -58z m100 49 c0 -15 -21 -26 -51 -26 -12 0 -19 7
-19 20 0 16 7 20 35 20 23 0 35 -5 35 -14z m-4165 -17 c-4 -5 -13 -9 -22 -9
-13 0 -13 3 -3 15 13 15 35 11 25 -6z m421 -5 c-22 -16 -36 -18 -36 -6 0 11
43 32 50 25 3 -3 -4 -11 -14 -19z m-77 -44 c209 -34 357 -223 337 -430 -12
-135 -109 -269 -236 -328 -47 -22 -69 -26 -155 -26 -137 -1 -194 22 -284 113
-87 88 -116 159 -115 281 0 61 6 100 21 138 51 129 173 229 305 251 29 5 55 9
58 10 3 0 34 -4 69 -9z m3824 3 c13 -12 -15 -33 -44 -33 -22 0 -29 5 -29 20 0
16 7 20 33 20 19 0 37 -3 40 -7z m-3328 -230 c109 -120 206 -225 216 -234 18
-16 18 -17 0 -33 -10 -9 -22 -16 -28 -16 -9 0 -114 112 -340 365 -85 95 -90
103 -75 119 9 9 19 16 23 16 4 0 96 -98 204 -217z m1609 -53 c166 -182 212
-237 204 -248 -6 -7 -14 -9 -18 -5 -4 4 -101 112 -216 238 -245 270 -238 261
-229 276 9 14 -9 31 259 -261z m566 -270 c0 -353 -3 -540 -10 -540 -7 0 -10
176 -10 509 0 453 3 571 16 571 2 0 4 -243 4 -540z m-4739 356 l-2 -155 71
-147 70 -147 23 19 c12 10 5 0 -17 -23 l-38 -41 -52 58 -51 57 -6 -111 c-3
-61 -6 62 -7 273 -1 211 1 382 4 378 3 -3 5 -76 5 -161z m1736 158 c-3 -3 -12
-4 -19 -1 -8 3 -5 6 6 6 11 1 17 -2 13 -5z m-153 -49 c-18 -44 -18 -69 2 -110
13 -29 14 -37 1 -62 -7 -15 -15 -48 -16 -73 -2 -25 -5 -48 -7 -52 -3 -4 3 -42
12 -85 16 -79 56 -167 97 -213 32 -36 112 -100 126 -100 6 0 15 -10 20 -23 14
-35 58 -84 93 -102 37 -18 130 -20 160 -2 12 6 33 22 46 33 21 18 30 20 56 12
17 -5 46 -14 64 -19 23 -7 32 -16 32 -31 0 -39 40 -105 78 -130 20 -14 58 -28
84 -32 45 -7 48 -10 59 -47 7 -21 28 -57 46 -79 38 -44 38 -38 -3 -152 -8 -21
-12 -38 -9 -38 2 0 0 -12 -6 -27 -6 -16 -12 -35 -14 -44 -2 -9 -12 -47 -23
-85 -11 -38 -23 -81 -26 -96 -9 -41 -24 -34 -37 17 -12 46 -56 103 -97 124
-34 18 -125 16 -164 -2 -40 -19 -71 -51 -89 -94 -12 -30 -18 -33 -59 -35 -155
-7 -326 -19 -404 -29 -43 -6 -79 -9 -80 -7 -5 8 -30 64 -32 73 -1 6 -8 24 -15
41 -11 28 -10 34 13 65 14 19 28 43 32 54 12 34 24 105 16 100 -3 -2 -14 14
-24 35 -23 54 -78 96 -132 105 l-44 6 0 355 0 354 43 0 c66 0 177 12 177 19 0
6 -94 1 -227 -12 -41 -4 -43 -3 -43 24 0 15 -5 40 -11 56 -10 27 -6 32 153
185 90 86 164 157 165 158 1 0 -5 -16 -13 -35z m97 -8 l-24 -22 19 27 c10 14
21 24 23 22 3 -3 -6 -15 -18 -27z m2139 -527 c0 -473 -2 -540 -15 -540 -13 0
-15 67 -15 540 0 473 2 540 15 540 13 0 15 -67 15 -540z m-3725 480 c21 -22
37 -40 34 -40 -3 0 -23 18 -44 40 -21 22 -37 40 -34 40 3 0 23 -18 44 -40z
m5629 14 c10 -17 -13 -43 -214 -242 l-226 -222 -24 22 -24 22 230 223 c126
123 233 222 238 220 5 -2 14 -12 20 -23z m-5754 -286 l0 -117 -47 51 c-27 28
-72 76 -100 107 -52 55 -53 57 -53 116 l1 60 27 -52 27 -52 29 90 28 90 44
-88 44 -87 0 -118z m1029 210 c0 -27 -4 -58 -9 -68 -10 -19 -72 -33 -107 -24
-39 11 -25 24 25 24 26 0 53 5 60 12 15 15 16 55 1 64 -8 4 -8 9 0 17 6 6 11
20 11 32 0 44 17 -8 19 -57z m-56 47 c-1 -5 -16 -13 -32 -16 -26 -5 -31 -3
-31 13 0 16 6 19 33 16 17 -2 31 -7 30 -13z m2225 -2 c-2 -10 -13 -19 -26 -21
-17 -3 -22 2 -22 17 0 16 6 21 26 21 19 0 25 -5 22 -17z m-88 -54 c0 -61 -12
-72 -24 -23 -6 23 9 84 20 84 2 0 4 -27 4 -61z m-2233 -26 c-3 -10 -5 -4 -5
12 0 17 2 24 5 18 2 -7 2 -21 0 -30z m101 15 c3 -15 -4 -18 -32 -18 -30 0 -36
4 -36 21 0 17 5 20 32 17 22 -2 34 -9 36 -20z m-1651 -230 c-1 -46 -3 -9 -3
82 0 91 2 128 3 83 2 -46 2 -120 0 -165z m3856 222 c-3 -11 -12 -20 -19 -20
-8 0 -14 9 -14 20 0 13 7 20 19 20 14 0 18 -5 14 -20z m-2924 -194 c0 -123 -2
-146 -17 -159 -16 -15 -17 -6 -14 155 2 142 5 168 17 158 10 -8 13 -46 14
-154z m-1076 78 c8 -76 -8 -94 -84 -94 -38 0 -58 4 -54 10 3 6 28 10 54 10 26
0 52 5 59 12 15 15 16 54 2 63 -7 4 -7 13 0 26 6 11 8 25 4 32 -5 8 -4 9 3 2
6 -5 13 -33 16 -61z m3980 50 c-3 -9 -9 -11 -12 -6 -3 5 -13 12 -21 15 -9 3
-4 6 12 6 21 1 26 -3 21 -15z m-4134 -61 c0 -56 -2 -64 -10 -43 -9 23 -4 110
7 110 2 0 4 -30 3 -67z m101 52 c0 -10 -10 -15 -30 -15 -20 0 -30 5 -30 15 0
10 10 15 30 15 20 0 30 -5 30 -15z m3701 -272 c-192 -194 -228 -226 -241 -215
-13 11 19 45 215 236 145 141 234 221 241 215 6 -5 -71 -90 -215 -236z m-3717
221 c30 -12 18 -34 -18 -34 -29 0 -33 3 -29 20 5 21 19 25 47 14z m5964 -66
c0 -35 -5 -69 -10 -75 -12 -15 -128 -18 -128 -3 0 6 25 10 55 10 49 0 57 3 67
25 7 17 8 28 1 37 -12 15 -5 81 7 73 4 -3 8 -33 8 -67z m-4574 56 c24 -9 6
-34 -25 -34 -22 0 -29 5 -29 20 0 20 22 26 54 14z m62 -64 c3 -52 1 -61 -18
-75 -25 -17 -113 -21 -123 -5 -4 6 12 10 40 10 62 0 85 14 85 50 0 17 -5 30
-12 30 -9 0 -9 3 0 12 7 7 12 21 12 32 0 45 14 1 16 -54z m4464 55 c0 -18 -48
-31 -62 -17 -16 16 0 32 33 32 19 0 29 -5 29 -15z m-1900 -21 c0 -2 -12 -4
-26 -4 -14 0 -23 4 -20 9 6 8 46 4 46 -5z m-2723 -61 c-2 -16 -4 -5 -4 22 0
28 2 40 4 28 2 -13 2 -35 0 -50z m4601 31 c30 -9 28 -30 -4 -38 -31 -8 -49 5
-41 28 7 18 11 19 45 10z m-4493 -24 c0 -10 -12 -16 -32 -18 -28 -3 -33 0 -33
18 0 18 5 21 33 18 20 -2 32 -8 32 -18z m2862 -222 c-1 -46 -3 -9 -3 82 0 91
2 128 3 83 2 -46 2 -120 0 -165z m-2427 205 c0 -42 46 -110 94 -138 89 -52
199 -21 247 69 13 25 27 46 31 46 3 0 14 3 22 6 15 6 16 -28 14 -352 l-3 -359
-25 -3 c-14 -2 -42 -17 -62 -33 -43 -34 -44 -34 -108 -13 -44 14 -49 19 -61
62 -23 83 -100 142 -184 142 -18 0 -25 8 -34 45 -6 24 -25 60 -42 79 l-30 35
26 98 c14 54 30 112 35 128 5 17 14 50 21 75 6 25 16 61 22 80 5 19 11 41 13
48 6 23 24 12 24 -15z m4707 21 c-3 -3 -12 -4 -19 -1 -8 3 -5 6 6 6 11 1 17
-2 13 -5z m-6189 -300 c111 -122 202 -227 202 -234 0 -30 -44 12 -255 244
-168 183 -223 251 -213 257 15 10 0 25 266 -267z m6734 236 c77 -83 17 -210
-99 -210 -34 0 -48 6 -77 34 -24 22 -36 43 -37 62 -1 24 -3 25 -6 7 -2 -13 -8
-23 -11 -23 -19 0 -513 -40 -554 -45 l-48 -6 0 34 0 33 278 23 c152 13 290 24
305 25 21 2 33 11 44 34 13 27 17 29 34 19 15 -10 19 -24 19 -74 l0 -63 54 0
c74 0 109 36 72 73 -10 10 -11 18 -5 24 6 6 9 21 7 34 -2 18 -10 25 -30 27
-17 2 -28 9 -28 19 0 24 50 8 82 -27z m-1905 -212 c-1 -46 -3 -11 -3 77 0 88
2 125 3 83 2 -42 2 -114 0 -160z m-1114 205 c12 -11 -14 -33 -39 -33 -17 0
-24 6 -24 20 0 15 7 20 28 20 16 0 32 -3 35 -7z m52 -32 c-3 -12 -13 -21 -22
-21 -8 0 -12 5 -9 13 3 6 9 20 12 30 9 26 28 5 19 -22z m-156 -33 c0 -45 -2
-49 -10 -29 -9 22 -4 81 7 81 2 0 4 -24 3 -52z m3071 37 c0 -10 -11 -15 -35
-15 -24 0 -35 5 -35 15 0 10 11 15 35 15 24 0 35 -5 35 -15z m-911 -19 c15 -8
34 -23 42 -32 9 -11 9 -15 2 -10 -9 5 -11 2 -7 -8 3 -9 10 -14 14 -11 12 7 22
-43 14 -68 -4 -12 -14 -28 -23 -35 -12 -10 -13 -12 -1 -6 8 4 3 -5 -11 -20
-52 -54 -150 -41 -184 24 -19 37 -19 90 1 118 8 12 12 22 7 23 -17 2 73 38 95
39 13 0 35 -6 51 -14z m-2071 -12 c34 -10 26 -31 -13 -36 -31 -4 -35 -1 -35
19 0 24 9 27 48 17z m72 -32 c-1 -39 -24 -52 -91 -51 l-64 1 54 9 c61 10 81
23 81 51 0 10 5 16 10 13 6 -3 10 -14 10 -23z m1378 -47 c0 -53 -3 -67 -18
-75 -24 -13 -120 -13 -120 0 0 6 21 10 47 10 67 0 105 39 68 70 -11 9 -13 16
-5 24 5 5 10 18 10 29 0 10 4 16 9 13 5 -3 9 -35 9 -71z m757 65 c3 -5 1 -10
-4 -10 -6 0 -11 5 -11 10 0 6 2 10 4 10 3 0 8 -4 11 -10z m-807 -12 c-7 -20
-68 -23 -68 -4 0 12 10 16 36 16 24 0 34 -4 32 -12z m1585 6 c14 -15 -8 -34
-39 -34 -27 0 -34 4 -34 20 0 16 7 20 33 20 19 0 36 -3 40 -6z m-3193 -19 c0
-8 -9 -15 -20 -15 -11 0 -20 7 -20 15 0 8 9 15 20 15 11 0 20 -7 20 -15z
m1499 -42 c0 -40 -2 -44 -10 -25 -8 21 -3 72 7 72 2 0 4 -21 3 -47z m109 -15
c3 -15 -4 -18 -32 -18 -30 0 -36 4 -36 21 0 17 5 20 32 17 22 -2 34 -9 36 -20z
m-1588 -8 c0 -16 -7 -20 -30 -20 -23 0 -30 4 -30 20 0 16 7 20 30 20 23 0 30
-4 30 -20z m2025 -17 c16 -76 64 -129 138 -153 75 -24 174 26 212 106 10 22
23 34 35 34 19 0 20 -9 20 -350 l0 -349 -43 -19 c-24 -11 -53 -29 -63 -41
l-20 -21 -65 24 c-45 16 -65 28 -67 42 -8 50 -15 66 -44 99 -34 39 -85 65
-128 65 -24 0 -30 7 -49 58 -12 31 -33 67 -47 79 l-25 21 21 74 c11 40 25 91
31 113 6 22 15 51 20 65 5 14 11 34 13 45 10 53 38 135 47 135 5 0 11 -12 14
-27z m-1509 -247 c208 -226 245 -272 211 -264 -19 4 -467 494 -459 502 3 4 11
5 18 4 7 -2 110 -110 230 -242z m-1122 191 c-8 -22 -43 -22 -51 -1 -9 25 26
49 44 31 8 -7 11 -21 7 -30z m646 23 c0 -6 -26 -9 -62 -8 l-63 1 55 7 c30 4
58 7 63 8 4 1 7 -2 7 -8z m-243 -82 c-23 -3 -60 -7 -82 -7 l-40 0 60 33 60 33
22 -26 23 -26 -43 -7z m-254 -14 c13 -14 -7 -34 -34 -34 -22 0 -29 5 -29 20 0
15 7 20 28 20 16 0 31 -3 35 -6z m57 -64 c0 -65 -12 -81 -73 -95 -79 -20 -150
78 -102 141 13 17 14 13 15 -48 l0 -68 51 0 c28 0 59 5 70 10 20 11 26 54 10
64 -5 4 -5 18 2 35 16 44 27 28 27 -39z m599 53 c7 -15 5 -18 -17 -18 -73 -1
-422 -27 -454 -34 -34 -7 -38 -6 -38 11 0 11 3 17 8 14 4 -2 46 0 92 6 74 8
333 33 382 37 10 0 22 -7 27 -16z m-1110 -9 c8 -7 -74 -2 -99 6 -16 5 -2 6 35
3 33 -3 62 -7 64 -9z m-2716 -50 c12 -12 -6 -34 -29 -34 -17 0 -24 6 -24 20 0
14 7 20 23 20 13 0 26 -3 30 -6z m57 -24 c0 -20 -17 -36 -27 -26 -3 3 0 12 6
20 7 8 9 21 5 27 -4 8 -3 9 4 5 7 -4 12 -16 12 -26z m3115 10 c0 -10 -12 -16
-32 -18 -28 -3 -33 0 -33 18 0 18 5 21 33 18 20 -2 32 -8 32 -18z m691 -15
c20 -50 19 -53 -28 -58 l-43 -4 46 -1 c32 -1 49 -7 53 -18 15 -39 8 -43 -68
-42 -41 0 -80 -3 -87 -7 -7 -5 -57 -11 -111 -14 l-98 -6 0 27 c0 16 1 29 3 29
1 1 61 7 132 15 l130 13 -115 -4 c-63 -3 -125 -8 -137 -11 -17 -5 -25 -1 -30
12 -4 11 -18 30 -32 44 l-25 25 74 8 c63 6 119 11 303 26 12 0 23 -11 33 -34z
m-3957 -42 l-1 -68 -14 34 c-12 26 -13 40 -4 67 7 19 13 34 16 34 2 0 4 -30 3
-67z m3518 17 c34 -20 56 -50 68 -88 6 -20 3 -22 -27 -20 -33 3 -33 3 -33 -41
0 -32 -5 -46 -19 -55 -50 -29 -67 -53 -86 -120 -11 -39 -31 -107 -44 -151 -13
-44 -34 -118 -46 -165 -12 -47 -24 -90 -26 -97 -2 -9 -12 -9 -35 -3 -17 5 -33
11 -34 12 -1 2 26 107 61 233 35 127 63 236 64 243 0 6 -6 12 -14 12 -7 0 -21
10 -29 23 -20 31 -38 97 -26 97 5 0 27 16 49 36 l40 36 0 -71 0 -71 52 0 c72
0 112 38 73 70 -11 9 -12 16 -4 26 6 7 9 23 7 36 -3 20 -10 24 -59 28 -54 5
-56 6 -48 28 11 29 70 30 116 2z m-3419 -27 c-2 -11 -14 -19 -31 -21 -22 -3
-27 1 -27 17 0 17 6 21 31 21 24 0 30 -4 27 -17z m62 -15 c0 -7 -10 -22 -22
-35 -17 -18 -32 -23 -75 -23 -29 0 -53 5 -53 10 0 6 21 10 47 10 48 0 83 20
83 47 0 8 5 11 10 8 6 -3 10 -11 10 -17z m1323 15 c12 -11 -14 -33 -39 -33
-17 0 -24 6 -24 20 0 15 7 20 28 20 16 0 32 -3 35 -7z m55 -59 c1 -32 -3 -64
-9 -71 -14 -16 -144 -19 -134 -3 3 6 28 10 54 10 26 0 52 5 59 12 14 14 16 54
3 62 -5 4 -4 16 2 30 17 35 23 25 25 -40z m-149 8 c0 -15 -4 -36 -9 -47 -7
-18 -8 -18 -15 8 -9 32 2 80 15 72 6 -3 10 -18 9 -33z m2091 3 c0 -9 -9 -15
-25 -15 -14 0 -28 0 -32 -1 -5 0 -9 7 -11 15 -3 12 5 16 32 16 25 0 36 -4 36
-15z m-2006 -11 c30 -12 18 -34 -19 -34 -28 0 -35 4 -35 20 0 20 22 26 54 14z
m-861 -67 c8 -78 -10 -97 -88 -97 -30 0 -55 5 -55 10 0 6 21 10 46 10 25 0 54
5 65 10 20 11 26 54 10 64 -5 4 -5 18 2 36 6 16 12 28 13 27 1 -1 4 -28 7 -60z
m-154 -14 c-1 -60 -2 -64 -10 -33 -7 31 -3 100 7 100 2 0 4 -30 3 -67z m101
52 c0 -10 -10 -15 -30 -15 -20 0 -30 5 -30 15 0 10 10 15 30 15 20 0 30 -5 30
-15z m2918 -22 c-2 -12 -14 -19 -36 -21 -27 -3 -32 0 -32 17 0 17 6 21 36 21
28 0 35 -3 32 -17z m277 -3 c27 -11 -59 -11 -95 0 -20 6 -14 8 25 8 28 0 59
-3 70 -8z m-2025 -17 c32 -22 47 -41 59 -75 9 -26 8 -27 -14 -18 -15 6 -27 6
-30 0 -4 -6 -14 -10 -23 -10 -12 0 -13 3 -4 12 17 17 15 65 -4 72 -9 3 -33 6
-55 6 -37 0 -48 8 -32 23 13 13 79 7 103 -10z m2208 -5 c3 -15 -4 -18 -47 -18
l-51 0 0 -83 0 -83 58 6 c55 5 59 4 82 -25 13 -16 20 -27 16 -23 -5 4 -18 1
-30 -7 -11 -8 -42 -15 -69 -15 -44 0 -54 4 -88 39 -35 34 -39 44 -39 87 0 60
25 104 71 127 43 21 93 18 97 -5z m-3373 -18 c0 -10 -12 -16 -32 -18 -28 -3
-33 0 -33 18 0 18 5 21 33 18 20 -2 32 -8 32 -18z m715 11 c0 -5 14 -24 31
-42 l32 -34 -104 -7 c-57 -4 -153 -11 -214 -16 -105 -9 -111 -8 -128 12 -41
47 -46 56 -38 60 4 3 79 10 167 16 87 6 160 13 163 15 8 9 91 5 91 -4z m2867
-17 c0 -9 -11 -14 -29 -14 -20 0 -28 5 -28 18 0 15 6 18 28 14 16 -2 29 -10
29 -18z m52 -26 c-15 -27 -29 -12 -16 16 7 15 14 20 19 13 3 -6 2 -19 -3 -29z
m-144 -35 c-7 -35 -8 -36 -17 -16 -13 28 -2 81 14 65 6 -6 8 -25 3 -49z
m-2455 -8 l0 -55 -115 -57 c-64 -31 -118 -53 -122 -50 -8 9 -13 6 102 62 89
44 97 50 70 53 -16 2 -87 -1 -157 -8 -70 -7 -138 -10 -152 -6 -14 3 -57 0 -95
-8 -38 -8 -102 -18 -140 -22 l-71 -7 0 27 c0 14 1 26 3 26 172 20 432 37 494
33 72 -5 86 -3 120 17 21 12 42 28 46 36 14 24 17 16 17 -41z m95 35 c0 -10
-12 -16 -32 -18 -32 -3 -45 13 -26 32 13 12 58 2 58 -14z m-882 -31 c15 -11
34 -33 42 -49 14 -27 13 -28 -6 -23 -12 3 -25 0 -29 -7 -4 -7 -13 -9 -20 -5
-8 5 -9 10 -1 18 21 21 13 56 -14 63 -16 4 -25 13 -25 25 0 15 3 17 13 9 6 -5
24 -20 40 -31z m3115 24 c-2 -12 -12 -18 -28 -18 -16 0 -26 6 -28 18 -3 13 3
17 28 17 25 0 31 -4 28 -17z m-3188 -8 c0 -9 -9 -15 -25 -15 -24 0 -32 10 -18
23 12 13 43 7 43 -8z m3413 -2 c12 -11 -14 -33 -39 -33 -17 0 -24 6 -24 20 0
15 7 20 28 20 16 0 32 -3 35 -7z m57 -33 c0 -10 -10 -26 -22 -34 -25 -18 -113
-22 -123 -6 -4 6 14 10 47 10 57 0 78 12 78 43 0 10 5 15 10 12 6 -3 10 -15
10 -25z m1325 10 c0 -10 -12 -16 -32 -18 -32 -3 -45 13 -26 32 13 12 58 2 58
-14z m53 -50 c1 -72 -17 -90 -91 -90 -68 0 -58 24 11 28 57 3 81 26 63 60 -10
19 -3 75 9 67 4 -2 8 -31 8 -65z m-4873 -105 c24 0 29 -4 27 -20 -4 -23 -162
-568 -165 -570 -1 -1 -11 1 -23 4 -20 6 -19 13 52 275 l72 269 -29 24 c-16 14
-31 39 -35 59 -5 30 -2 39 27 69 l34 35 5 -73 5 -72 30 0z m985 141 c0 -22
-17 -36 -41 -36 -22 0 -29 5 -29 20 0 16 7 20 35 20 19 0 35 -2 35 -4z m50
-24 c0 -42 -17 -52 -84 -51 l-61 2 54 6 c54 7 87 31 77 58 -3 7 -1 13 4 13 6
0 10 -13 10 -28z m2188 6 c3 -15 -4 -18 -32 -18 -30 0 -36 4 -36 21 0 17 5 20
32 17 22 -2 34 -9 36 -20z m1501 0 c0 -13 -4 -32 -8 -42 -7 -18 -8 -18 -14 -2
-8 21 1 66 14 66 5 0 9 -10 8 -22z m-4689 -2 c0 -8 -7 -17 -16 -20 -23 -9 -24
-8 -24 14 0 13 7 20 20 20 11 0 20 -6 20 -14z m30 -7 c0 -5 -4 -9 -10 -9 -5 0
-10 7 -10 16 0 8 5 12 10 9 6 -3 10 -10 10 -16z m1363 -16 c-13 -2 -33 -2 -45
0 -13 2 -3 4 22 4 25 0 35 -2 23 -4z m2523 -63 c4 -76 -8 -90 -82 -90 -30 0
-54 5 -54 10 0 6 22 10 48 10 26 0 53 5 60 12 15 15 16 55 1 64 -8 4 -8 9 0
17 6 6 11 20 11 31 0 45 14 1 16 -54z m872 53 c-2 -12 -14 -19 -36 -21 -27 -3
-32 0 -32 17 0 17 6 21 36 21 28 0 35 -3 32 -17z m-3339 -12 c26 -23 43 -75
34 -110 -8 -35 -68 -91 -97 -91 -18 0 -27 -8 -34 -29 -6 -16 -8 -32 -5 -35 4
-3 -8 -6 -27 -6 -24 0 -30 3 -23 13 24 29 23 63 -2 87 -37 35 -49 81 -32 122
8 18 21 39 30 47 16 12 17 7 17 -68 l0 -81 52 0 c34 0 58 6 70 17 22 20 23 49
2 61 -11 6 -13 11 -5 16 15 9 14 49 -1 64 -19 19 -3 14 21 -7z m2416 4 c0 -5
-15 -11 -32 -13 -25 -3 -33 1 -33 13 0 12 8 16 33 13 17 -2 32 -7 32 -13z
m-3842 -30 c-7 -21 -13 -19 -13 6 0 11 4 18 10 14 5 -3 7 -12 3 -20z m3742
-42 c-7 -27 -7 -28 -17 -6 -6 12 -7 34 -3 50 7 27 7 28 17 6 6 -12 7 -34 3
-50z m-3767 40 c-5 -26 -38 -29 -38 -4 0 15 6 21 21 21 14 0 19 -5 17 -17z
m82 -13 c0 -23 -7 -33 -30 -45 l-30 -16 0 -216 0 -217 33 29 c17 16 80 76 138
133 l105 103 19 -21 c19 -21 18 -22 -137 -178 -98 -98 -158 -166 -161 -182 -2
-14 -5 110 -6 275 l-1 300 23 10 c12 6 23 20 25 33 5 33 22 27 22 -8z m1328 8
c3 -14 -3 -18 -27 -18 -25 0 -31 4 -31 21 0 16 5 20 27 17 17 -2 29 -10 31
-20z m2171 2 c12 -6 21 -8 21 -5 0 3 9 1 20 -5 11 -6 20 -20 20 -31 0 -26 32
-89 57 -111 26 -24 87 -48 121 -48 26 0 31 -5 42 -45 7 -25 16 -48 21 -51 4
-2 2 -22 -6 -44 -8 -22 -12 -40 -10 -40 2 0 -3 -16 -11 -35 -8 -19 -14 -37
-14 -40 0 -3 0 -9 0 -15 0 -5 -10 -10 -22 -10 -13 0 -29 -4 -37 -9 -10 -6 -32
11 -80 64 -36 41 -128 141 -204 224 -122 133 -135 151 -112 151 30 0 95 31
114 54 14 17 45 15 80 -4z m-556 -38 l27 -28 -128 -127 -127 -127 -53 7 -54 6
148 148 c82 82 151 149 155 149 3 0 17 -13 32 -28z m842 8 c0 -10 -12 -16 -32
-18 -28 -3 -33 0 -33 18 0 18 5 21 33 18 20 -2 32 -8 32 -18z m715 12 c0 -4
13 -22 29 -40 16 -17 26 -34 22 -37 -5 -2 -75 -9 -157 -15 -82 -5 -166 -13
-186 -16 -37 -6 -38 -6 -57 37 l-20 44 72 8 c40 4 119 11 177 16 58 4 108 9
113 10 4 0 7 -2 7 -7z m398 1 c-10 -2 -26 -2 -35 0 -10 3 -2 5 17 5 19 0 27
-2 18 -5z m-4510 -10 c-16 -2 -40 -2 -55 0 -16 2 -3 4 27 4 30 0 43 -2 28 -4z
m2840 -15 c24 -9 92 -76 237 -236 216 -237 216 -238 164 -270 -16 -10 -44 17
-226 216 -259 283 -247 268 -240 287 8 18 20 19 65 3z m-2068 -23 c0 -31 6
-30 -275 -50 -126 -8 -254 -18 -282 -21 -52 -5 -53 -5 -53 20 0 14 6 26 13 27
6 0 125 11 262 24 340 31 335 31 335 0z m-852 -70 c-1 -33 1 -59 5 -57 4 1 32
2 62 2 45 0 56 4 65 21 9 16 8 26 -5 45 -8 13 -11 24 -6 24 5 0 11 12 13 28 4
26 4 26 21 -13 22 -48 15 -83 -22 -119 -40 -38 -87 -43 -131 -14 -47 32 -61
83 -36 135 23 49 37 28 34 -52z m1025 79 c14 -15 -8 -34 -39 -34 -27 0 -34 4
-34 20 0 16 7 20 33 20 19 0 36 -3 40 -6z m2771 -10 c5 -14 4 -15 -9 -4 -17
14 -19 20 -6 20 5 0 12 -7 15 -16z m866 -21 c-1 -21 1 -47 5 -58 11 -35 -17
-58 -77 -63 -35 -3 -58 0 -62 7 -5 7 8 11 39 11 26 0 55 5 66 10 20 11 26 54
9 65 -7 4 -7 13 0 26 6 11 8 24 5 29 -3 6 -1 10 5 10 6 0 10 -16 10 -37z
m-4562 10 c-2 -12 -14 -19 -36 -21 -27 -3 -32 0 -32 17 0 17 6 21 36 21 28 0
35 -3 32 -17z m4412 -36 l0 -53 -111 -53 c-60 -29 -113 -51 -116 -48 -5 6 70
47 149 82 30 13 44 25 39 31 -19 20 -16 49 9 71 14 12 26 23 28 23 1 0 2 -24
2 -53z m100 38 c0 -10 -10 -15 -30 -15 -20 0 -30 5 -30 15 0 10 10 15 30 15
20 0 30 -5 30 -15z m-1830 -12 c60 5 69 3 85 -16 10 -12 39 -45 64 -73 177
-195 261 -286 307 -335 52 -54 54 -57 43 -89 -7 -19 -9 -58 -6 -95 l6 -62
-219 -217 c-120 -120 -222 -216 -227 -213 -4 3 -27 10 -50 16 -40 11 -42 13
-36 41 3 16 1 49 -5 73 -9 32 -8 55 1 92 16 62 14 203 -3 247 -30 81 -59 127
-111 178 -64 64 -84 80 -98 80 -6 0 -18 16 -27 35 -9 19 -32 49 -52 66 l-35
31 128 128 c114 114 131 128 149 118 11 -6 47 -8 86 -5z m-2970 -23 c30 -11
56 -20 57 -20 2 0 3 -9 3 -21 0 -11 5 -30 11 -41 9 -18 5 -27 -37 -69 -51 -52
-64 -59 -64 -34 0 8 -4 23 -9 33 -5 9 -20 45 -34 79 -23 56 -23 62 -9 77 20
20 16 20 82 -4z m4596 -43 c-23 -4 -106 -9 -186 -12 -80 -3 -196 -12 -259 -20
-93 -13 -116 -13 -123 -3 -13 21 -10 24 30 26 20 1 114 9 207 18 94 9 203 15
243 15 40 0 82 4 95 8 16 6 24 4 28 -8 5 -12 -3 -18 -35 -24z m-4311 19 c18
-13 18 -14 -3 -25 -37 -20 -62 -14 -62 14 0 19 5 25 23 25 13 0 32 -6 42 -14z
m3649 -18 c9 -17 13 -29 10 -25 -4 4 -13 2 -21 -5 -7 -6 -15 -9 -17 -7 -4 5 5
69 9 69 2 0 11 -14 19 -32z m869 26 c13 -14 -7 -34 -34 -34 -22 0 -29 5 -29
20 0 15 7 20 28 20 16 0 31 -3 35 -6z m-3822 -41 c75 -81 76 -83 56 -98 -16
-12 -23 -8 -60 33 -23 26 -52 59 -66 75 l-25 27 30 0 c22 0 40 -10 65 -37z
m2797 -44 l-4 -59 38 0 c35 0 38 -2 37 -27 0 -16 -3 -22 -6 -15 -2 6 -11 12
-19 12 -8 0 -14 5 -14 11 0 6 -6 9 -14 6 -40 -16 -74 97 -40 134 23 26 28 14
22 -62z m72 61 c0 -11 -7 -20 -15 -20 -8 0 -15 9 -15 20 0 11 7 20 15 20 8 0
15 -9 15 -20z m30 5 c0 -8 -4 -15 -10 -15 -5 0 -10 7 -10 15 0 8 5 15 10 15 6
0 10 -7 10 -15z m-3119 -57 c-51 -93 -63 -212 -33 -333 l10 -40 -66 72 c-37
39 -104 112 -149 161 l-82 88 39 43 c35 38 45 43 102 50 35 5 96 9 136 10 l72
1 -29 -52z m4482 25 c-7 -2 -21 -2 -30 0 -10 3 -4 5 12 5 17 0 24 -2 18 -5z
m76 -91 c1 -67 -6 -80 -47 -92 -59 -16 -81 -12 -113 19 -33 33 -39 91 -14 125
14 18 15 13 15 -52 l0 -72 58 0 c32 0 63 5 70 12 15 15 16 55 2 63 -8 5 -7 11
1 21 6 8 9 24 6 36 -6 21 -5 21 7 5 8 -9 14 -39 15 -65z m-1469 50 c0 -11 -8
-18 -20 -19 -14 -1 -20 4 -20 18 0 12 7 19 20 19 13 0 20 -7 20 -18z m24 3
c-4 -8 -8 -15 -10 -15 -2 0 -4 7 -4 15 0 8 4 15 10 15 5 0 7 -7 4 -15z m45
-51 c-6 -8 -23 -14 -38 -14 l-26 0 33 20 c19 12 33 29 33 42 2 18 3 17 6 -5 3
-16 -1 -35 -8 -43z m-2950 -73 c-13 -28 -20 -57 -17 -82 2 -20 0 -35 -4 -33
-5 3 -8 13 -8 23 0 9 -4 21 -10 27 -5 5 -11 29 -12 52 -1 23 -5 42 -9 42 -5 0
-7 22 -6 50 l2 50 43 -43 42 -43 -21 -43z m4291 114 c0 -10 -10 -15 -30 -15
-20 0 -30 5 -30 15 0 10 10 15 30 15 20 0 30 -5 30 -15z m-4640 -263 l222
-244 -22 -23 -22 -23 -230 250 c-223 243 -229 250 -212 269 10 11 23 18 30 17
6 -2 111 -112 234 -246z m1529 170 c-1 -20 1 -44 5 -52 14 -31 -18 -53 -83
-58 -41 -3 -61 -1 -61 7 0 7 20 11 49 11 50 0 81 17 81 45 0 7 -7 21 -16 29
-8 9 -11 16 -5 16 6 0 11 12 11 26 0 14 4 23 10 19 6 -4 10 -23 9 -43z m2244
-22 c8 -81 0 -90 -81 -89 l-67 2 51 6 c73 9 106 45 72 79 -8 8 -8 15 1 25 6 8
8 23 5 33 -5 13 -4 16 3 9 6 -5 13 -35 16 -65z m872 50 c0 -10 -12 -16 -32
-18 -28 -3 -33 0 -33 18 0 18 5 21 33 18 20 -2 32 -8 32 -18z m-3265 -40 c0
-38 -4 -50 -15 -50 -18 0 -20 38 -3 75 6 14 13 25 15 25 1 0 3 -22 3 -50z
m100 35 c0 -10 -11 -15 -35 -15 -24 0 -35 5 -35 15 0 10 11 15 35 15 24 0 35
-5 35 -15z m2140 -57 c-1 -68 -2 -71 -15 -48 -8 14 -14 35 -15 47 0 20 19 73
27 73 1 0 3 -33 3 -72z m95 52 c0 -9 -11 -16 -27 -18 -23 -3 -28 1 -28 18 0
17 5 21 28 18 16 -2 27 -9 27 -18z m-3999 -11 c4 -6 -32 -50 -82 -101 -70 -70
-94 -88 -112 -85 -21 4 -22 3 -6 -14 25 -28 29 -98 6 -138 -30 -55 -50 -64
-97 -42 -22 10 -49 22 -60 27 -15 6 -8 9 30 13 28 4 56 10 63 14 15 10 16 67
0 67 -9 0 -9 3 0 12 7 7 12 24 12 39 0 21 18 44 83 104 76 72 132 115 149 115
4 0 10 -5 14 -11z m3394 -60 c0 -10 -4 -28 -9 -41 -5 -13 -12 -35 -15 -50 -5
-20 -10 -25 -26 -21 -11 3 -20 6 -20 7 0 0 9 33 19 73 10 40 16 76 12 80 -3 4
4 -1 17 -11 12 -11 22 -27 22 -37z m-3215 -134 c44 -49 87 -97 96 -106 10 -8
19 -21 21 -28 2 -7 -76 -51 -197 -111 l-200 -98 -62 62 -62 61 26 24 27 23 64
-68 c35 -38 58 -60 51 -49 -7 11 -33 42 -57 68 -29 32 -42 53 -37 65 13 35 17
102 7 131 -10 29 -8 32 76 115 l86 84 41 -41 c23 -23 77 -82 120 -132z m1578
159 c13 -14 -7 -34 -34 -34 -22 0 -29 5 -29 20 0 15 7 20 28 20 16 0 31 -3 35
-6z m-1014 -76 l-1 -73 -15 35 c-12 29 -13 41 -2 72 7 21 14 38 16 38 1 0 3
-33 2 -72z m96 52 c0 -10 -12 -16 -32 -18 -32 -3 -45 13 -26 32 13 12 58 2 58
-14z m53 -16 c-2 -10 -12 -20 -23 -22 -16 -3 -18 -1 -7 9 6 7 12 22 12 33 0
14 3 17 11 9 6 -6 9 -19 7 -29z m3115 29 c12 -11 -14 -33 -39 -33 -17 0 -24 6
-24 20 0 15 7 20 28 20 16 0 32 -3 35 -7z m716 -73 c34 -39 50 -65 44 -71 -6
-6 -34 18 -76 65 -62 69 -76 97 -38 76 9 -4 41 -36 70 -70z m-3881 -7 c-2 -12
-14 -19 -36 -21 -27 -3 -32 0 -32 17 0 17 6 21 36 21 28 0 35 -3 32 -17z m50
-24 c-1 -13 -14 -29 -28 -36 -30 -15 -110 -17 -110 -3 0 6 20 10 45 10 51 0
89 27 78 57 -5 14 -3 15 6 7 7 -7 11 -22 9 -35z m195 31 c28 0 46 -4 42 -9 -7
-12 -103 -3 -125 11 -11 7 -8 8 10 4 14 -3 47 -6 73 -6z m1192 -62 c4 -73 -11
-88 -87 -88 -32 0 -58 4 -58 10 0 6 24 10 53 10 29 0 58 5 65 12 15 15 16 54
2 63 -6 4 -7 13 -1 23 4 9 6 24 3 32 -3 12 -2 12 8 3 7 -6 14 -35 15 -65z
m-55 48 c0 -8 -13 -16 -30 -18 -24 -4 -30 -1 -30 14 0 13 8 18 30 18 19 0 30
-5 30 -14z m-100 -53 c0 -41 -3 -54 -10 -43 -11 17 -13 61 -4 84 11 28 14 18
14 -41z m-345 25 c25 -11 -297 0 -345 11 -21 6 36 7 145 4 99 -3 189 -10 200
-15z m2474 -167 c42 -46 108 -118 147 -160 162 -174 158 -168 135 -180 -16 -9
-23 -6 -40 15 -24 31 -278 310 -370 406 -55 59 -62 70 -51 84 15 17 7 25 179
-165z m-1792 95 c54 -48 111 -161 123 -242 5 -36 4 -87 -2 -132 l-11 -73 -21
20 c-26 25 -87 51 -118 51 -26 0 -23 -5 -88 168 l-39 102 28 43 c16 23 32 63
36 89 8 52 3 54 92 -26z m1380 50 c-1 -1 -71 -68 -155 -151 -107 -105 -152
-144 -152 -130 0 13 54 70 145 154 82 76 141 139 138 145 -4 6 1 5 10 -3 10
-8 16 -14 14 -15z m-2542 -26 c0 -10 -12 -16 -32 -18 -28 -3 -33 0 -33 18 0
18 5 21 33 18 20 -2 32 -8 32 -18z m54 -23 c0 -18 2 -41 5 -52 3 -11 0 -27 -7
-36 -14 -18 -81 -29 -117 -18 -19 5 -13 7 26 8 37 1 56 6 68 20 19 21 14 61
-7 61 -8 0 -8 3 1 12 7 7 12 20 12 31 0 10 5 15 10 12 6 -4 10 -21 9 -38z
m879 31 c-5 -13 -63 -29 -73 -20 -17 18 -2 32 36 32 28 0 39 -4 37 -12z
m-1029 -60 c0 -55 -2 -59 -11 -35 -9 25 -4 97 7 97 3 0 5 -28 4 -62z m-1481
40 c-3 -7 -13 -14 -24 -16 -16 -3 -16 -1 -4 7 13 9 13 11 -2 11 -10 0 -18 -4
-18 -10 0 -5 -4 -10 -10 -10 -5 0 -10 7 -10 15 0 11 11 15 36 15 24 0 34 -4
32 -12z m3620 -15 c2 -9 -11 -13 -47 -13 l-51 0 0 -85 0 -85 29 0 c28 0 29 -1
18 -30 -6 -16 -18 -30 -25 -30 -21 0 -80 63 -88 93 -9 36 3 87 26 115 36 43
127 66 138 35z m622 -78 c-52 -52 -97 -95 -100 -95 -3 0 -12 5 -20 10 -24 16
146 180 186 180 27 0 23 -6 -66 -95z m-4510 46 c0 -37 -2 -39 -36 -45 -19 -4
-43 -10 -52 -13 -9 -3 5 17 33 46 27 28 51 51 52 51 2 0 3 -17 3 -39z m4625
19 c3 -5 -1 -10 -10 -10 -9 0 -13 5 -10 10 3 6 8 10 10 10 2 0 7 -4 10 -10z
m-3390 -43 c-14 -68 -29 -107 -37 -99 -11 11 23 142 35 135 4 -3 5 -19 2 -36z
m613 16 c-2 -12 -14 -19 -36 -21 -27 -3 -32 0 -32 17 0 17 6 21 36 21 28 0 35
-3 32 -17z m-1580 -10 c-2 -12 -14 -19 -36 -21 -27 -3 -32 0 -32 17 0 17 6 21
36 21 28 0 35 -3 32 -17z m4443 -56 c30 -34 86 -96 126 -138 l73 -76 -165 -81
c-91 -45 -169 -82 -174 -82 -11 0 -131 126 -131 137 0 5 5 14 12 21 13 13 12
107 -2 131 -7 12 6 31 61 86 65 67 71 70 108 67 34 -3 47 -13 92 -65z m-4541
39 c0 -13 -47 -32 -57 -22 -3 3 29 24 55 35 1 1 2 -5 2 -13z m3708 2 c-7 -20
-58 -23 -58 -4 0 11 10 16 31 16 20 0 29 -4 27 -12z m-3747 -67 c117 -37 207
-119 261 -238 18 -39 22 -66 22 -148 0 -128 -23 -191 -101 -275 -273 -295
-755 -66 -701 333 16 121 97 237 206 295 103 55 206 66 313 33z m802 -53 c50
-57 57 -69 48 -87 -14 -26 -14 -128 0 -137 7 -4 -17 -34 -60 -78 -68 -68 -73
-71 -112 -68 -37 4 -48 13 -145 121 -118 131 -144 158 -144 147 0 -6 60 -73
188 -209 l55 -58 -67 2 c-40 1 -62 5 -54 10 10 6 -4 26 -52 76 -36 37 -83 87
-104 110 l-39 42 204 100 c112 55 208 99 213 97 6 -1 36 -32 69 -68z m2927 52
c-6 -11 -17 -20 -25 -20 -8 0 -15 9 -15 20 0 15 7 20 25 20 23 0 24 -2 15 -20z
m-1795 -152 c72 -79 159 -175 195 -213 140 -151 136 -145 121 -154 -10 -6 -75
59 -242 242 -203 222 -238 267 -211 267 4 0 66 -64 137 -142z m-2322 125 c-7
-2 -19 -2 -25 0 -7 3 -2 5 12 5 14 0 19 -2 13 -5z m-38 -41 c-6 -4 -21 -20
-34 -37 -22 -28 -23 -29 -16 -5 13 45 36 73 48 61 8 -8 8 -14 2 -19z m4685
-26 c13 -40 1 -78 -37 -118 -25 -26 -28 -27 -49 -13 -13 8 -32 15 -43 15 -11
0 -23 5 -26 10 -4 6 13 10 44 10 52 0 81 17 81 49 0 9 -5 22 -12 29 -8 8 -8
15 1 25 6 8 8 23 4 33 -6 17 -5 17 10 6 9 -8 21 -28 27 -46z m-70 19 c0 -8 -7
-15 -16 -15 -8 0 -12 5 -9 10 3 6 0 10 -9 10 -8 0 -17 -6 -19 -12 -3 -8 -6 -6
-6 5 -1 12 7 17 29 17 20 0 30 -5 30 -15z m-260 -43 c0 -24 -5 -39 -12 -39 -7
0 -24 -3 -38 -8 -24 -7 -24 -6 8 27 17 19 32 39 32 46 0 7 2 12 5 12 3 0 5
-17 5 -38z m-333 1 l24 -27 -53 -49 c-29 -27 -125 -121 -214 -209 l-161 -160
-111 7 c-62 4 -109 11 -106 16 6 11 95 12 111 1 9 -6 87 67 240 220 125 125
232 228 237 228 6 0 21 -12 33 -27z m2029 -29 c17 -40 10 -99 -13 -126 -22
-25 -73 -39 -107 -30 -49 13 -44 32 8 32 69 0 96 14 96 49 0 16 -6 31 -12 34
-10 3 -10 7 1 20 7 9 11 26 8 37 -8 32 3 23 19 -16z m-4667 -51 l-4 -78 28 3
c29 4 33 -3 17 -28 -7 -12 -10 -12 -10 -1 0 7 -6 11 -15 8 -23 -9 -55 40 -55
85 0 33 23 88 37 88 3 0 3 -35 2 -77z m3225 71 c26 -10 6 -34 -29 -34 -28 0
-32 3 -28 20 5 20 27 25 57 14z m1389 -10 c13 -14 -7 -34 -34 -34 -22 0 -29 5
-29 20 0 15 7 20 28 20 16 0 31 -3 35 -6z m-4523 -19 c0 -10 -10 -15 -30 -15
-29 0 -38 9 -23 23 13 13 53 7 53 -8z m3040 -4 c0 -10 -25 -21 -48 -21 -12 0
-9 4 8 14 31 17 40 19 40 7z m-460 -10 c0 -5 -7 -12 -16 -15 -14 -5 -15 -4 -4
9 14 17 20 19 20 6z m-2603 -51 c-1 -12 -8 -20 -19 -20 -11 0 -18 7 -18 20 0
13 7 20 19 20 14 0 19 -6 18 -20z m3875 -135 c-4 -11 -6 -54 -5 -96 l2 -76
-80 -79 -79 -78 -98 104 c-54 58 -120 129 -147 159 l-48 55 169 84 169 84 62
-69 c49 -53 61 -72 55 -88z m676 138 c-2 -12 -14 -19 -36 -21 -27 -3 -32 0
-32 17 0 17 6 21 36 21 28 0 35 -3 32 -17z m-1539 -14 c105 -24 203 -104 254
-208 30 -62 32 -73 32 -171 0 -93 -3 -112 -27 -162 -74 -159 -253 -255 -422
-228 -318 51 -445 442 -218 669 101 101 228 134 381 100z m1435 -1 c-4 -12
-212 -118 -230 -118 -18 0 18 23 117 74 113 59 121 62 113 44z m-1120 -63 c58
-66 62 -78 26 -88 -15 -4 -33 10 -77 60 -54 62 -56 66 -38 79 10 8 22 14 25
14 4 0 32 -29 64 -65z m-738 -3 c-17 -16 -18 -16 -5 5 7 12 15 20 18 17 3 -2
-3 -12 -13 -22z m-2724 -39 c18 -16 17 -18 -19 -55 -34 -34 -42 -38 -88 -37
-36 0 -45 3 -30 9 11 4 40 29 65 54 24 25 46 46 49 46 2 0 13 -8 23 -17z
m4599 -30 c-12 -20 -14 -14 -5 12 4 9 9 14 11 11 3 -2 0 -13 -6 -23z m-2570
10 c1 -5 3 -34 5 -65 3 -50 0 -60 -19 -73 -24 -17 -127 -21 -127 -5 0 6 22 10
49 10 32 0 55 6 65 16 18 17 21 50 6 59 -7 4 -7 13 0 26 6 11 8 24 5 29 -3 6
-1 10 4 10 6 0 11 -3 12 -7z m-151 -64 c0 -61 -13 -73 -25 -21 -5 26 8 82 20
82 3 0 5 -27 5 -61z m98 49 c-7 -20 -58 -23 -58 -4 0 11 10 16 31 16 20 0 29
-4 27 -12z m2142 -55 c-1 -64 -2 -67 -15 -43 -8 14 -14 33 -15 42 0 17 20 68
27 68 1 0 3 -30 3 -67z m98 50 c-2 -11 -14 -19 -31 -21 -22 -3 -27 1 -27 17 0
17 6 21 31 21 24 0 30 -4 27 -17z m52 -113 c-15 -28 -140 -37 -140 -9 0 5 24
9 53 9 29 0 58 5 65 12 14 14 16 54 3 62 -5 4 -4 17 2 31 11 23 13 20 19 -31
4 -32 3 -64 -2 -74z m-4193 103 c-2 -2 -19 -8 -37 -13 -31 -9 -32 -9 -16 9 10
11 25 17 37 14 11 -3 18 -7 16 -10z m3470 11 c-3 -3 59 -76 138 -162 124 -135
141 -158 132 -174 -7 -10 -16 -18 -21 -18 -13 0 -96 88 -269 285 -33 38 -33
45 -5 60 27 15 34 17 25 9z m-923 -30 c3 -8 2 -12 -4 -9 -6 3 -10 10 -10 16 0
14 7 11 14 -7z m-3111 -1 c-7 -2 -19 -2 -25 0 -7 3 -2 5 12 5 14 0 19 -2 13
-5z m2245 -5 c-3 -7 -10 -13 -16 -12 -7 1 -39 2 -72 3 -88 2 -74 21 16 21 56
0 75 -3 72 -12z m227 -28 c0 -10 -12 -16 -32 -18 -28 -3 -33 0 -33 18 0 18 5
21 33 18 20 -2 32 -8 32 -18z m2234 11 c20 -13 6 -28 -29 -33 -26 -4 -30 -1
-30 19 0 17 6 23 23 23 12 0 28 -4 36 -9z m-4445 -11 c34 0 46 -3 37 -9 -8 -5
-20 -7 -28 -4 -8 3 -13 2 -11 -3 4 -15 -22 -54 -35 -53 -7 0 -28 19 -47 42
l-35 40 34 -6 c18 -4 57 -7 85 -7z m2856 -12 c0 -18 -20 -47 -20 -30 0 6 -7
12 -15 12 -8 0 -15 7 -15 15 0 9 9 15 25 15 14 0 25 -6 25 -12z m-2880 -173
c-96 -97 -181 -174 -189 -173 -8 2 -19 11 -25 21 -10 17 9 38 149 173 151 145
162 154 200 154 l40 0 -175 -175z m2700 172 c0 -2 -10 -12 -22 -23 l-23 -19
19 23 c18 21 26 27 26 19z m-2264 -117 c4 -76 -8 -90 -81 -90 -30 0 -57 5 -60
10 -4 6 14 10 47 10 30 0 59 5 66 12 15 15 16 55 1 64 -8 4 -8 9 0 17 6 6 11
20 11 31 0 45 14 1 16 -54z m-146 10 c0 -27 -4 -50 -10 -50 -11 0 -14 59 -4
84 10 27 14 18 14 -34z m98 38 c-7 -20 -68 -23 -68 -4 0 12 10 16 36 16 24 0
34 -4 32 -12z m1589 -4 c-3 -3 -12 -4 -19 -1 -8 3 -5 6 6 6 11 1 17 -2 13 -5z
m786 -21 c75 -5 97 -9 97 -21 0 -11 -8 -13 -32 -9 -18 3 -81 9 -140 13 -59 3
-105 10 -102 15 6 11 45 11 177 2z m-596 -9 c-3 -3 -12 -4 -19 -1 -8 3 -5 6 6
6 11 1 17 -2 13 -5z m120 -10 c-3 -3 -12 -4 -19 -1 -8 3 -5 6 6 6 11 1 17 -2
13 -5z m-1902 -24 c0 -10 -12 -16 -32 -18 -28 -3 -33 0 -33 18 0 18 5 21 33
18 20 -2 32 -8 32 -18z m325 5 c117 -4 370 -19 738 -42 56 -3 102 -10 102 -15
0 -6 -46 -8 -117 -4 -65 3 -206 11 -313 16 -107 6 -260 15 -340 20 -80 6 -166
10 -192 10 -25 0 -53 3 -62 6 -28 11 -17 23 17 19 17 -2 93 -7 167 -10z m1620
-68 l0 -83 61 6 c61 6 79 18 79 52 0 9 -7 21 -16 26 -11 6 -13 11 -5 16 6 4
11 18 11 32 0 20 4 24 28 22 15 -1 34 1 42 5 10 5 9 3 -1 -4 -13 -10 -14 -18
-6 -44 23 -75 -21 -152 -100 -175 -35 -11 -46 -10 -86 8 -60 26 -82 62 -82
130 0 45 4 56 25 72 44 34 50 27 50 -63z m-565 53 c0 -10 -12 -16 -32 -18 -28
-3 -31 -1 -26 18 4 16 12 20 32 18 15 -2 26 -9 26 -18z m55 -10 c0 -21 -5 -30
-16 -30 -11 0 -14 5 -10 16 3 9 6 22 6 30 0 8 5 14 10 14 6 0 10 -13 10 -30z
m818 23 c-16 -2 -40 -2 -55 0 -16 2 -3 4 27 4 30 0 43 -2 28 -4z m-2478 -7 c0
-2 3 -11 6 -20 4 -11 0 -16 -14 -16 -23 0 -36 15 -27 30 6 10 35 14 35 6z
m2643 -2 c40 -6 46 -10 51 -37 3 -17 5 -31 4 -33 -2 -1 -63 -7 -137 -14 -146
-13 -151 -12 -151 43 0 24 3 27 38 28 20 1 48 5 62 9 32 10 76 12 133 4z
m1262 -206 c-116 -117 -213 -209 -216 -205 -7 10 399 416 416 417 5 0 -85 -96
-200 -212z m-2397 125 l-4 -28 -8 28 c-5 15 -5 39 0 55 l8 27 4 -27 c2 -16 2
-40 0 -55z m762 62 c0 -10 -11 -15 -35 -15 -24 0 -35 5 -35 15 0 10 11 15 35
15 24 0 35 -5 35 -15z m1945 9 c13 -6 8 -16 -31 -55 -45 -46 -71 -58 -88 -42
-6 7 82 103 95 103 4 0 15 -3 24 -6z m-2602 -51 c13 -12 -15 -33 -44 -33 -22
0 -29 5 -29 20 0 16 7 20 33 20 19 0 37 -3 40 -7z m57 -23 c0 -35 -28 -50 -91
-50 -38 0 -58 4 -54 10 3 6 28 10 54 10 50 0 71 12 71 43 0 10 5 15 10 12 6
-3 10 -15 10 -25z m-1646 5 c-4 -9 -19 -15 -35 -15 -19 0 -29 5 -29 15 0 10
11 15 35 15 26 0 33 -3 29 -15z m2245 6 c22 -14 3 -31 -35 -31 -27 0 -34 4
-34 20 0 15 7 20 28 20 15 0 33 -4 41 -9z m-2339 -21 c0 -5 -22 -19 -50 -31
-27 -12 -50 -24 -50 -28 0 -4 7 -16 15 -28 17 -24 21 -23 -99 -38 -75 -10 -55
12 70 76 60 31 110 57 112 58 1 0 2 -3 2 -9z m527 -156 c76 -84 178 -195 227
-248 70 -76 87 -99 77 -109 -10 -9 -19 -4 -43 23 -17 19 -121 133 -230 252
-171 187 -218 250 -177 236 5 -2 71 -71 146 -154z m-1037 131 c11 -13 9 -20
-10 -40 -22 -23 -25 -24 -41 -9 -17 15 -16 17 4 40 24 28 30 29 47 9z m4949
-189 c-18 -20 -19 -20 -75 0 -53 17 -58 22 -69 59 l-12 40 50 52 51 52 36 -92
c36 -89 36 -93 19 -111z m-4310 173 c-8 -5 -39 -8 -69 -7 l-55 1 52 6 c28 4
55 10 59 13 4 4 11 5 16 1 6 -3 4 -9 -3 -14z m414 -29 c-6 -23 -14 -25 -31 -8
-18 18 -14 28 12 28 19 0 23 -4 19 -20z m-908 -20 c14 -6 2 -8 -40 -8 -48 0
-54 2 -30 8 40 10 46 10 70 0z m54 -44 c12 -18 21 -47 21 -63 0 -32 -40 -94
-68 -105 -73 -29 -152 25 -152 104 0 50 27 99 41 77 5 -8 9 -43 7 -79 l-1 -64
49 2 c27 2 56 5 66 8 24 7 30 34 13 60 -10 16 -11 25 -4 30 6 3 9 19 7 35 -3
16 -3 29 -2 29 1 0 12 -15 23 -34z m607 -33 c-3 -3 -449 -41 -503 -43 -8 0
-13 12 -13 30 0 29 2 30 43 30 70 1 438 37 445 45 4 3 13 -8 20 -25 7 -18 11
-34 8 -37z m-1131 28 l80 -2 -47 -20 c-54 -24 -102 -20 -139 10 l-22 18 24 -3
c13 -1 60 -3 104 -3z m475 -5 c0 -15 -21 -26 -51 -26 -12 0 -19 7 -19 20 0 16
7 20 35 20 23 0 35 -5 35 -14z m4496 7 c-15 -4 -16 -7 -5 -14 10 -6 6 -9 -13
-9 -18 0 -28 5 -28 15 0 10 10 15 33 14 19 -1 25 -3 13 -6z m60 -28 c-3 -8
-10 -15 -15 -15 -5 0 -4 11 2 25 12 25 23 16 13 -10z m-4558 -47 c3 -15 -4
-18 -32 -18 -30 0 -36 4 -36 21 0 17 5 20 32 17 22 -2 34 -9 36 -20z m4506 8
c-3 -8 -16 -16 -30 -19 -18 -3 -24 0 -24 14 0 14 7 19 30 19 21 0 28 -4 24
-14z m46 -51 c-9 -11 -30 -14 -69 -13 l-56 2 53 3 c39 3 56 9 65 24 6 10 13
15 15 9 2 -6 -2 -17 -8 -25z m-650 -20 c0 -25 -24 -33 -42 -14 -16 17 -16 20
-2 34 13 12 19 13 30 4 8 -6 14 -17 14 -24z m1130 -70 c0 -63 -17 -82 -81 -91
-36 -5 -49 -2 -72 16 -39 31 -50 65 -37 106 18 53 30 40 30 -31 l0 -65 51 0
c28 0 59 5 70 10 20 11 26 54 9 65 -8 5 -7 11 1 21 6 8 9 24 6 36 -6 22 -6 22
8 4 9 -11 15 -42 15 -71z m-62 53 c3 -14 -3 -18 -27 -18 -25 0 -31 4 -31 21 0
16 5 20 27 17 17 -2 29 -10 31 -20z m-656 -39 c-15 -4 -52 -9 -82 -12 l-55 -6
65 34 65 33 17 -21 c16 -21 16 -22 -10 -28z m-362 -86 c0 -70 -1 -75 -15 -57
-17 23 -19 74 -3 109 6 14 13 25 15 25 1 0 3 -35 3 -77z m154 5 c8 -75 -5 -88
-85 -88 -38 0 -58 4 -54 10 3 6 28 10 54 10 26 0 52 5 59 12 15 15 16 55 1 60
-9 3 -9 10 0 26 7 12 9 28 5 35 -5 8 -4 9 3 2 6 -5 13 -36 17 -67z m871 52 c0
-10 -12 -16 -32 -18 -28 -3 -33 0 -33 18 0 18 5 21 33 18 20 -2 32 -8 32 -18z
m-927 -7 c-2 -11 -14 -19 -31 -21 -22 -3 -27 1 -27 17 0 17 6 21 31 21 24 0
30 -4 27 -17z m747 8 c-6 -5 -64 -11 -130 -14 -126 -7 -139 -3 -40 12 82 12
181 13 170 2z m-3912 -67 c13 -14 -7 -34 -34 -34 -22 0 -29 5 -29 20 0 15 7
20 28 20 16 0 31 -3 35 -6z m52 -33 c-3 -12 -11 -21 -17 -21 -5 0 -7 7 -4 16
3 9 6 23 6 32 0 12 3 13 11 5 6 -6 8 -20 4 -32z m3118 32 c12 -11 -14 -33 -39
-33 -17 0 -24 6 -24 20 0 15 7 20 28 20 16 0 32 -3 35 -7z m-3263 -70 c-1 -64
-2 -67 -15 -43 -8 14 -14 35 -15 48 0 23 16 62 25 62 3 0 5 -30 5 -67z m100
-8 c0 -8 -9 -15 -19 -15 -11 0 -26 -3 -35 -6 -12 -4 -16 0 -16 15 0 17 6 21
35 21 24 0 35 -5 35 -15z m50 -19 c0 -33 -23 -48 -79 -54 -65 -6 -75 14 -11
21 63 8 70 12 70 43 0 14 4 22 10 19 6 -3 10 -17 10 -29z m1386 -41 c2 -46 -2
-58 -19 -70 -24 -17 -127 -21 -127 -5 0 6 25 10 55 10 50 0 57 3 67 26 9 18 9
30 1 43 -7 11 -8 23 -1 34 5 10 6 23 2 30 -5 9 -4 9 7 -1 8 -7 14 -36 15 -67z
m-56 50 c0 -10 -10 -15 -30 -15 -20 0 -30 5 -30 15 0 10 10 15 30 15 20 0 30
-5 30 -15z m-100 -46 c0 -31 -4 -48 -10 -44 -17 11 -12 95 7 95 2 0 3 -23 3
-51z m105 -19 c0 -10 -12 -16 -37 -18 -37 -3 -51 12 -31 32 13 13 68 2 68 -14z
m-930 -10 c0 -10 -12 -16 -32 -18 -28 -3 -33 0 -33 18 0 18 5 21 33 18 20 -2
32 -8 32 -18z m52 -18 c-3 -14 0 -36 6 -49 8 -18 6 -27 -8 -43 -15 -16 -30
-20 -79 -19 l-61 2 52 6 c65 8 91 30 76 64 -13 27 -6 80 9 71 5 -4 8 -18 5
-32z m-149 -64 l-4 -33 -8 37 c-5 21 -5 50 0 65 l8 28 4 -32 c2 -18 2 -48 0
-65z m105 25 c13 -12 -15 -33 -44 -33 -22 0 -29 5 -29 20 0 16 7 20 33 20 19
0 37 -3 40 -7z"/>
<path d="M6050 7974 l0 -87 56 6 c30 3 62 11 70 18 17 14 19 56 2 62 -10 3
-10 8 1 21 11 13 11 22 3 41 -10 23 -17 25 -72 25 l-60 0 0 -86z m103 49 c12
-11 -14 -33 -39 -33 -17 0 -24 6 -24 20 0 15 7 20 28 20 16 0 32 -3 35 -7z
m-15 -59 c34 -10 26 -31 -14 -36 -37 -4 -49 4 -40 27 6 16 18 18 54 9z"/>
<path d="M5130 7900 l0 -80 54 0 c36 0 60 5 70 16 19 18 21 45 4 62 -8 8 -8
15 1 26 9 11 10 20 1 35 -9 18 -20 21 -70 21 l-60 0 0 -80z m100 35 c0 -10
-11 -15 -35 -15 -24 0 -35 5 -35 15 0 10 11 15 35 15 24 0 35 -5 35 -15z m5
-65 c0 -10 -12 -16 -37 -18 -33 -3 -38 0 -38 18 0 18 5 21 38 18 25 -2 37 -8
37 -18z"/>
<path d="M1980 6740 c0 -64 3 -80 15 -80 9 0 15 9 15 23 0 12 5 29 10 37 9 13
14 10 35 -15 14 -16 25 -33 25 -37 0 -5 9 -8 20 -8 25 0 25 5 -1 42 -20 27
-20 30 -4 42 11 8 16 22 13 41 -3 29 -5 30 -65 33 l-63 3 0 -81z m100 35 c0
-10 -10 -15 -30 -15 -20 0 -30 5 -30 15 0 10 10 15 30 15 20 0 30 -5 30 -15z"/>
<path d="M6040 6515 c0 -71 2 -83 15 -79 9 4 15 19 15 40 0 43 12 43 46 -1 14
-19 33 -35 40 -35 19 0 17 13 -7 44 -18 22 -18 27 -5 32 21 8 29 39 16 64 -9
16 -21 20 -65 20 l-55 0 0 -85z m90 40 c0 -10 -10 -15 -30 -15 -20 0 -30 5
-30 15 0 10 10 15 30 15 20 0 30 -5 30 -15z"/>
<path d="M5841 5274 c0 -11 3 -14 6 -6 3 7 2 16 -1 19 -3 4 -6 -2 -5 -13z"/>
<path d="M3050 6124 l-85 -13 85 6 c79 5 100 9 89 16 -2 2 -42 -3 -89 -9z"/>
<path d="M8080 5760 l0 -80 54 0 c36 0 60 5 70 16 17 17 21 36 9 48 -5 4 -8
27 -8 49 l0 42 -62 3 -63 3 0 -81z m100 35 c0 -10 -11 -15 -35 -15 -24 0 -35
5 -35 15 0 10 11 15 35 15 24 0 35 -5 35 -15z m0 -55 c0 -5 0 -13 0 -17 1 -5
-15 -11 -35 -14 -32 -5 -35 -4 -35 18 0 20 5 23 35 23 19 0 35 -4 35 -10z"/>
<path d="M3100 4470 l0 -80 58 0 c32 0 63 5 70 12 16 16 15 55 0 61 -10 3 -10
8 1 21 11 13 11 22 3 41 -10 23 -17 25 -72 25 l-60 0 0 -80z m98 33 c-2 -11
-14 -19 -31 -21 -22 -3 -27 1 -27 17 0 17 6 21 31 21 24 0 30 -4 27 -17z m-4
-49 c35 -13 11 -44 -35 -44 -14 0 -19 7 -19 25 0 26 19 32 54 19z"/>
<path d="M4010 4520 c0 -64 3 -80 15 -80 10 0 15 11 15 35 0 25 4 35 15 35 9
0 25 -16 36 -35 13 -21 29 -35 40 -35 18 0 19 2 4 29 -8 17 -19 33 -25 36 -6
4 -2 14 11 24 17 14 20 24 15 44 -6 26 -10 27 -66 27 l-60 0 0 -80z m95 40 c0
-10 -12 -16 -32 -18 -28 -3 -33 0 -33 18 0 18 5 21 33 18 20 -2 32 -8 32 -18z"/>
<path d="M3433 4523 c9 -2 23 -2 30 0 6 3 -1 5 -18 5 -16 0 -22 -2 -12 -5z"/>
<path d="M3358 4513 c7 -3 16 -2 19 1 4 3 -2 6 -13 5 -11 0 -14 -3 -6 -6z"/>
<path d="M3695 3490 c21 -22 41 -40 44 -40 3 0 -13 18 -34 40 -21 22 -41 40
-44 40 -3 0 13 -18 34 -40z"/>
<path d="M7160 4245 l0 -85 38 1 c81 2 87 8 89 79 0 36 -3 71 -9 78 -6 7 -33
12 -64 12 l-54 0 0 -85z m96 44 c8 -14 -14 -29 -43 -29 -16 0 -23 6 -23 20 0
15 7 20 29 20 17 0 33 -5 37 -11z m2 -76 c-2 -12 -14 -19 -36 -21 -27 -3 -32
0 -32 17 0 17 6 21 36 21 28 0 35 -3 32 -17z"/>
<path d="M1987 2603 c-4 -3 -7 -39 -7 -80 0 -67 2 -73 21 -73 12 0 17 4 14 11
-9 14 3 59 15 59 5 0 20 -16 32 -35 13 -19 31 -35 41 -35 18 0 18 2 -1 34 -18
30 -19 36 -6 47 17 14 18 51 2 67 -13 13 -100 17 -111 5z m93 -37 c0 -14 -21
-26 -46 -26 -8 0 -14 9 -14 20 0 16 7 20 30 20 19 0 30 -5 30 -14z"/>
<path d="M6040 2310 c0 -64 3 -80 15 -80 10 0 15 10 15 30 0 40 25 40 48 0 9
-16 25 -30 35 -30 22 0 22 11 -2 42 -19 24 -19 24 0 36 10 7 19 21 19 31 0 34
-28 51 -81 51 l-49 0 0 -80z m88 33 c-2 -11 -14 -19 -31 -21 -22 -3 -27 1 -27
17 0 17 6 21 31 21 24 0 30 -4 27 -17z"/>
<path d="M3630 7757 c0 -2 15 -14 33 -27 20 -15 27 -17 18 -6 -13 16 -51 41
-51 33z"/>
<path d="M3725 7670 c47 -55 48 -56 37 -35 -6 11 -23 31 -39 45 l-28 25 30
-35z"/>
<path d="M3806 7527 c3 -10 9 -15 12 -12 3 3 0 11 -7 18 -10 9 -11 8 -5 -6z"/>
<path d="M7851 3115 c1 -19 18 -51 18 -35 0 8 -4 22 -9 30 -5 8 -9 11 -9 5z"/>
<path d="M7875 2955 c0 -57 3 -97 7 -87 4 9 7 49 7 87 0 39 -3 78 -7 87 -4 10
-7 -30 -7 -87z"/>
</g>
</svg>
