<?xml version="1.0" standalone="no"?>
<!DOCTYPE svg PUBLIC "-//W3C//DTD SVG 20010904//EN"
 "http://www.w3.org/TR/2001/REC-SVG-20010904/DTD/svg10.dtd">
<svg version="1.0" xmlns="http://www.w3.org/2000/svg"
 width="685.000000pt" height="695.000000pt" viewBox="0 0 685.000000 695.000000"
 preserveAspectRatio="xMidYMid meet">

<g transform="translate(0.000000,695.000000) scale(0.100000,-0.100000)"
fill="#000000" stroke="none">
<path d="M6004 6509 c-168 -21 -344 -108 -456 -224 -47 -48 -113 -145 -144
-210 -34 -71 -74 -209 -74 -257 0 -21 -5 -27 -27 -31 l-28 -4 28 -2 c27 -1 27
-2 27 -66 l0 -66 -62 50 c-35 28 -78 59 -98 68 l-35 18 55 6 55 6 -67 1 c-41
1 -96 12 -140 26 -87 30 -234 49 -303 41 -74 -8 -229 -38 -235 -45 -3 -3 -20
-12 -38 -20 -163 -65 -348 -270 -405 -448 -28 -83 -48 -175 -44 -195 2 -13 33
-14 -468 13 -198 11 -499 26 -670 35 -170 8 -330 17 -355 20 -68 9 -522 34
-720 41 -96 3 -177 8 -179 10 -2 2 -5 43 -7 91 -2 85 -27 192 -60 255 l-14 28
177 89 c98 50 175 90 170 90 -4 1 -85 -38 -179 -85 -95 -47 -174 -81 -176 -76
-11 34 -92 143 -140 190 -200 192 -470 267 -736 203 -213 -51 -408 -207 -506
-406 -54 -108 -71 -180 -77 -310 -18 -415 283 -763 696 -803 l66 -7 3 -1277 2
-1278 -48 0 c-75 0 -197 -35 -297 -85 -152 -75 -267 -191 -341 -340 -58 -118
-75 -187 -81 -321 -5 -98 -2 -124 21 -213 30 -116 64 -190 130 -278 96 -127
214 -214 358 -264 313 -107 650 -14 857 236 82 99 171 310 171 406 0 15 3 30
7 32 5 2 64 0 133 -4 118 -8 186 -12 395 -24 50 -3 149 -7 220 -10 72 -3 380
-19 685 -35 305 -16 600 -32 655 -35 55 -3 146 -8 201 -11 l101 -6 6 -87 c16
-245 145 -465 354 -602 129 -84 260 -121 423 -121 316 2 591 189 711 483 36
89 62 233 57 317 -2 34 -1 62 2 62 4 0 25 -16 48 -36 45 -38 150 -104 166
-104 5 0 -24 21 -66 48 -124 77 -143 98 -167 187 -12 42 -28 92 -36 112 -8 19
-15 37 -15 39 0 2 81 44 180 94 99 50 180 92 180 94 0 3 -80 -33 -179 -80 -98
-46 -182 -84 -187 -84 -5 0 -24 25 -42 54 -18 30 -48 73 -67 96 -35 42 -35 43
-35 138 1 322 205 614 500 713 33 12 59 23 57 25 -7 8 -121 -36 -184 -72 -135
-75 -242 -193 -313 -346 -29 -63 -70 -204 -70 -245 0 -19 -6 -22 -47 -26 l-48
-3 48 -2 47 -2 0 -66 0 -65 -31 23 c-133 99 -178 125 -266 152 -51 15 -126 31
-165 35 l-73 6 -3 676 -2 675 44 32 c93 64 143 172 134 286 -8 96 -69 200
-143 246 l-35 22 0 309 0 309 39 0 c56 0 174 26 243 54 191 77 356 242 427
425 38 99 64 239 59 318 -2 35 0 63 5 63 5 0 26 -15 47 -32 53 -45 137 -95
212 -125 52 -21 204 -53 256 -53 9 0 12 -262 12 -1279 l0 -1279 -65 -7 c-35
-3 -77 -10 -92 -15 -18 -6 -9 -7 27 -2 205 26 401 -13 549 -108 34 -22 61 -36
61 -32 0 13 -103 71 -180 102 -70 29 -206 60 -261 60 l-29 0 0 1279 0 1279 68
7 c195 21 352 96 485 232 72 73 88 97 138 197 24 50 39 93 38 115 0 36 -1 35
-19 -16 -86 -242 -275 -419 -517 -485 -102 -27 -279 -29 -373 -4 -168 44 -359
172 -374 249 -3 19 -18 63 -31 97 -14 35 -25 66 -25 70 0 3 81 46 180 95 98
49 178 90 176 92 -1 2 -84 -35 -183 -82 -99 -47 -183 -85 -187 -85 -3 0 -6 6
-6 13 0 6 -27 49 -60 95 l-60 83 0 98 c0 124 25 226 86 350 38 77 61 108 132
180 99 98 182 150 295 186 399 127 800 -72 949 -470 l18 -50 -5 47 c-6 60 -42
132 -113 227 -124 164 -313 274 -522 301 -85 11 -101 11 -186 -1z m-5006 -525
c185 -39 359 -170 454 -344 89 -161 105 -384 42 -562 -36 -100 -45 -115 -115
-202 -97 -122 -237 -209 -387 -242 -106 -24 -260 -15 -368 20 -161 52 -327
193 -398 338 -217 443 57 953 542 1007 78 9 129 6 230 -15z m3906 -208 c255
-49 445 -211 535 -456 100 -273 6 -592 -224 -767 -284 -216 -664 -198 -909 42
-114 112 -174 224 -203 378 -50 263 70 545 296 696 156 104 328 140 505 107z
m-2864 -541 c135 -9 261 -16 280 -16 143 -4 1568 -77 1638 -85 l52 -5 0 -54
c0 -103 48 -275 103 -366 77 -130 201 -245 332 -310 91 -45 215 -79 287 -79
l48 0 0 -306 0 -306 -32 9 c-30 7 -155 8 -219 1 -22 -3 -75 52 -401 409 l-376
413 19 50 c56 147 -10 316 -153 396 -48 26 -62 29 -148 29 -87 0 -100 -3 -149
-30 -138 -76 -206 -244 -156 -386 l16 -43 -253 -254 c-139 -139 -306 -303
-370 -363 l-117 -110 -46 15 c-152 52 -315 -16 -386 -160 -30 -61 -34 -77 -33
-149 0 -113 34 -177 134 -256 70 -56 196 -76 283 -45 l38 14 82 -93 c45 -51
133 -149 196 -217 143 -154 171 -185 306 -333 60 -66 124 -136 143 -156 l33
-36 -21 -52 c-57 -146 8 -317 151 -396 49 -27 62 -30 149 -30 87 0 100 3 149
30 138 76 206 244 156 386 l-16 43 298 296 c164 162 330 326 369 363 l72 68
51 -17 c52 -17 172 -16 214 1 16 7 17 -27 15 -666 l-3 -674 -35 -3 c-241 -17
-437 -123 -577 -312 -75 -102 -120 -209 -143 -339 l-13 -73 -81 6 c-45 4 -254
16 -466 27 -212 11 -540 29 -730 40 -678 39 -841 48 -996 53 -55 1 -106 6
-113 10 -7 5 -11 32 -9 79 2 76 -17 166 -52 245 -11 24 -20 45 -20 46 0 1 76
39 170 86 93 46 168 86 166 88 -2 2 -76 -33 -165 -77 -88 -45 -164 -81 -168
-81 -5 1 -26 29 -47 64 -118 192 -349 333 -578 353 l-68 6 0 1278 0 1279 48 0
c107 0 273 59 389 138 159 108 293 322 318 507 11 83 5 79 103 71 48 -3 197
-13 332 -21z m1472 -375 c52 -15 94 -53 113 -105 52 -136 -84 -267 -219 -211
-137 57 -131 262 9 311 49 17 51 17 97 5z m236 -392 c20 -23 129 -144 241
-268 113 -124 241 -265 285 -315 44 -49 106 -117 138 -150 l58 -61 -31 -29
-30 -30 -67 71 c-160 171 -314 338 -612 663 l-94 103 32 29 c18 16 35 29 37
29 3 0 22 -19 43 -42z m-509 1 l24 -30 -369 -372 c-203 -205 -374 -373 -380
-375 -12 -3 -64 53 -64 68 0 7 276 276 599 585 58 55 116 112 131 126 14 15
27 27 30 27 3 1 16 -13 29 -29z m340 -325 c45 -116 81 -215 81 -219 0 -4 -18
-27 -39 -52 -22 -24 -48 -65 -57 -89 -9 -24 -19 -44 -23 -44 -3 0 -55 -5 -114
-10 -59 -6 -112 -8 -116 -6 -4 3 27 133 71 288 43 156 83 300 89 322 6 22 14
35 19 30 5 -5 45 -104 89 -220z m-304 204 c-3 -7 -45 -154 -94 -326 -49 -172
-90 -315 -93 -317 -2 -2 -113 -13 -247 -25 -182 -16 -246 -19 -255 -10 -8 8
78 99 334 351 190 186 348 339 352 339 4 0 5 -6 3 -12z m633 -271 c91 -101
128 -151 90 -119 -9 7 -47 19 -85 25 l-68 13 -22 55 c-12 29 -33 85 -48 124
l-26 70 31 -30 c17 -17 75 -79 128 -138z m68 -200 c49 -26 88 -75 114 -142
l10 -27 -49 7 c-64 9 -112 -16 -116 -60 -1 -5 -5 -22 -9 -38 -11 -36 12 -70
65 -98 40 -20 41 -21 22 -38 -18 -17 -59 -23 -231 -37 -39 -3 -43 -2 -37 16 5
15 2 20 -13 20 -20 0 -67 47 -84 85 -10 22 -31 22 -295 -3 -95 -9 -93 -11 -67
73 l17 52 163 13 163 13 12 36 c7 20 20 47 30 60 15 19 20 21 25 8 3 -9 21
-23 40 -32 67 -32 154 19 154 91 0 31 1 32 28 25 16 -5 41 -15 58 -24z m334
-248 c0 -9 -110 27 -121 39 -4 4 -9 32 -13 62 l-6 55 70 -74 c39 -41 70 -78
70 -82z m-1935 82 c41 -19 68 -45 98 -93 l17 -28 -39 0 c-51 0 -80 -25 -92
-79 -12 -54 2 -96 39 -115 l25 -13 -46 -18 c-62 -24 -143 -17 -192 16 -39 26
-85 107 -85 148 0 144 147 241 275 182z m691 -76 c-4 -16 -13 -25 -26 -25 -32
0 -128 -40 -160 -66 -16 -14 -33 -23 -38 -20 -4 2 -35 1 -68 -3 -79 -11 -154
9 -154 42 0 12 -3 33 -7 46 -4 17 -3 22 5 17 12 -7 432 31 441 40 9 9 13 -6 7
-31z m1660 -86 c41 -21 43 -24 49 -80 4 -33 4 -85 0 -118 -6 -57 -8 -59 -52
-81 -91 -46 -193 -7 -229 86 -15 40 -16 52 -5 92 29 108 133 152 237 101z
m-1156 -8 c0 -5 16 -32 36 -61 19 -28 34 -53 32 -55 -2 -1 -59 -7 -128 -13
-109 -9 -126 -8 -135 6 -5 8 -25 35 -43 59 -18 25 -32 46 -30 48 3 2 172 18
246 23 12 1 22 -2 22 -7z m1237 -183 c-2 -29 -3 -6 -3 52 0 58 1 81 3 53 2
-29 2 -77 0 -105z m-1674 58 c43 -17 85 -68 93 -110 8 -47 -25 -120 -68 -146
-39 -23 -107 -26 -146 -6 -86 44 -104 162 -35 228 49 47 99 58 156 34z m-581
-77 c12 -6 33 -25 47 -42 14 -18 159 -177 321 -355 248 -273 300 -335 324
-389 l30 -65 -25 -19 c-13 -10 -28 -18 -34 -18 -8 1 -281 294 -553 594 -15 17
-69 76 -120 132 l-92 101 34 36 c37 40 39 41 68 25z m199 -57 c4 -4 9 -32 13
-62 l6 -55 -70 75 c-39 41 -70 78 -70 82 0 8 111 -29 121 -40z m1606 -7 c4
-12 -670 -685 -686 -685 -6 0 -8 6 -6 13 3 6 45 153 94 325 49 173 91 315 93
317 1 2 41 6 88 10 47 3 92 8 100 10 8 2 64 6 125 10 60 3 110 7 111 8 7 7 78
0 81 -8z m-717 -50 c0 -8 -27 -106 -84 -310 -88 -312 -97 -338 -105 -329 -5 5
-45 105 -89 223 l-81 215 34 39 c18 21 44 63 57 92 l23 54 60 5 c33 3 74 8 90
9 50 6 95 7 95 2z m128 -92 c-67 -218 -108 -353 -137 -446 -17 -53 -31 -104
-31 -113 0 -13 -7 -15 -32 -10 -17 3 -34 9 -37 12 -5 4 145 626 156 647 2 4
28 7 57 7 l54 0 -30 -97z m649 45 l21 -23 -374 -380 -373 -379 -31 29 c-16 16
-30 33 -30 38 0 5 66 72 147 150 81 78 251 242 377 365 126 122 232 222 236
222 4 0 16 -10 27 -22z m-1397 -210 c30 -6 60 -12 67 -14 11 -3 20 -24 77
-179 l26 -70 -81 85 c-128 135 -186 205 -164 196 11 -4 45 -12 75 -18z m571
-580 c54 -43 75 -141 45 -211 -16 -38 -76 -94 -112 -103 -14 -4 -48 -4 -75 -2
-58 6 -114 45 -141 99 -21 39 -23 111 -5 153 12 27 17 29 69 31 62 2 102 22
120 60 l11 24 36 -19 c20 -11 43 -25 52 -32z m-2619 -492 c241 -43 446 -222
535 -466 24 -68 27 -89 27 -215 1 -128 -1 -147 -28 -228 -95 -290 -355 -478
-661 -478 -562 0 -894 613 -586 1083 156 238 429 354 713 304z m3953 -227
c121 -22 235 -82 337 -177 232 -216 282 -573 121 -852 -56 -97 -171 -206 -270
-258 -288 -149 -622 -95 -834 135 -261 286 -246 719 35 980 168 156 374 214
611 172z"/>
<path d="M800 5320 c0 -33 4 -60 10 -60 6 0 10 11 10 25 0 33 23 32 44 0 9
-14 21 -23 27 -20 5 4 3 15 -5 27 -11 15 -12 25 -4 38 19 30 3 50 -42 50 l-40
0 0 -60z m68 28 c-7 -19 -38 -22 -38 -4 0 10 9 16 21 16 12 0 19 -5 17 -12z"/>
<path d="M4747 5163 c-4 -3 -7 -30 -7 -60 0 -40 4 -53 15 -53 10 0 15 10 15
28 l1 27 24 -27 c30 -34 54 -38 33 -6 -13 20 -13 26 -1 44 12 19 12 24 -2 38
-16 16 -66 22 -78 9z m63 -33 c0 -5 -9 -10 -20 -10 -11 0 -20 5 -20 10 0 6 9
10 20 10 11 0 20 -4 20 -10z"/>
<path d="M2083 5193 c9 -2 23 -2 30 0 6 3 -1 5 -18 5 -16 0 -22 -2 -12 -5z"/>
<path d="M2208 5193 c6 -2 18 -2 25 0 6 3 1 5 -13 5 -14 0 -19 -2 -12 -5z"/>
<path d="M2118 1869 c-1 -28 0 -53 5 -56 4 -2 7 5 7 16 0 32 21 36 42 8 24
-33 46 -36 25 -4 -12 19 -13 26 -2 41 21 28 7 46 -35 46 l-38 0 -4 -51z m62
26 c0 -8 -9 -15 -20 -15 -11 0 -20 7 -20 15 0 8 9 15 20 15 11 0 20 -7 20 -15z"/>
<path d="M2903 1813 c9 -2 23 -2 30 0 6 3 -1 5 -18 5 -16 0 -22 -2 -12 -5z"/>
<path d="M3033 1803 c9 -2 25 -2 35 0 9 3 1 5 -18 5 -19 0 -27 -2 -17 -5z"/>
<path d="M3213 1793 c9 -2 23 -2 30 0 6 3 -1 5 -18 5 -16 0 -22 -2 -12 -5z"/>
<path d="M3393 1783 c9 -2 23 -2 30 0 6 3 -1 5 -18 5 -16 0 -22 -2 -12 -5z"/>
<path d="M3578 1773 c7 -3 16 -2 19 1 4 3 -2 6 -13 5 -11 0 -14 -3 -6 -6z"/>
<path d="M3430 4711 l0 -61 34 0 c44 0 80 33 59 54 -4 4 -7 19 -8 34 0 25 -4
27 -42 30 l-43 3 0 -60z m70 30 c0 -9 -24 -21 -41 -21 -5 0 -9 7 -9 15 0 9 9
15 25 15 14 0 25 -4 25 -9z m0 -51 c0 -5 -11 -10 -25 -10 -14 0 -25 5 -25 10
0 6 11 10 25 10 14 0 25 -4 25 -10z"/>
<path d="M3820 3680 l0 -60 31 0 c51 0 67 15 65 57 -3 53 -12 63 -57 63 l-39
0 0 -60z m70 25 c0 -16 -35 -21 -44 -6 -8 12 4 21 26 21 10 0 18 -7 18 -15z
m0 -50 c0 -15 -43 -12 -48 3 -3 10 4 13 22 10 15 -2 26 -7 26 -13z"/>
<path d="M2250 3550 l0 -60 31 0 c51 0 67 15 65 57 -3 53 -12 63 -57 63 l-39
0 0 -60z m70 31 c0 -6 -5 -13 -10 -16 -15 -9 -43 3 -35 15 8 13 45 13 45 1z
m-2 -53 c-3 -7 -13 -13 -23 -13 -10 0 -20 6 -22 13 -3 7 5 12 22 12 17 0 25
-5 23 -12z"/>
<path d="M4610 3431 c0 -28 0 -54 0 -58 -1 -11 38 -16 66 -9 22 6 24 11 21 59
l-2 52 -42 3 -43 3 0 -50z m70 20 c0 -9 -24 -21 -41 -21 -5 0 -9 7 -9 15 0 9
9 15 25 15 14 0 25 -4 25 -9z m-2 -53 c-7 -20 -48 -23 -48 -4 0 11 9 16 26 16
16 0 24 -5 22 -12z"/>
<path d="M3037 3343 c-3 -4 -4 -30 -3 -58 l1 -50 40 4 c22 1 43 5 47 7 4 3 6
26 5 52 l-2 47 -42 3 c-22 2 -43 -1 -46 -5z m68 -23 c4 -6 -5 -10 -19 -10 -14
0 -26 5 -26 10 0 6 9 10 19 10 11 0 23 -4 26 -10z m5 -50 c0 -5 -11 -10 -25
-10 -14 0 -25 5 -25 10 0 6 11 10 25 10 14 0 25 -4 25 -10z"/>
<path d="M3430 2261 l0 -61 33 0 c44 0 73 21 62 46 -4 10 -8 30 -9 44 -1 22
-6 25 -43 28 l-43 3 0 -60z m68 27 c-7 -20 -48 -23 -48 -4 0 11 9 16 26 16 16
0 24 -5 22 -12z m0 -50 c-7 -20 -48 -23 -48 -4 0 11 9 16 26 16 16 0 24 -5 22
-12z"/>
<path d="M800 1220 c0 -33 4 -60 10 -60 6 0 10 9 10 19 0 31 18 34 36 6 9 -14
23 -25 31 -25 13 0 13 4 -2 27 -12 18 -14 28 -7 31 18 6 14 49 -4 56 -9 3 -29
6 -45 6 -29 0 -29 0 -29 -60z m68 23 c2 -8 -5 -13 -17 -13 -12 0 -21 6 -21 16
0 18 31 15 38 -3z"/>
<path d="M4740 999 c0 -44 3 -60 13 -57 6 3 13 14 15 26 4 29 12 28 38 -5 26
-33 44 -24 22 9 -13 20 -13 25 -2 36 25 23 0 52 -46 52 l-40 0 0 -61z m70 31
c0 -5 -9 -10 -20 -10 -11 0 -20 5 -20 10 0 6 9 10 20 10 11 0 20 -4 20 -10z"/>
<path d="M1460 6289 c-12 -23 -20 -43 -18 -45 3 -2 14 17 26 41 27 56 20 60
-8 4z"/>
<path d="M1392 6050 c0 -14 2 -19 5 -12 2 6 2 18 0 25 -3 6 -5 1 -5 -13z"/>
<path d="M2118 5990 c-1 -22 -2 -47 -2 -55 -1 -23 19 -19 22 5 5 27 17 25 40
-7 24 -33 42 -24 20 9 -13 20 -13 25 -2 36 24 22 0 52 -41 52 -34 0 -35 -1
-37 -40z m62 5 c0 -8 -9 -15 -20 -15 -11 0 -20 7 -20 15 0 8 9 15 20 15 11 0
20 -7 20 -15z"/>
<path d="M2890 5919 c0 -5 28 -9 62 -9 34 0 59 2 57 4 -10 8 -119 14 -119 5z"/>
<path d="M3098 5903 c17 -2 47 -2 65 0 17 2 3 4 -33 4 -36 0 -50 -2 -32 -4z"/>
<path d="M3278 5893 c17 -2 47 -2 65 0 17 2 3 4 -33 4 -36 0 -50 -2 -32 -4z"/>
<path d="M3458 5883 c17 -2 47 -2 65 0 17 2 3 4 -33 4 -36 0 -50 -2 -32 -4z"/>
<path d="M3638 5873 c17 -2 47 -2 65 0 17 2 3 4 -33 4 -36 0 -50 -2 -32 -4z"/>
<path d="M3863 5863 c9 -2 25 -2 35 0 9 3 1 5 -18 5 -19 0 -27 -2 -17 -5z"/>
<path d="M4043 5853 c9 -2 25 -2 35 0 9 3 1 5 -18 5 -19 0 -27 -2 -17 -5z"/>
<path d="M4223 5843 c9 -2 23 -2 30 0 6 3 -1 5 -18 5 -16 0 -22 -2 -12 -5z"/>
<path d="M4403 5833 c9 -2 23 -2 30 0 6 3 -1 5 -18 5 -16 0 -22 -2 -12 -5z"/>
<path d="M6060 5755 c0 -30 5 -55 10 -55 6 0 10 11 10 25 0 32 9 32 36 -2 12
-16 26 -25 30 -21 4 4 1 15 -6 23 -11 13 -11 20 0 39 17 33 6 46 -41 46 l-39
0 0 -55z m60 25 c0 -5 -9 -10 -20 -10 -11 0 -20 5 -20 10 0 6 9 10 20 10 11 0
20 -4 20 -10z"/>
<path d="M6645 2169 c76 -83 124 -156 161 -246 13 -32 24 -51 24 -43 0 44
-119 241 -187 308 -59 57 -57 46 2 -19z"/>
<path d="M6060 1650 c0 -33 4 -60 10 -60 6 0 10 11 10 25 0 33 13 32 38 -2 23
-31 40 -26 23 6 -9 15 -8 26 1 40 17 28 -5 51 -48 51 l-34 0 0 -60z m65 25 c0
-5 -10 -11 -22 -13 -16 -2 -23 2 -23 13 0 11 7 15 23 13 12 -2 22 -7 22 -13z"/>
<path d="M6778 1301 c-73 -152 -209 -286 -361 -357 -29 -13 -46 -24 -39 -24 7
0 32 10 55 21 159 81 303 231 371 387 43 98 26 81 -26 -27z"/>
<path d="M5865 905 c17 -8 41 -14 55 -14 15 0 5 6 -25 14 -62 17 -69 17 -30 0z"/>
<path d="M6268 893 c6 -2 18 -2 25 0 6 3 1 5 -13 5 -14 0 -19 -2 -12 -5z"/>
<path d="M5963 883 c9 -2 23 -2 30 0 6 3 -1 5 -18 5 -16 0 -22 -2 -12 -5z"/>
<path d="M6213 883 c9 -2 23 -2 30 0 6 3 -1 5 -18 5 -16 0 -22 -2 -12 -5z"/>
<path d="M6053 873 c26 -2 68 -2 95 0 26 2 4 3 -48 3 -52 0 -74 -1 -47 -3z"/>
</g>
</svg>
